STARTFONT 2.3
FONT -FontForge-Hanalei-Book-R-Normal--28-280-72-72-P-141-ISO10646-1
SIZE 28 72 72  4
FONTBOUNDINGBOX 37 37 -2 -8
COMMENT "Generated by fontforge, http://fontforge.sourceforge.net"
COMMENT "Copyright (c) 2012 by Brian J. Bonislawsky DBA Astigmatic (AOETI) (astigma@astigmatic.com), with ReservedFont Name "Hanalei""
STARTPROPERTIES 40
FOUNDRY "FontForge"
FAMILY_NAME "Hanalei"
WEIGHT_NAME "Book"
SLANT "R"
SETWIDTH_NAME "Normal"
ADD_STYLE_NAME ""
PIXEL_SIZE 28
POINT_SIZE 280
RESOLUTION_X 72
RESOLUTION_Y 72
SPACING "P"
AVERAGE_WIDTH 141
CHARSET_REGISTRY "ISO10646"
CHARSET_ENCODING "1"
FONTNAME_REGISTRY ""
CHARSET_COLLECTIONS "ISO8859-2 ISO8859-9 ISO8859-4 ISO10646-1"
BITS_PER_PIXEL 4
FONT_NAME "Hanalei-Regular"
FACE_NAME "Hanalei"
COPYRIGHT "Copyright (c) 2012 by Brian J. Bonislawsky DBA Astigmatic (AOETI) (astigma@astigmatic.com), with ReservedFont Name "Hanalei""
FONT_VERSION "1.000"
FONT_ASCENT 22
FONT_DESCENT 6
UNDERLINE_POSITION -4
UNDERLINE_THICKNESS 1
X_HEIGHT 18
CAP_HEIGHT 18
RAW_ASCENT 799
RAW_DESCENT 200
NORM_SPACE 6
RELATIVE_WEIGHT 40
RELATIVE_SETWIDTH 50
SUPERSCRIPT_X 0
SUPERSCRIPT_Y 13
SUPERSCRIPT_SIZE 18
SUBSCRIPT_X 0
SUBSCRIPT_Y 3
SUBSCRIPT_SIZE 18
AVG_LOWERCASE_WIDTH 150
AVG_UPPERCASE_WIDTH 148
ENDPROPERTIES
CHARS 366
STARTCHAR space
ENCODING 32
SWIDTH 200 0
DWIDTH 6 0
BBX 1 1 0 0
BITMAP
00
ENDCHAR
STARTCHAR exclam
ENCODING 33
SWIDTH 257 0
DWIDTH 7 0
BBX 6 21 1 -1
BITMAP
024300
9857A2
A00054
A00091
9100A0
8200A0
9100A0
CAA691
B101A0
A000A0
9100A0
920190
A100A0
B101B0
29A920
001000
798A40
A00360
910540
863940
046200
ENDCHAR
STARTCHAR quotedbl
ENCODING 34
SWIDTH 476 0
DWIDTH 13 0
BBX 13 12 0 9
BITMAP
01686100487300
0B425B07723A40
0A000A06400730
0A001904600910
0A000A05500810
0DA95A08A99650
1B000A09300640
09000A06300820
0A000A06400820
0A000A08200550
29000B1A100480
06BBB502ABB910
ENDCHAR
STARTCHAR numbersign
ENCODING 35
SWIDTH 1076 0
DWIDTH 30 0
BBX 29 21 1 -1
BITMAP
048951000028961003300130002000
68227E8002B325B02A7AAADAAAA700
560038B000A000B073000081011B00
380064A100A001A082000082A99E10
3800735700B0028086012146400560
5600730B20A002908CA9C9AA600730
98865744A4B872B064009001700900
B4234C51B59222B054009002700900
730073008580028064009003600900
650086002BA004708200CACB87BC00
55008C1008A00470A100A0A3431D00
7400795001B102908BAA4082000B00
AA9748A6A77A83B073000070000A00
920265B7003812A02A69AA79A98800
7300923A000B037003410131003000
7400A10930058560009A9655670000
820091029000986005601344375000
A0007300B000778008300000028000
B0005700A22791B005600000046000
5B9AA10028CD9B3000A999999B1000
001100000001100000000000000000
ENDCHAR
STARTCHAR dollar
ENCODING 36
SWIDTH 453 0
DWIDTH 13 0
BBX 12 26 0 -4
BITMAP
00004AAB3000
0000B000A000
000090009000
000090027320
00009004C9B2
0000ABC8301A
047A82B0000B
3A300063002B
550000238A74
2800059B4000
0E54B9B50000
197800A96000
099307306A40
001956000179
00009920000B
000005D60049
00028BB876BB
0AA930A1650A
46000044159B
46000026B510
0A005B996000
04AAC0045000
001290044000
000090036000
0000B4276000
000017850000
ENDCHAR
STARTCHAR percent
ENCODING 37
SWIDTH 889 0
DWIDTH 25 0
BBX 25 20 0 0
BITMAP
00520001000000000000000000
07457779300048820000000000
1B892001C60090183000000000
25028323680080072000000000
070464A7080080090000000000
07053070080360260000000000
07053070080810540000000000
164A6280080B87630000000000
35813590080900810000000000
58600090191700809877784000
0594668BC1440355B71000A400
00231124208106291190008820
0000000000C7371700A7886700
00000000008159170080430800
00000000026019070080430800
00000000063045070170520800
00000000090072086787A10700
00000000270080088000800530
000000000964A107C000498900
00000000003410003877779000
ENDCHAR
STARTCHAR ampersand
ENCODING 38
SWIDTH 627 0
DWIDTH 18 0
BBX 18 22 0 -1
BITMAP
000006300000000000
000096799AB6333000
0003DAB400A477A200
001B10280095515600
0039000A22686C7500
00075007BAC102D100
0000B001A74002A000
0000830359001A1000
000049B61A00A10000
00003E100916500000
0004A950039A000000
000A10A100A5000000
00750047001B002930
048001AA28879AA3A1
59000A29A203800046
B0006DC9A000B00018
B101A2906500664795
AB6940800A000A8320
A03300427D10038000
820169AB46401B2000
2A7A400002AA920000
024000000000000000
ENDCHAR
STARTCHAR quotesingle
ENCODING 39
SWIDTH 246 0
DWIDTH 7 0
BBX 7 12 0 9
BITMAP
01686100
0B425B00
0A000A00
0A001900
0A000A00
0DA95A00
1B000A00
09000A00
0A000A00
0A000A00
29000B10
06BBB500
ENDCHAR
STARTCHAR parenleft
ENCODING 40
SWIDTH 387 0
DWIDTH 11 0
BBX 12 24 -1 -2
BITMAP
000000141000
000000B7B800
000002900760
0000083003A0
000039001B10
0002B1009300
000A9B31A000
001A00755000
0084001B1000
02A000930000
1B1003800000
47000A100000
0B300E400000
09DAA5B00000
01A2004A0000
001A00048000
000554A3A100
0000CA003900
000068000850
000008500095
000000B1000B
00000038002A
0000000A34B2
000000038710
ENDCHAR
STARTCHAR parenright
ENCODING 41
SWIDTH 386 0
DWIDTH 11 0
BBX 13 24 -1 -2
BITMAP
00002410000000
001AA7A0000000
009400A0000000
00B10066000000
002A000B100000
00066002B10000
0000B05BA70000
000084600B0000
00002A00075000
0000047000B100
000000A1003A00
00000047000A10
0000007C005A00
000001A7AAD700
00001B20059000
0000A2001A0000
00048593920000
000B101BA00000
0085000A400000
07800084000000
29000480000000
0B100A10000000
04B44800000000
00278100000000
ENDCHAR
STARTCHAR asterisk
ENCODING 42
SWIDTH 517 0
DWIDTH 14 0
BBX 14 14 0 7
BITMAP
00000023000000
00000687A00000
00000630900000
00100460900000
09A503609019B3
4605A7AA89920A
57200A0045002A
158A87001A9A84
00006710491000
0001A3B5857000
001A21A5708400
00920830A10A10
00581900463A00
00048300087100
ENDCHAR
STARTCHAR plus
ENCODING 43
SWIDTH 458 0
DWIDTH 13 0
BBX 13 13 0 3
BITMAP
00000010000000
00003B9A600000
0000A000A10000
00009100A00000
06A7A8A7B58500
29023276662B00
55000045000730
56000054000820
1B479867996A00
03738345714200
0000A001800000
0000B102A00000
000029B9200000
ENDCHAR
STARTCHAR comma
ENCODING 44
SWIDTH 228 0
DWIDTH 6 0
BBX 7 8 -1 -4
BITMAP
00089400
00371950
009000A0
084004A0
85003900
9101A000
39164000
04980000
ENDCHAR
STARTCHAR hyphen
ENCODING 45
SWIDTH 465 0
DWIDTH 13 0
BBX 13 6 0 6
BITMAP
07B989CA77A700
29011056341A10
46000037000640
28000044000830
0A69AA89AA8A00
01510021002100
ENDCHAR
STARTCHAR period
ENCODING 46
SWIDTH 202 0
DWIDTH 6 0
BBX 5 6 0 -1
BITMAP
001000
2A8990
360090
280090
2A45A0
025400
ENDCHAR
STARTCHAR slash
ENCODING 47
SWIDTH 453 0
DWIDTH 13 0
BBX 13 20 0 0
BITMAP
00000000100000
000000099BA100
0000000B003B00
00000029000B20
00000093006600
0000049000B000
00000DA5056000
00002816682000
000065001B0000
0000B100930000
00048002900000
000D3007400000
00498A2A000000
0083014B000000
00B00093000000
07500390000000
4A000920000000
75000B00000000
0B612A00000000
00599300000000
ENDCHAR
STARTCHAR zero
ENCODING 48
SWIDTH 646 0
DWIDTH 18 0
BBX 20 22 -1 -1
BITMAP
00000002410000000000
0000000B7C6100000000
0000005600BC60000000
000001B00058B1000000
0000093003A149000000
0000A8001C1006800000
000397A1788000590000
000A1024A07519483000
00660009400BB201A100
04A000740006A0002A00
2B4AC4800000570003B2
1CA02E2000000A500056
0A1003B1000187A200B2
0A50002B501DA02A4A60
00790003949459099200
0004A0950C80043B0000
00005B70880002A30000
0000097A500029100000
0000006D0001A1000000
00000006700A20000000
000000007A9700000000
00000000002000000000
ENDCHAR
STARTCHAR one
ENCODING 49
SWIDTH 400 0
DWIDTH 11 0
BBX 12 21 -1 -1
BITMAP
000001974300
00001AAA67B2
0002A2A10065
018810730091
1B20007400A0
370005D300A0
0B1067B33191
02A980E87783
000100A000A0
000000A000A0
0000009100A0
000000A000A0
000000C54182
000000C55683
000000A000A0
000000A000A0
000000B000A0
000000B000B0
000003800092
000001B646B1
000000057500
ENDCHAR
STARTCHAR two
ENCODING 50
SWIDTH 502 0
DWIDTH 14 0
BBX 14 21 0 -1
BITMAP
00000210000000
00003A9CA60000
0002A0084A1000
002A100282A000
0591003A304900
850004B8000491
91003906800038
4A11A000760075
04AA20009C47C4
0000002A528438
000004E40006A2
00002B2A208700
0002B101767000
005A10005A0000
07700008800000
0830009C556950
1BB107984541B0
373B8A19000082
39002126000092
0A7AAA77AAA7A0
00410133001410
ENDCHAR
STARTCHAR three
ENCODING 51
SWIDTH 456 0
DWIDTH 13 0
BBX 13 21 0 -1
BITMAP
00520000000000
0879A976730000
1A0001343B0000
290000000BB100
0B0100000A3800
05B99CB8860B00
00007E3142B400
0002A1931B1000
003B1156930000
04A14A6C700000
0551B004900000
01B650003A3000
002CA20002A910
000039815BAA40
00003BCB600C20
068A8580000730
573000A0000920
830000617AA700
6600269B400000
0B499420000000
01730000000000
ENDCHAR
STARTCHAR four
ENCODING 52
SWIDTH 514 0
DWIDTH 14 0
BBX 15 21 -1 -1
BITMAP
0000000010341000
0000000BAD96A700
0000005503A00B00
000000A000A12800
0000093006604600
000095003A004600
0004AA50C8323800
000A1064EB773A00
0066001A66004700
039000A269117A10
2A1006A97C886490
38001A000A0000A0
09505400090000A0
007CB15666999970
0000995379104600
0000000037006300
0000000046006400
0000000074005500
00000000B0002900
000000007945A500
0000000003662000
ENDCHAR
STARTCHAR five
ENCODING 53
SWIDTH 500 0
DWIDTH 14 0
BBX 14 21 0 -1
BITMAP
00010001002600
05BABA9D9A8760
0A000A0A0000A0
090018090000A0
08003823477780
09003B89622510
09003800000000
09485A44000100
0B92676CAAAB20
0840000A04AC80
055000092A0085
01B79855690063
00230256390081
00000000090090
00000000090081
09AAAADA9CAB73
47000092220596
640000720002D2
47000060000460
0AAAAAAAAAAB10
00100010000100
ENDCHAR
STARTCHAR six
ENCODING 54
SWIDTH 520 0
DWIDTH 15 0
BBX 16 21 -1 -1
BITMAP
0000048720000000
00002B34A6000000
000028000C000000
0000470056000000
00008300A1000000
0001B000A0000000
0007C951A0000000
00083044D1000000
000910087B100000
000A000B02A71000
000A0019000AA000
00560039001A5A10
00AAA84BA09203A8
00A002753A5A300A
00B000B01AA2B458
029003B993002CB1
0830067100000C10
1A00073000059900
0B30084007A61000
019AAD33B4000000
0000019910000000
ENDCHAR
STARTCHAR seven
ENCODING 55
SWIDTH 423 0
DWIDTH 12 0
BBX 13 21 -1 -1
BITMAP
00200020001300
069AAACBAA9A30
0A000055000280
1A0000450000B0
0B0011223424D0
04BA99AD968D50
0000001B000B00
0000008C940A00
00000091064900
000000B0009300
000001A001A000
00000740065000
00000DA6082000
00001904792000
000056002A0000
00009200920000
0002A000B00000
000A2002800000
00093004700000
0001AA8B400000
00000121000000
ENDCHAR
STARTCHAR eight
ENCODING 56
SWIDTH 527 0
DWIDTH 15 0
BBX 15 21 0 -1
BITMAP
0010000100002000
06BAABBDBAAAB500
0B00000550000A00
0B00000541994A00
3E3378757B32A800
1CB747854A000A00
01B000A355005600
0057013AA0019000
000A593560082000
0007A000B1180000
0003E30039630000
000A3B1005D00000
0028038016730000
008100B6B3190000
0470058D00083000
1A000A068001B100
91005BA9A4002B10
830090003B000850
1B8780003C203E50
007A69AA9BBAEC10
0005510011002200
ENDCHAR
STARTCHAR nine
ENCODING 57
SWIDTH 500 0
DWIDTH 14 0
BBX 15 21 0 -1
BITMAP
0000000005000000
00000236B7A51000
0003AE850079B600
6AA7137000380A30
B000009002660B20
B0000036D8617500
930189AA8000B000
9B8A670BAA347000
8530067A01674000
07800076001B0000
004900A100930000
0003948001A00000
00005E9205600000
00001A2877300000
000055001B100000
0000B10093000000
00066002A0000000
002A000640000000
001B000A10000000
0004B65C00000000
0000145100000000
ENDCHAR
STARTCHAR colon
ENCODING 58
SWIDTH 245 0
DWIDTH 7 0
BBX 5 16 1 -1
BITMAP
057400
953680
810260
810360
4A9A30
000000
000000
000000
000000
000000
001000
6A8A50
900270
720450
773850
036300
ENDCHAR
STARTCHAR semicolon
ENCODING 59
SWIDTH 270 0
DWIDTH 8 0
BBX 8 19 -1 -4
BITMAP
00016630
000B4394
00090073
000A0072
0007A991
00000000
00000000
00000000
00000000
00000000
00000000
0004A710
000915B0
00450064
02A001A3
2A100A20
37007400
0A30A000
01893000
ENDCHAR
STARTCHAR less
ENCODING 60
SWIDTH 445 0
DWIDTH 12 0
BBX 12 16 0 2
BITMAP
000000003200
00000003AA60
0000027A10A3
00007E400038
001862900178
09A300635A40
460000068000
280005A50000
0E407D200000
488B729B1000
5600002BA200
1AA500922AA4
0006A2500029
00003B820047
0000003A41B1
000000009A20
ENDCHAR
STARTCHAR equal
ENCODING 61
SWIDTH 484 0
DWIDTH 14 0
BBX 12 14 1 3
BITMAP
010000000000
6AAA9BDA9AB1
B00000901046
B00000900029
B00000500046
5AAAAAAAAAB1
020000000000
010000000000
6AAA9BDA9AB1
B00000901046
B00000900029
B00000500046
5AAAAAAAAAB1
020000000000
ENDCHAR
STARTCHAR greater
ENCODING 62
SWIDTH 445 0
DWIDTH 12 0
BBX 12 16 0 2
BITMAP
000400000000
02B890000000
0B305A400000
1A0001BC1000
1C400482A400
0179180017A5
0002A300000A
000029910019
0000007D21B6
00005B62BA4A
00069900000A
08B6092018A5
29000164A200
0B0005A80000
0761A6100000
007C30000000
ENDCHAR
STARTCHAR question
ENCODING 63
SWIDTH 455 0
DWIDTH 13 0
BBX 13 21 0 -1
BITMAP
01970000000000
0B34A852000000
2800026E810000
4600002839AA00
2A310073000910
0468A640000A00
000005EB812E10
000179402AB920
00074000039800
006C3000870000
0093A11A300000
00633AB1000000
00630090000000
00A201B0000000
0019AA40000000
00001000000000
00798A40000000
00900450000000
00900640000000
00963940000000
00046200000000
ENDCHAR
STARTCHAR at
ENCODING 64
SWIDTH 812 0
DWIDTH 23 0
BBX 22 23 1 -2
BITMAP
0034000200011000000000
0196999CAAA9DAA9B50000
2C30000800009008AB3000
7850000600006055007000
56BABAA999AA9AA8008000
4606403312300308008000
5506337565A77678367300
8644662000700099724400
A6556498835443C5502600
820633402A693581800900
6308243035080070846830
6307261070080080962530
8305582670080080450350
A88587A3888D88BB690090
82065B5000090009280072
73081370001700080A4690
8208109888878855556C10
A006A64000020035458600
A00562A965100000000000
4BA9108024700000000000
0298724001800000000000
0000177847300000000000
0000000045000000000000
ENDCHAR
STARTCHAR A
ENCODING 65
SWIDTH 507 0
DWIDTH 14 0
BBX 15 20 0 0
BITMAP
0000587100000000
0004935B40000000
00046001D6200000
0006500767600000
0009100B04600000
001A000A02800000
008CA51900B00000
0092054900830000
0091008C88480000
00A000BA20190000
00A00294700A1200
05600372B35D9B10
0ABA74DCB7510370
0A002760A00000A0
0B000B0090000190
1A002800349ADB30
65005BAAAC105600
B00066000B000B00
A30065000A002B20
19AA910007BA9200
ENDCHAR
STARTCHAR B
ENCODING 66
SWIDTH 533 0
DWIDTH 15 0
BBX 15 23 0 -2
BITMAP
0003A80000000000
006B15B620000000
09B500059D300000
07B300000B894100
05A9410046027980
05546CA2600000A0
0740093AA7200290
0B8966403C991A30
0C31269A8103BB20
0910098A20016A10
08300A01806A3000
07300A0038C40000
09200926A5089400
0CA976D900001940
0A001847B4000830
09100A5AAA802D60
09203D8A306AB480
0AAA720190057B50
0D80000062A83000
2C9000048A200000
06D205B620000000
001BA70000000000
0000100000000000
ENDCHAR
STARTCHAR C
ENCODING 67
SWIDTH 515 0
DWIDTH 14 0
BBX 15 21 0 -1
BITMAP
002BA64451000000
00921456CAAAAA00
00A0000091000830
00A0000090000640
0086787332200820
009632B7A88AA900
01D750A000001000
03A344B000000000
029001A000000000
0280056000000000
0560074000000000
0941064000000000
0B79966000000000
0B00092000000000
0B000A022126B600
29002CABC9850A20
93001A00A0000550
77002A0090000550
09DB920043799B10
02A17AAAA7301100
0049500000000000
ENDCHAR
STARTCHAR D
ENCODING 68
SWIDTH 520 0
DWIDTH 15 0
BBX 15 22 0 -1
BITMAP
0000033000000000
0069B7A200000000
097C202A10000000
07680003A1000000
057B20003B300000
0561A50002E20000
07400B6008490000
0B8857D474049000
0C31365B40004A30
09100910880001B0
08300A0007800480
07300A0003D45C70
092009204B1971B0
0CA9765990002A50
0A0017B8A302B200
09100B90091B1000
09200A0001940000
0A000A001A500000
0B000911B3000000
2A00075A30000000
06B9BC6700000000
0001178000000000
ENDCHAR
STARTCHAR E
ENCODING 69
SWIDTH 490 0
DWIDTH 14 0
BBX 14 21 0 -1
BITMAP
00698415411450
096128C8B99684
07400551A00019
05600820900019
05600953467685
07400978843460
0B885640000000
0C313640010000
091009AAAA8000
08300A0000A000
07300A0000A000
0920094310A000
0CA976A69B4000
0A001730000000
09100A67300110
09200B499AA9A0
0A000A06400082
0B000917200073
2A0007945640A0
06B9B947546A50
00010000000000
ENDCHAR
STARTCHAR F
ENCODING 70
SWIDTH 475 0
DWIDTH 13 0
BBX 14 21 0 -1
BITMAP
00698415411450
096128C8B99684
07400551A00019
05600820900019
05600953467685
07400978843460
0B885640000000
0C313640010000
091009AAAA8000
08300A0000A000
07300A0000A000
0920094310A000
0CA976A69B4000
0A001730000000
09100A00000000
09200A00000000
0A000A00000000
0B000910000000
2A000750000000
06B9B800000000
00010000000000
ENDCHAR
STARTCHAR G
ENCODING 71
SWIDTH 557 0
DWIDTH 16 0
BBX 16 21 0 -1
BITMAP
002BA64451000000
00921456CAAAAA00
00A0000091000830
00A0000090000640
0086787332200820
009632B7A88AA900
01D750A000001000
03A344B000000000
029001A000168600
0280056002B425A0
0560074001900180
0941064000A00270
0B79966000A00190
0B00092000B784B0
0B000A0222C311A0
29002CABC9B000A0
93001A00A0A000A0
77002A0090A00092
09DB920043B00084
02A17AAAA76AAA50
0049500000000000
ENDCHAR
STARTCHAR H
ENCODING 72
SWIDTH 611 0
DWIDTH 17 0
BBX 18 21 0 -1
BITMAP
006A94000029AA5000
0961186000B3006900
0740055000A0003800
056008200083006400
05500A100064008300
074009100074008300
0B89664000A7636400
0C31264000B4366500
091009100092009200
08300B00007300B910
07300A0000787A83A0
0920094237AC3000A1
0CA976DB63073000A0
0A00174900062256B0
09100B090257A8B420
09200B37B9B4109100
0A000B7610A0008200
0B00092000B0007400
2A00075002A0008500
06BAA800005AAB7000
000100000000000000
ENDCHAR
STARTCHAR I
ENCODING 73
SWIDTH 266 0
DWIDTH 7 0
BBX 7 21 0 -1
BITMAP
006A9400
09611860
07400550
05600820
05500A10
07400910
0B896640
0C312640
09100910
08300A00
07300A00
09200920
0CA97650
0A001730
09100A00
09200A00
0A000A00
0B000920
2A000750
06BAA800
00010000
ENDCHAR
STARTCHAR J
ENCODING 74
SWIDTH 484 0
DWIDTH 14 0
BBX 14 21 -1 -1
BITMAP
00000000059950
00000000692169
00000000460028
00000000280055
00000000280064
00000000460064
00000000898647
00000000A51247
00000000740074
00031000560082
03B8A000560082
1B107500640064
65000A409B9848
2B300096830156
00A3054A940083
001A8602E50092
0007B0005A1092
0000960003A064
0000094002A047
000001B01BBAA1
0000006AA41100
ENDCHAR
STARTCHAR K
ENCODING 75
SWIDTH 541 0
DWIDTH 15 0
BBX 16 21 0 -1
BITMAP
0069840000000000
09612860000AB910
07400550004803A0
0560082002B10065
056009103B200196
07400914E3001B40
0B88564B3A409400
0C3136A600748000
09100990002B1000
08300A0003D10000
07300A101B920000
092009B193290000
0CA97665A0084000
0A00178D6493A000
09100BA2E710B000
09200B00B1007400
0A000A0038001B10
0B0009100B000480
2A00075008200940
06B9B80005A8A500
0001000000120000
ENDCHAR
STARTCHAR L
ENCODING 76
SWIDTH 467 0
DWIDTH 13 0
BBX 14 21 0 -1
BITMAP
006A9400000000
09611860000000
07400550000000
05600820000000
05500A10000000
07400910000000
0B896640000000
0C312640000000
09100910000000
08300A00000000
07300A00000000
09200920000000
0CA97650000000
0A001730000000
09100A42000010
09200B9CAAAAB2
0A000A28000038
0B000938000019
2A000763332056
06BAB9AA768AB1
00010000000000
ENDCHAR
STARTCHAR M
ENCODING 77
SWIDTH 733 0
DWIDTH 21 0
BBX 21 21 0 -1
BITMAP
0003884000002896000000
000C327A0000A326B10000
000B000B5000B000770000
000A002AB000B000BC0000
00280065A00290047A0000
00830082920920083A0000
00EA8292572EA929191000
00B014920B38013B056000
00A000C87786003D94A000
029003E105D4008500A000
046006C302E000C700A000
0920075900B100AA00B000
0CBA664A007C92AA009200
0A00392A683B048A575700
0A001A07700B0A1B511900
2900460280084A08200A00
74006400A002C705500B00
B00074009200A504700830
A20065008302A5046003A0
2ABBA1004AA93003B9AA30
0000000000000000021000
ENDCHAR
STARTCHAR N
ENCODING 78
SWIDTH 598 0
DWIDTH 17 0
BBX 16 21 0 -1
BITMAP
0059841000038960
097229E6003A326B
074005790029001A
0560082B000A0038
05600917500A0056
07400911B1290046
0B885755586A8739
0C3236A41B772239
091009100A660046
08300B4004B80065
07300AB000A80065
09200994001B0047
0C9966897A69983A
0A10273D50056138
09100A048001B055
09200A00A1007573
0A000A0047000A94
0B0009100A000976
2A0007500B22872A
07B9A900039DCAA2
0001000000001100
ENDCHAR
STARTCHAR O
ENCODING 79
SWIDTH 612 0
DWIDTH 17 0
BBX 17 21 0 -1
BITMAP
002BA6445100000000
00921456C9ABEE9200
00A000009100089500
00A00000900006C200
00867873322008A200
009632B7A89CA97300
01D750A00056433800
03A344B0008C763900
029001A00056003800
02800560000A003800
05600740000A001A00
09410640000A000B00
0B799660000C897830
0B000920000C201910
0B000A00311A7A7A00
29002CAAD998409D00
93001A006400004E30
77002A003600004990
09DB9200135899CC40
02A16ABAAA52587200
004951000000000000
ENDCHAR
STARTCHAR P
ENCODING 80
SWIDTH 513 0
DWIDTH 14 0
BBX 15 22 0 -1
BITMAP
0000630000000000
002B5A8100000000
07D60049A8100000
08A200000CB40000
06B500003716AA50
0569BB50810000A0
07400A7B52000190
0A4428315AC50840
0D7566404A27BD20
0A00093A70001940
08200AAA4004A400
08300B10A1580000
09200A0025800000
0B65374188000000
0B44676920000000
0A100AA100000000
09100B1000000000
0A000B0000000000
0B000A0000000000
2900074000000000
0A757B1000000000
0035300000000000
ENDCHAR
STARTCHAR Q
ENCODING 81
SWIDTH 612 0
DWIDTH 17 0
BBX 17 24 0 -4
BITMAP
002BA6445100000000
00921456C9ABEE9200
00A000009100089500
00A00000900006C200
00867873322008A200
009632B7A89CA97300
01D750A00056433800
03A344B0008C763900
029001A00056003800
02800560000A003800
05600740000A001A00
09410640000A000B00
0B799660000C897830
0B000920000C201910
0B000A00311A7A7A00
29002CAAD998409D00
93001A006400004E30
77002A003600004990
09DB9200135899CC40
02A16ACBAAC2587200
0049418200A0000000
000000910064000000
000000B00066000000
0000003AAA70000000
ENDCHAR
STARTCHAR R
ENCODING 82
SWIDTH 532 0
DWIDTH 15 0
BBX 16 22 0 -1
BITMAP
0000310000000000
00098B5000000000
05D8006A86000000
09A300001DA20000
06B300002829A930
057AA820820002A0
06400AA9300001A0
092108238BA20660
0DA886402A499E20
0B00093892003840
09200AAB6862A700
08300B4A61AA1000
09200A7500650000
0B32175A000A1000
0B77866B7003A000
0A100AB2A5849100
09100B2089004700
0A100B001B100930
0B000A00047000A1
1A00073000A001A0
1B424B2000766A20
0168610000044000
ENDCHAR
STARTCHAR S
ENCODING 83
SWIDTH 442 0
DWIDTH 12 0
BBX 13 22 0 -1
BITMAP
00000000001000
000015767AB500
08AA95C4300B00
0CAA9081000A10
3B109171010B00
A2004A69A99600
2B000B51000000
047002A0000000
00A01666000000
0069A30A000000
002D0008400000
00058001B10000
000083002B0000
00001A18882000
000009A2038000
000002A000A300
2868AEB7001B20
9342082B000650
A0000647303B00
B0000339DBC100
676AAA93121000
05500000000000
ENDCHAR
STARTCHAR T
ENCODING 84
SWIDTH 453 0
DWIDTH 13 0
BBX 14 21 -1 -1
BITMAP
04A7668A744691
1A024429566439
3800000730000A
2900000710000A
0A589A979AA995
01520A131A0030
00000B000A0000
00002DA95A0000
00002A000A0000
00000A000A0000
00000A00190000
00000A000A0000
00001B320A0000
00002C676A0000
00000A000A0000
00000B00190000
00000A00190000
000038000A0000
000075000B0000
000019A9B50000
00000011000000
ENDCHAR
STARTCHAR U
ENCODING 85
SWIDTH 583 0
DWIDTH 16 0
BBX 16 21 0 -1
BITMAP
0027861000279610
00C425B104A325B0
00B000A1037001A0
00A000A000A00380
00A0028000A00380
0290037000A001A0
07B8638001B773B0
0851338003B322A0
0640064000A000A0
0640091000B000A0
08300A0000A100A0
0B20091000A10091
0C89874000B89865
0A000A0000A31174
0B000A01129BB792
1A002CBDA8610A92
65001A03700006B4
94001B0090000768
1ACAB3004499AA2B
01A059AAA64B9AA2
004B610000001100
ENDCHAR
STARTCHAR V
ENCODING 86
SWIDTH 506 0
DWIDTH 14 0
BBX 15 20 0 -1
BITMAP
18BB900002895000
B40091000A326900
B10092000A000A10
560074000A002800
1A00380029007300
0B000B1097209000
0B8A7640B576A000
0B400560A001A000
05700370A0055000
00B000B560091000
0091009C200A0000
0064023D9A5A0000
005CA739002A0000
001A003700730000
0009107300A00000
000550B000A00000
0003765001900000
000282A203900000
0002B37FB9200000
0000376200000000
ENDCHAR
STARTCHAR W
ENCODING 87
SWIDTH 735 0
DWIDTH 21 0
BBX 22 20 -1 -1
BITMAP
019BB900000000008A9A50
1B300B00018BA400A000A3
0B000A000A401900A000A1
065008301E100900A00290
019004704B600903700550
00A000B0A6A00569510630
00B99673C5B794AD887740
00C30064A0C500AA000910
006600469055009A001A00
001A001C800A0059003700
000A000A30090276005500
0008302BA97AA8D7306400
0007BA7A001C50B4696500
000290090038A0B000A100
0000A0190073A0B0019000
000074640081A480056000
000046B000909B30064000
000037A300A11B00055000
00003A4CEA5007944A4000
0000037620000036630000
ENDCHAR
STARTCHAR X
ENCODING 88
SWIDTH 483 0
DWIDTH 14 0
BBX 14 19 0 0
BITMAP
029BA0002AA600
2B208300641780
93003800B00092
2B000A176002B1
057002BA000A10
00A102E6006500
00569D66A1A000
001E3A10158000
000798001B1000
0001C100A80000
000A5003885000
002AA809B4A000
0083045A009200
02A000A7003900
0B20076B100840
A3001A047000A3
A0007400B00066
6800A0007303B0
06AA70002AA810
ENDCHAR
STARTCHAR Y
ENCODING 89
SWIDTH 484 0
DWIDTH 14 0
BBX 16 20 -1 0
BITMAP
0000000000010000
02AA8000008AAA20
1B10A10000A002B1
8300390001A000A3
5A00066007400570
049000763A000B00
0075064ADB504700
000B9403A0577300
000780056001B000
0000940A10084000
00000A59001A0000
000002F400650000
000002A7A3910000
0000065004B00000
00000B0008400000
0000660029000000
0003A00083000000
00056000A0000000
0000A722A0000000
0000059930000000
ENDCHAR
STARTCHAR Z
ENCODING 90
SWIDTH 458 0
DWIDTH 13 0
BBX 14 20 -1 0
BITMAP
00042125202610
0067797C8A8680
00A000072000B2
00A000072000AA
007426656886CA
0009844C6126C1
0000007D300920
000000B3871A00
00000390037500
00000A2004A000
000057001B1000
0002E200750000
00085A70B00000
001B0055900000
0084001C200300
058000AD999970
3A0004872000A0
1B0009172000A0
05A32C34355390
002CA779745820
ENDCHAR
STARTCHAR bracketleft
ENCODING 91
SWIDTH 420 0
DWIDTH 12 0
BBX 12 24 0 -2
BITMAP
000000001720
0002347983B1
004D95200055
09A78A100046
0B00083479B2
09100B962000
09200A000000
0A100A000000
0B230A000000
2D876A100000
0B000A000000
0B000A000000
0B000A000000
0B000A000000
0C541A100000
0C666A100000
0A000B000000
0A000A000000
0A001A000000
1A000D999AB1
56000A100055
2B547A000046
016D86665293
000563334760
ENDCHAR
STARTCHAR backslash
ENCODING 92
SWIDTH 453 0
DWIDTH 13 0
BBX 13 20 0 0
BITMAP
00011000000000
04BAB400000000
2B103800000000
67000B00000000
0A200740000000
029001B1000000
00A117C9000000
0074930B000000
002A000A100000
00075005700000
0001B000B10000
00009200890000
0000555A6B0000
00002940083000
00000850029000
000000B000A300
00000074001B10
00000028000A20
0000000B129700
00000005983000
ENDCHAR
STARTCHAR bracketright
ENCODING 93
SWIDTH 420 0
DWIDTH 12 0
BBX 12 24 0 -2
BITMAP
046000000000
3A4986321000
92000359C100
A10003B77B50
4A9627400280
00137B700460
000001900550
000001900460
0000037133A0
0000056778D0
0000029000A0
000000A00280
000000B00370
000000A00180
0000047244B0
0000047766B0
000001A00090
000000A00290
000000A001A0
3B9999A000A0
910004700091
A00002B546A0
65356668D400
087433463000
ENDCHAR
STARTCHAR asciicircum
ENCODING 94
SWIDTH 353 0
DWIDTH 10 0
BBX 10 8 0 11
BITMAP
0001210000
000A7D9000
004604E200
00A00A3900
0920870750
46037A00A2
29090460A1
0495008940
ENDCHAR
STARTCHAR underscore
ENCODING 95
SWIDTH 499 0
DWIDTH 14 0
BBX 12 6 1 -8
BITMAP
2BA99AC868A1
920110A24238
A0000090000A
A1000080001A
597AA98AAAA4
043001200130
ENDCHAR
STARTCHAR grave
ENCODING 96
SWIDTH 183 0
DWIDTH 5 0
BBX 6 7 0 21
BITMAP
003200
3A7900
B00900
650730
0A1190
0370A1
009960
ENDCHAR
STARTCHAR a
ENCODING 97
SWIDTH 507 0
DWIDTH 14 0
BBX 15 20 0 0
BITMAP
0000587100000000
0004935B40000000
00046001D6200000
0006500767600000
0009100B04600000
001A000A02800000
008CA51900B00000
0092054900830000
0091008C88480000
00A000BA20190000
00A00294700A1200
05600372B35D9B10
0ABA74DCB7510370
0A002760A00000A0
0B000B0090000190
1A002800349ADB30
65005BAAAC105600
B00066000B000B00
A30065000A002B20
19AA910007BA9200
ENDCHAR
STARTCHAR b
ENCODING 98
SWIDTH 533 0
DWIDTH 15 0
BBX 15 23 0 -2
BITMAP
0003A80000000000
006B15B620000000
09B500059D300000
07B300000B894100
05A9410046027980
05546CA2600000A0
0740093AA7200290
0B8966403C991A30
0C31269A8103BB20
0910098A20016A10
08300A01806A3000
07300A0038C40000
09200926A5089400
0CA976D900001940
0A001847B4000830
09100A5AAA802D60
09203D8A306AB480
0AAA720190057B50
0D80000062A83000
2C9000048A200000
06D205B620000000
001BA70000000000
0000100000000000
ENDCHAR
STARTCHAR c
ENCODING 99
SWIDTH 515 0
DWIDTH 14 0
BBX 15 21 0 -1
BITMAP
002BA64451000000
00921456CAAAAA00
00A0000091000830
00A0000090000640
0086787332200820
009632B7A88AA900
01D750A000001000
03A344B000000000
029001A000000000
0280056000000000
0560074000000000
0941064000000000
0B79966000000000
0B00092000000000
0B000A022126B600
29002CABC9850A20
93001A00A0000550
77002A0090000550
09DB920043799B10
02A17AAAA7301100
0049500000000000
ENDCHAR
STARTCHAR d
ENCODING 100
SWIDTH 520 0
DWIDTH 15 0
BBX 15 22 0 -1
BITMAP
0000033000000000
0069B7A200000000
097C202A10000000
07680003A1000000
057B20003B300000
0561A50002E20000
07400B6008490000
0B8857D474049000
0C31365B40004A30
09100910880001B0
08300A0007800480
07300A0003D45C70
092009204B1971B0
0CA9765990002A50
0A0017B8A302B200
09100B90091B1000
09200A0001940000
0A000A001A500000
0B000911B3000000
2A00075A30000000
06B9BC6700000000
0001178000000000
ENDCHAR
STARTCHAR e
ENCODING 101
SWIDTH 490 0
DWIDTH 14 0
BBX 14 21 0 -1
BITMAP
00698415411450
096128C8B99684
07400551A00019
05600820900019
05600953467685
07400978843460
0B885640000000
0C313640010000
091009AAAA8000
08300A0000A000
07300A0000A000
0920094310A000
0CA976A69B4000
0A001730000000
09100A67300110
09200B499AA9A0
0A000A06400082
0B000917200073
2A0007945640A0
06B9B947546A50
00010000000000
ENDCHAR
STARTCHAR f
ENCODING 102
SWIDTH 475 0
DWIDTH 13 0
BBX 14 21 0 -1
BITMAP
00698415411450
096128C8B99684
07400551A00019
05600820900019
05600953467685
07400978843460
0B885640000000
0C313640010000
091009AAAA8000
08300A0000A000
07300A0000A000
0920094310A000
0CA976A69B4000
0A001730000000
09100A00000000
09200A00000000
0A000A00000000
0B000910000000
2A000750000000
06B9B800000000
00010000000000
ENDCHAR
STARTCHAR g
ENCODING 103
SWIDTH 557 0
DWIDTH 16 0
BBX 16 21 0 -1
BITMAP
002BA64451000000
00921456CAAAAA00
00A0000091000830
00A0000090000640
0086787332200820
009632B7A88AA900
01D750A000001000
03A344B000000000
029001A000168600
0280056002B425A0
0560074001900180
0941064000A00270
0B79966000A00190
0B00092000B784B0
0B000A0222C311A0
29002CABC9B000A0
93001A00A0A000A0
77002A0090A00092
09DB920043B00084
02A17AAAA76AAA50
0049500000000000
ENDCHAR
STARTCHAR h
ENCODING 104
SWIDTH 611 0
DWIDTH 17 0
BBX 18 21 0 -1
BITMAP
006A94000029AA5000
0961186000B3006900
0740055000A0003800
056008200083006400
05500A100064008300
074009100074008300
0B89664000A7636400
0C31264000B4366500
091009100092009200
08300B00007300B910
07300A0000787A83A0
0920094237AC3000A1
0CA976DB63073000A0
0A00174900062256B0
09100B090257A8B420
09200B37B9B4109100
0A000B7610A0008200
0B00092000B0007400
2A00075002A0008500
06BAA800005AAB7000
000100000000000000
ENDCHAR
STARTCHAR i
ENCODING 105
SWIDTH 266 0
DWIDTH 7 0
BBX 7 21 0 -1
BITMAP
006A9400
09611860
07400550
05600820
05500A10
07400910
0B896640
0C312640
09100910
08300A00
07300A00
09200920
0CA97650
0A001730
09100A00
09200A00
0A000A00
0B000920
2A000750
06BAA800
00010000
ENDCHAR
STARTCHAR j
ENCODING 106
SWIDTH 482 0
DWIDTH 14 0
BBX 14 21 -1 -1
BITMAP
00000000059950
00000000692169
00000000460028
00000000280055
00000000280064
00000000460064
00000000898647
00000000A51247
00000000740074
00031000560082
03B8A000560082
1B107500640064
65000A409B9848
2B300096830156
00A3054A940083
001A8602E50092
0007B0005A1092
0000960003A064
0000094002A047
000001B01BBAA1
0000006AA41100
ENDCHAR
STARTCHAR k
ENCODING 107
SWIDTH 541 0
DWIDTH 15 0
BBX 16 21 0 -1
BITMAP
0069840000000000
09612860000AB910
07400550004803A0
0560082002B10065
056009103B200196
07400914E3001B40
0B88564B3A409400
0C3136A600748000
09100990002B1000
08300A0003D10000
07300A101B920000
092009B193290000
0CA97665A0084000
0A00178D6493A000
09100BA2E710B000
09200B00B1007400
0A000A0038001B10
0B0009100B000480
2A00075008200940
06B9B80005A8A500
0001000000120000
ENDCHAR
STARTCHAR l
ENCODING 108
SWIDTH 467 0
DWIDTH 13 0
BBX 14 21 0 -1
BITMAP
006A9400000000
09611860000000
07400550000000
05600820000000
05500A10000000
07400910000000
0B896640000000
0C312640000000
09100910000000
08300A00000000
07300A00000000
09200920000000
0CA97650000000
0A001730000000
09100A42000010
09200B9CAAAAB2
0A000A28000038
0B000938000019
2A000763332056
06BAB9AA768AB1
00010000000000
ENDCHAR
STARTCHAR m
ENCODING 109
SWIDTH 733 0
DWIDTH 21 0
BBX 21 21 0 -1
BITMAP
0003884000002896000000
000C327A0000A326B10000
000B000B5000B000770000
000A002AB000B000BC0000
00280065A00290047A0000
00830082920920083A0000
00EA8292572EA929191000
00B014920B38013B056000
00A000C87786003D94A000
029003E105D4008500A000
046006C302E000C700A000
0920075900B100AA00B000
0CBA664A007C92AA009200
0A00392A683B048A575700
0A001A07700B0A1B511900
2900460280084A08200A00
74006400A002C705500B00
B00074009200A504700830
A20065008302A5046003A0
2ABBA1004AA93003B9AA30
0000000000000000021000
ENDCHAR
STARTCHAR n
ENCODING 110
SWIDTH 598 0
DWIDTH 17 0
BBX 16 21 0 -1
BITMAP
0059841000038960
097229E6003A326B
074005790029001A
0560082B000A0038
05600917500A0056
07400911B1290046
0B885755586A8739
0C3236A41B772239
091009100A660046
08300B4004B80065
07300AB000A80065
09200994001B0047
0C9966897A69983A
0A10273D50056138
09100A048001B055
09200A00A1007573
0A000A0047000A94
0B0009100A000976
2A0007500B22872A
07B9A900039DCAA2
0001000000001100
ENDCHAR
STARTCHAR o
ENCODING 111
SWIDTH 612 0
DWIDTH 17 0
BBX 17 21 0 -1
BITMAP
002BA6445100000000
00921456C9ABEE9200
00A000009100089500
00A00000900006C200
00867873322008A200
009632B7A89CA97300
01D750A00056433800
03A344B0008C763900
029001A00056003800
02800560000A003800
05600740000A001A00
09410640000A000B00
0B799660000C897830
0B000920000C201910
0B000A00311A7A7A00
29002CAAD998409D00
93001A006400004E30
77002A003600004990
09DB9200135899CC40
02A16ABAAA52587200
004951000000000000
ENDCHAR
STARTCHAR p
ENCODING 112
SWIDTH 513 0
DWIDTH 14 0
BBX 15 22 0 -1
BITMAP
0000630000000000
002B5A8100000000
07D60049A8100000
08A200000CB40000
06B500003716AA50
0569BB50810000A0
07400A7B52000190
0A4428315AC50840
0D7566404A27BD20
0A00093A70001940
08200AAA4004A400
08300B10A1580000
09200A0025800000
0B65374188000000
0B44676920000000
0A100AA100000000
09100B1000000000
0A000B0000000000
0B000A0000000000
2900074000000000
0A757B1000000000
0035300000000000
ENDCHAR
STARTCHAR q
ENCODING 113
SWIDTH 612 0
DWIDTH 17 0
BBX 17 24 0 -4
BITMAP
002BA6445100000000
00921456C9ABEE9200
00A000009100089500
00A00000900006C200
00867873322008A200
009632B7A89CA97300
01D750A00056433800
03A344B0008C763900
029001A00056003800
02800560000A003800
05600740000A001A00
09410640000A000B00
0B799660000C897830
0B000920000C201910
0B000A00311A7A7A00
29002CAAD998409D00
93001A006400004E30
77002A003600004990
09DB9200135899CC40
02A16ACBAAC2587200
0049418200A0000000
000000910064000000
000000B00066000000
0000003AAA70000000
ENDCHAR
STARTCHAR r
ENCODING 114
SWIDTH 532 0
DWIDTH 15 0
BBX 16 22 0 -1
BITMAP
0000310000000000
00098B5000000000
05D8006A86000000
09A300001DA20000
06B300002829A930
057AA820820002A0
06400AA9300001A0
092108238BA20660
0DA886402A499E20
0B00093892003840
09200AAB6862A700
08300B4A61AA1000
09200A7500650000
0B32175A000A1000
0B77866B7003A000
0A100AB2A5849100
09100B2089004700
0A100B001B100930
0B000A00047000A1
1A00073000A001A0
1B424B2000766A20
0168610000044000
ENDCHAR
STARTCHAR s
ENCODING 115
SWIDTH 442 0
DWIDTH 12 0
BBX 13 22 0 -1
BITMAP
00000000001000
000015767AB500
08AA95C4300B00
0CAA9081000A10
3B109171010B00
A2004A69A99600
2B000B51000000
047002A0000000
00A01666000000
0069A30A000000
002D0008400000
00058001B10000
000083002B0000
00001A18882000
000009A2038000
000002A000A300
2868AEB7001B20
9342082B000650
A0000647303B00
B0000339DBC100
676AAA93121000
05500000000000
ENDCHAR
STARTCHAR t
ENCODING 116
SWIDTH 453 0
DWIDTH 13 0
BBX 14 21 -1 -1
BITMAP
04A7668A744691
1A024429566439
3800000730000A
2900000710000A
0A589A979AA995
01520A131A0030
00000B000A0000
00002DA95A0000
00002A000A0000
00000A000A0000
00000A00190000
00000A000A0000
00001B320A0000
00002C676A0000
00000A000A0000
00000B00190000
00000A00190000
000038000A0000
000075000B0000
000019A9B50000
00000011000000
ENDCHAR
STARTCHAR u
ENCODING 117
SWIDTH 583 0
DWIDTH 16 0
BBX 16 21 0 -1
BITMAP
0027861000279610
00C425B104A325B0
00B000A1037001A0
00A000A000A00380
00A0028000A00380
0290037000A001A0
07B8638001B773B0
0851338003B322A0
0640064000A000A0
0640091000B000A0
08300A0000A100A0
0B20091000A10091
0C89874000B89865
0A000A0000A31174
0B000A01129BB792
1A002CBDA8610A92
65001A03700006B4
94001B0090000768
1ACAB3004499AA2B
01A059AAA64B9AA2
004B610000001100
ENDCHAR
STARTCHAR v
ENCODING 118
SWIDTH 506 0
DWIDTH 14 0
BBX 15 20 0 -1
BITMAP
18BB900002895000
B40091000A326900
B10092000A000A10
560074000A002800
1A00380029007300
0B000B1097209000
0B8A7640B576A000
0B400560A001A000
05700370A0055000
00B000B560091000
0091009C200A0000
0064023D9A5A0000
005CA739002A0000
001A003700730000
0009107300A00000
000550B000A00000
0003765001900000
000282A203900000
0002B37FB9200000
0000376200000000
ENDCHAR
STARTCHAR w
ENCODING 119
SWIDTH 735 0
DWIDTH 21 0
BBX 22 20 -1 -1
BITMAP
019BB900000000008A9A50
1B300B00018BA400A000A3
0B000A000A401900A000A1
065008301E100900A00290
019004704B600903700550
00A000B0A6A00569510630
00B99673C5B794AD887740
00C30064A0C500AA000910
006600469055009A001A00
001A001C800A0059003700
000A000A30090276005500
0008302BA97AA8D7306400
0007BA7A001C50B4696500
000290090038A0B000A100
0000A0190073A0B0019000
000074640081A480056000
000046B000909B30064000
000037A300A11B00055000
00003A4CEA5007944A4000
0000037620000036630000
ENDCHAR
STARTCHAR x
ENCODING 120
SWIDTH 483 0
DWIDTH 14 0
BBX 14 19 0 0
BITMAP
029BA0002AA600
2B208300641780
93003800B00092
2B000A176002B1
057002BA000A10
00A102E6006500
00569D66A1A000
001E3A10158000
000798001B1000
0001C100A80000
000A5003885000
002AA809B4A000
0083045A009200
02A000A7003900
0B20076B100840
A3001A047000A3
A0007400B00066
6800A0007303B0
06AA70002AA810
ENDCHAR
STARTCHAR y
ENCODING 121
SWIDTH 484 0
DWIDTH 14 0
BBX 16 20 -1 0
BITMAP
0000000000010000
02AA8000008AAA20
1B10A10000A002B1
8300390001A000A3
5A00066007400570
049000763A000B00
0075064ADB504700
000B9403A0577300
000780056001B000
0000940A10084000
00000A59001A0000
000002F400650000
000002A7A3910000
0000065004B00000
00000B0008400000
0000660029000000
0003A00083000000
00056000A0000000
0000A722A0000000
0000059930000000
ENDCHAR
STARTCHAR z
ENCODING 122
SWIDTH 458 0
DWIDTH 13 0
BBX 14 20 -1 0
BITMAP
00042125202610
0067797C8A8680
00A000072000B2
00A000072000AA
007426656886CA
0009844C6126C1
0000007D300920
000000B3871A00
00000390037500
00000A2004A000
000057001B1000
0002E200750000
00085A70B00000
001B0055900000
0084001C200300
058000AD999970
3A0004872000A0
1B0009172000A0
05A32C34355390
002CA779745820
ENDCHAR
STARTCHAR braceleft
ENCODING 123
SWIDTH 473 0
DWIDTH 13 0
BBX 13 24 0 -2
BITMAP
00000000003500
000026647A7850
0006A44B2000B0
002B00090000B0
000A2009146880
00028002D53100
0000A495910000
0000C810640000
00006500290000
29743B46093000
B125665751A000
A0000001A94000
A0000003CB0000
79999B9B284000
02001A011A0000
0000B500730000
0001B8A3A00000
00045003A00000
000A1008300000
0058000C999930
00A100370001A0
003B20650000B0
00039FF9740480
00000101259A10
ENDCHAR
STARTCHAR bar
ENCODING 124
SWIDTH 263 0
DWIDTH 7 0
BBX 7 24 0 -2
BITMAP
00154000
06B78C20
09200470
06400740
05500910
06500A00
07300A10
0A553730
0D867640
0B000920
09200A00
08300A00
08300A00
09100910
0C985640
0B335740
0A100A10
09100B00
0A100B00
0B000B00
0B000920
29000740
09A79A00
00353000
ENDCHAR
STARTCHAR braceright
ENCODING 125
SWIDTH 473 0
DWIDTH 13 0
BBX 14 24 0 -2
BITMAP
02500000000000
2A5A8556400000
830018748A0000
92000720075000
4A751A000B1000
0125C600460000
0000A396820000
00009005E10000
00046002900000
001B0459546940
00652A466530A1
001B7500000065
0008B700000073
001B0B9B9998A0
00084117400200
0001A002C10000
0000A198950000
00008410180000
00001A000A0000
19999B30048000
7400037000B000
830001A0197000
470368EFB40000
08963101000000
ENDCHAR
STARTCHAR asciitilde
ENCODING 126
SWIDTH 456 0
DWIDTH 13 0
BBX 13 7 0 7
BITMAP
00099C703A9600
003804E1820910
00A10869902A00
0750670940A100
48029B00956000
280917408C0000
069601A9D60000
ENDCHAR
STARTCHAR nonbreakingspace
ENCODING 160
SWIDTH 200 0
DWIDTH 6 0
BBX 1 1 0 0
BITMAP
00
ENDCHAR
STARTCHAR exclamdown
ENCODING 161
SWIDTH 259 0
DWIDTH 7 0
BBX 7 21 0 -1
BITMAP
00144000
01A56A00
01900900
02700900
02A78A10
00021000
007A9300
08501B10
07300B00
06500B00
06300A00
08200A00
0A000A20
0A49AD20
0A000B00
09100A00
0A000A00
0A000A00
19000820
1A646A20
00464000
ENDCHAR
STARTCHAR cent
ENCODING 162
SWIDTH 480 0
DWIDTH 13 0
BBX 13 26 0 -4
BITMAP
000006AAA10000
00002900290000
00000900370000
00000900544000
000009008B8A00
00000BBC720560
0059A81A0000A0
05B00005400390
3AA00001399730
0A82018AA20000
0A1B6B40000000
0A017800000000
3DA94A00000000
28002900000000
09003700000000
0A002D73100000
37000A48E50000
49103B0286AA50
04ED81073000A0
0048AB440000A0
00000A8AA50650
0000090087B900
00000900811000
00002700720000
00003A32A30000
00000278300000
ENDCHAR
STARTCHAR sterling
ENCODING 163
SWIDTH 594 0
DWIDTH 17 0
BBX 16 21 0 -1
BITMAP
0000000200000000
000001B9A3000000
00002A4017A96400
0000BC0000014A20
0000AB1000000740
000086BA85100920
00009100B6A96900
0000B220A0026000
07A8E87696770000
3802B000A5384000
6400B000A0037000
6500A000A0056000
1B59B000BA8B1000
0252EAA792220000
0000A000A4200151
0000B000CABAA969
0000B000A190000A
00029000B090000A
00057000B335653A
00009A9B89954572
0000001000000000
ENDCHAR
STARTCHAR currency
ENCODING 164
SWIDTH 640 0
DWIDTH 18 0
BBX 18 17 0 2
BITMAP
002510000000014100
05A5A0039500097B40
1A00570A28C56600B0
460007963A38800083
19501A60A100A20780
006789A1A0001AA400
000880297C301CC600
00690001B293930760
0480001B301C7000A0
029000AA20C90004B0
00970561A867805800
004CEA00197053D200
08804A2001901A4A50
470005C10931B20093
2900392BB509A300A1
0872A101A7590A3960
005830000461027300
ENDCHAR
STARTCHAR yen
ENCODING 165
SWIDTH 575 0
DWIDTH 16 0
BBX 16 19 0 0
BITMAP
00598000003BB810
08719200007304B1
38002A0000A10057
4A000760029001B1
049000760A200740
006601498B300B00
000B4922E4893800
0006C000A0018400
0000A4056003A000
001AAE8DB75BB300
00931321B3542B00
00B0000091000A00
00A0000090000A00
005869A969A97800
00056B024B114000
0000A30038000000
0003900074000000
0000A400A1000000
000007AB90000000
ENDCHAR
STARTCHAR brokenbar
ENCODING 166
SWIDTH 258 0
DWIDTH 7 0
BBX 6 25 1 -3
BITMAP
4AAA60
B000A2
9100A0
8200A0
9120A0
D98691
A000A0
9000A0
A000A0
A00083
B424B2
169710
000000
179820
B413B1
A000A0
8200A0
9100A0
CAA791
B000A0
9000A0
A000A0
A00091
B00093
4AAA50
ENDCHAR
STARTCHAR section
ENCODING 167
SWIDTH 474 0
DWIDTH 13 0
BBX 13 21 0 -1
BITMAP
0021158769B600
09898595310A00
0A000036000820
0A880035000A00
0C539988999700
0B0001C8830000
0A000360169900
059B542059AE10
00365A84900550
00900377800740
07400908102800
0A001C9A008100
0C9475B5A7A100
0A564450025A00
02689410000910
02758EB8200B00
0B343166979C10
19000036032810
0A000023354B00
0957999A645300
00740000000000
ENDCHAR
STARTCHAR dieresis
ENCODING 168
SWIDTH 351 0
DWIDTH 10 0
BBX 10 5 0 21
BITMAP
0243002420
9757878588
9105572037
6406363063
3A9A23A9A1
ENDCHAR
STARTCHAR copyright
ENCODING 169
SWIDTH 719 0
DWIDTH 20 0
BBX 20 22 0 -1
BITMAP
00052000100020000000
00757AA9D999BBA99B10
04B0000080004505AB90
0A9000016000430A0074
086BC9999AAA999D0091
07209000100000081090
081090059888910A00A0
0B53812A1221540B5391
0C45735E4565841C4581
0A00A0395B34600A00A0
0900A0280A00000A00A0
0900A0280A00000900A0
092091370A22400A2091
0C8873550C76930D8882
0900903AA810640A00A0
09009003A989A1090090
09009000000000080090
1900999D999AD98DB390
380082080000901118A1
08BA7007000070000C60
01B9A9A899998AA88600
00110002000120015000
ENDCHAR
STARTCHAR ordfeminine
ENCODING 170
SWIDTH 455 0
DWIDTH 13 0
BBX 14 21 -1 -1
BITMAP
00000331430000
000098CC77A000
0000A2A000A000
0000A1A0009100
00038074006400
00083029001A00
002B000C000C20
008AA82E39AB30
0091026C400550
00A487C6B00290
047A01229200B0
0A380000460065
380A468899000B
0A526C000A0179
016AA40006AA50
0005A86567A200
001A0133322900
00370000000A00
00190000001A00
0008A99999B300
00001000000000
ENDCHAR
STARTCHAR guillemotleft
ENCODING 171
SWIDTH 689 0
DWIDTH 19 0
BBX 19 14 0 3
BITMAP
00000010000000010000
000004AB3000002AB500
00006801B00003A10A20
00295000820188000460
19810004A17930003940
55000196019000078100
38002A2000B001940000
3D72AA1000C929A20000
465912A301A383195000
08910018806A30006920
002A3000910196000640
00009502B00006700B10
0000097B30000069B500
00000030000000030000
ENDCHAR
STARTCHAR logicalnot
ENCODING 172
SWIDTH 591 0
DWIDTH 17 0
BBX 16 11 0 1
BITMAP
0495445863124600
1A256656A7886850
560000009006BAB2
560000018019001A
1B146764468A0027
04A64346742A0045
0000000000090064
0000000000090063
00000000000A0054
0000000000190046
000000000007AAA2
ENDCHAR
STARTCHAR uni00AD
ENCODING 173
SWIDTH 465 0
DWIDTH 13 0
BBX 13 6 0 6
BITMAP
07B989CA77A700
29011056341A10
46000037000640
28000044000830
0A69AA89AA8A00
01510021002100
ENDCHAR
STARTCHAR registered
ENCODING 174
SWIDTH 719 0
DWIDTH 20 0
BBX 20 22 0 -1
BITMAP
00052000100020000000
00757AA9D999BBA99B10
04B0000080004505AB90
0A9000016000430A0074
086BC9999AAA999D0091
07209000100000081090
081090002400000A00A0
0B548129C7A7520B5391
0C4573469002591C4581
0A00A0378C94550A00A0
0900A0270A16A00A00A0
0900A0280A00000900A0
092091270A00000A2091
0C8873370A00000D8882
090090460A00000A00A0
0900903A980000090090
09009000000000080090
1900999D999AD98DB390
380082080000901118A1
08BA7007000070000C60
01B9A9A899998AA88600
00110002000120015000
ENDCHAR
STARTCHAR macron
ENCODING 175
SWIDTH 263 0
DWIDTH 7 0
BBX 8 4 0 21
BITMAP
29877870
A0233173
90000054
6999AAA0
ENDCHAR
STARTCHAR degree
ENCODING 176
SWIDTH 333 0
DWIDTH 9 0
BBX 9 8 0 11
BITMAP
0039568100
00A1794700
0570290A00
3901A90470
830A5A30A0
1CA866A880
0900003740
0999999A10
ENDCHAR
STARTCHAR plusminus
ENCODING 177
SWIDTH 464 0
DWIDTH 13 0
BBX 13 20 0 -4
BITMAP
00000011000000
00003B9A700000
00009100920000
00007200900000
05A8A9A7B58500
1A023267563A10
46000037000640
37000045000730
0B479867996B00
02737444914200
00009100900000
0000A201A00000
000019BA200000
00100000000000
09AAA9DBAAA900
38000046000920
46000036000640
29000033000920
099AAAAAAAA900
00200000000000
ENDCHAR
STARTCHAR twosuperior
ENCODING 178
SWIDTH 324 0
DWIDTH 9 0
BBX 9 12 0 8
BITMAP
0341000000
2846777800
5300000900
3624420900
0568558900
0017008100
0081063000
0730182300
0800765730
0B52700260
089C764730
0042113400
ENDCHAR
STARTCHAR threesuperior
ENCODING 179
SWIDTH 332 0
DWIDTH 9 0
BBX 9 12 0 8
BITMAP
0430001000
3747777700
6200000B50
4524421B50
056A9A8530
0052170430
0062070340
0017870250
0877850080
0900196950
0901579910
0287200000
ENDCHAR
STARTCHAR acute
ENCODING 180
SWIDTH 202 0
DWIDTH 6 0
BBX 6 6 0 21
BITMAP
007A90
01A037
083085
570750
B03800
5AB000
ENDCHAR
STARTCHAR mu
ENCODING 181
SWIDTH 582 0
DWIDTH 16 0
BBX 16 24 0 -4
BITMAP
0000100000034100
019A9B6004B76A60
029000B007400380
00A000A003800560
00A0028001900550
00A0037001900460
00A00460038331A0
0370037006C763A0
07CA93A0038000A0
0740038000B00190
0560055000B000A0
0470074000B000B0
0460083000C45383
0550083000C64582
0730065000A7B2A0
0ABA95CCAB941AA0
08100667300009B1
0730091270000984
08300A0161579B28
09100B89A9A957B3
0B000A2110035510
1A00083000000000
1B413A3000000000
0179720000000000
ENDCHAR
STARTCHAR paragraph
ENCODING 182
SWIDTH 556 0
DWIDTH 16 0
BBX 15 22 0 -1
BITMAP
0000000001710000
000000006B5B2000
000006AA5003DB20
0003AB400000B560
2AA823700002A820
640000903AB93A00
6500015988300A00
1B02AC620A220910
0CB919600D987740
0C20005A4B000A10
0297002BAD100A00
000590910B200A00
0000582009000A00
000005A20B331820
0000001A4C678740
000000009D000B00
000000000B000B00
000000000A000B00
000000000A000B00
0000000028000830
000000001B535B10
0000000001676100
ENDCHAR
STARTCHAR periodcentered
ENCODING 183
SWIDTH 215 0
DWIDTH 6 0
BBX 6 5 0 8
BITMAP
026620
2A33A2
090090
0A0090
089980
ENDCHAR
STARTCHAR cedilla
ENCODING 184
SWIDTH 237 0
DWIDTH 7 0
BBX 7 10 0 -7
BITMAP
00003200
00078860
00090360
00090450
00090360
269B0290
A4159D20
A0169800
69A40000
02000000
ENDCHAR
STARTCHAR onesuperior
ENCODING 185
SWIDTH 286 0
DWIDTH 8 0
BBX 8 12 0 8
BITMAP
00007500
00072570
02820080
760017B1
80028171
742B3080
05853080
00052080
00061080
00070061
00074282
00005620
ENDCHAR
STARTCHAR ordmasculine
ENCODING 186
SWIDTH 476 0
DWIDTH 13 0
BBX 13 20 0 0
BITMAP
00410032001200
0979AAACAAAB10
0A000019002550
190000095B9B80
1D002213A000A0
1DBA9CAAB00090
09004500900270
09006300900350
09007200900450
190079BAB69B60
38006529341770
1DBA9109000370
0A000017000550
0968AA88AA8B10
00520022001200
004A9765573000
00B0023442B000
00A0000000A100
00A0000000B000
004A99999A6000
ENDCHAR
STARTCHAR guillemotright
ENCODING 187
SWIDTH 689 0
DWIDTH 19 0
BBX 19 14 0 3
BITMAP
00010000000010000000
02BA6000001998000000
0B207700008504910000
190005A200A0002A4000
1B500018919700006A30
006A20004603A3000090
0001A300740008500380
0001AA36D40008A54C70
002A2185550195077290
08810018915A20006A20
0A0003A300A0001A5000
0A204900008502A20000
02B79000001A8A100000
00031000000022000000
ENDCHAR
STARTCHAR onequarter
ENCODING 188
SWIDTH 790 0
DWIDTH 22 0
BBX 22 20 0 0
BITMAP
0000371000000000000000
000371A100487200000000
0066004400801930000000
3820049600800810000000
7200740700800800000000
2917802604503600000000
0284702509105300000000
000070260C876200000000
0000702608009000000000
0001600827018000199100
0002824754045000711800
0000275080062005406B60
00000000C7271055046054
0000000171591650085053
00000003501927005BA762
0000000620540B117005A1
0000000900810A881004B2
0000003600800587788953
0000000964A00000062035
0000000034100000029881
ENDCHAR
STARTCHAR onehalf
ENCODING 189
SWIDTH 771 0
DWIDTH 22 0
BBX 21 21 0 -1
BITMAP
0000371000000000000000
000371A100487200000000
0066004400801930000000
3820049600800810000000
7200740700800800000000
2917802604503600000000
0284702509105300000000
000070260C876200000000
0000702608009000000000
0001600827018163101200
0002824754045824677910
0000275080062800000440
00000000C7271835553720
0000000171591154935C10
0000000350190007105400
0000000620540054017000
0000000900810370083420
0000003600800800274390
0000000964A006A3800080
00000000341002ABA76480
0000000000000021001400
ENDCHAR
STARTCHAR threequarters
ENCODING 190
SWIDTH 817 0
DWIDTH 23 0
BBX 23 20 0 0
BITMAP
034000100000000000000000
274677780005872000000000
5300000A6008019200000000
3624420A5008008100000000
055A9A754017018000000000
004317034054044000000000
005307035090062000000000
0007870161B8671000000000
077776008270090000000000
090019796350170001991000
090157991630530008118000
02972000090071006306C500
000000001C72800540540630
000000002615906500940620
000000004402735006B97710
00000000710631A026006A00
00000000900800A880005B10
000000045008006877989620
00000001A54A000000710440
000000000341000000298810
ENDCHAR
STARTCHAR questiondown
ENCODING 191
SWIDTH 455 0
DWIDTH 13 0
BBX 12 21 0 -1
BITMAP
000000189710
000000830470
000000820360
000000A10290
000000399920
000000012000
000001A98B20
000001800550
000000A00720
0000078A4730
00019500B660
006A20006B10
4A800003A100
6A9B54A71000
3A0059A81000
450002439AA6
47100910000A
089A6A00000A
00005D96101B
00000014A7A4
000000000420
ENDCHAR
STARTCHAR Agrave
ENCODING 192
SWIDTH 507 0
DWIDTH 14 0
BBX 15 27 0 0
BITMAP
0000013000000000
000098A200000000
0006504500000000
0001A01900000000
0000470820000000
00000A1470000000
000004A910000000
0000587100000000
0004935B40000000
00046001D6200000
0006500767600000
0009100B04600000
001A000A02800000
008CA51900B00000
0092054900830000
0091008C88480000
00A000BA20190000
00A00294700A1200
05600372B35D9B10
0ABA74DCB7510370
0A002760A00000A0
0B000B0090000190
1A002800349ADB30
65005BAAAC105600
B00066000B000B00
A30065000A002B20
19AA910007BA9200
ENDCHAR
STARTCHAR Aacute
ENCODING 193
SWIDTH 507 0
DWIDTH 14 0
BBX 15 27 0 0
BITMAP
0000000001000000
000000001BA40000
00000000830A0000
00000002903A0000
0000001A12A00000
000000660A100000
0000001AB5000000
0000587100000000
0004935B40000000
00046001D6200000
0006500767600000
0009100B04600000
001A000A02800000
008CA51900B00000
0092054900830000
0091008C88480000
00A000BA20190000
00A00294700A1200
05600372B35D9B10
0ABA74DCB7510370
0A002760A00000A0
0B000B0090000190
1A002800349ADB30
65005BAAAC105600
B00066000B000B00
A30065000A002B20
19AA910007BA9200
ENDCHAR
STARTCHAR Acircumflex
ENCODING 194
SWIDTH 507 0
DWIDTH 14 0
BBX 15 27 0 0
BITMAP
000005ABB0000000
00000901E6000000
000065048A000000
0002802B04800000
000A00A920850000
000A045190470000
0003AA0089900000
0000587100000000
0004935B40000000
00046001D6200000
0006500767600000
0009100B04600000
001A000A02800000
008CA51900B00000
0092054900830000
0091008C88480000
00A000BA20190000
00A00294700A1200
05600372B35D9B10
0ABA74DCB7510370
0A002760A00000A0
0B000B0090000190
1A002800349ADB30
65005BAAAC105600
B00066000B000B00
A30065000A002B20
19AA910007BA9200
ENDCHAR
STARTCHAR Atilde
ENCODING 195
SWIDTH 507 0
DWIDTH 14 0
BBX 15 28 0 0
BITMAP
0000000000010000
000079C901B98000
0001901F36407300
000830669A01A100
005704A066093000
01A01AA109480000
0190733706D20000
004980099D800000
0000587100000000
0004935B40000000
00046001D6200000
0006500767600000
0009100B04600000
001A000A02800000
008CA51900B00000
0092054900830000
0091008C88480000
00A000BA20190000
00A00294700A1200
05600372B35D9B10
0ABA74DCB7510370
0A002760A00000A0
0B000B0090000190
1A002800349ADB30
65005BAAAC105600
B00066000B000B00
A30065000A002B20
19AA910007BA9200
ENDCHAR
STARTCHAR Adieresis
ENCODING 196
SWIDTH 507 0
DWIDTH 14 0
BBX 15 26 0 0
BITMAP
0001441014300000
005955B2A66B1000
004600A1800A0000
0009009090090000
000A9A5089A50000
0000000000000000
0000587100000000
0004935B40000000
00046001D6200000
0006500767600000
0009100B04600000
001A000A02800000
008CA51900B00000
0092054900830000
0091008C88480000
00A000BA20190000
00A00294700A1200
05600372B35D9B10
0ABA74DCB7510370
0A002760A00000A0
0B000B0090000190
1A002800349ADB30
65005BAAAC105600
B00066000B000B00
A30065000A002B20
19AA910007BA9200
ENDCHAR
STARTCHAR Aring
ENCODING 197
SWIDTH 507 0
DWIDTH 14 0
BBX 15 28 0 0
BITMAP
00000AA9AA000000
0000470746400000
0001A00B31A00000
000A208670560000
000A24D9D1270000
0005B8003AD10000
0004612210A00000
000088778A400000
0000587100000000
0004935B40000000
00046001D6200000
0006500767600000
0009100B04600000
001A000A02800000
008CA51900B00000
0092054900830000
0091008C88480000
00A000BA20190000
00A00294700A1200
05600372B35D9B10
0ABA74DCB7510370
0A002760A00000A0
0B000B0090000190
1A002800349ADB30
65005BAAAC105600
B00066000B000B00
A30065000A002B20
19AA910007BA9200
ENDCHAR
STARTCHAR AE
ENCODING 198
SWIDTH 797 0
DWIDTH 22 0
BBX 24 21 -1 -1
BITMAP
000000000002897225202630
000000008B9C313C8B9A95B0
00000000A03B300A06400073
000000056001B00B06300073
0000000B1006700C344775B1
00000076002D000C78743640
000004D4009C883B00000000
00000936A1DA212A00010000
00000B00157A000D9AAC3000
000057002B0A002900028000
0001B000920B00190001A000
00096002C43A000A43147000
001B8A26757DA94B67AB1000
0056016A1019001A00000000
00B00067000A001B76100200
075002E9999A002A4C8AAA60
58000830001900280A0000A0
75000B000046000A090000A0
1B5029000074000C54552290
006AA300001AA9B657458A10
000000000000110000000000
ENDCHAR
STARTCHAR Ccedilla
ENCODING 199
SWIDTH 515 0
DWIDTH 14 0
BBX 15 27 0 -7
BITMAP
002BA64451000000
00921456CAAAAA00
00A0000091000830
00A0000090000640
0086787332200820
009632B7A88AA900
01D750A000001000
03A344B000000000
029001A000000000
0280056000000000
0560074000000000
0941064000000000
0B79966000000000
0B00092000000000
0B000A022126B600
29002CABC9850A20
93001A00A0000550
77002A0090000550
09DB920043799B10
02A17AADAA601100
0049500904500000
0000000A03600000
0000269B02800000
0000A4159D200000
0000901698000000
000079A400000000
0000020000000000
ENDCHAR
STARTCHAR Egrave
ENCODING 200
SWIDTH 490 0
DWIDTH 14 0
BBX 14 29 0 -1
BITMAP
00000131000000
00005A78000000
0001A009000000
00009309100000
00001A03700000
00000650A00000
000000BA400000
00000000000000
00698415411450
096128C8B99684
07400551A00019
05600820900019
05600953467685
07400978843460
0B885640000000
0C313640010000
091009AAAA8000
08300A0000A000
07300A0000A000
0920094310A000
0CA976A69B4000
0A001730000000
09100A67300110
09200B499AA9A0
0A000A06400082
0B000917200073
2A0007945640A0
06B9B947546A50
00010000000000
ENDCHAR
STARTCHAR Eacute
ENCODING 201
SWIDTH 490 0
DWIDTH 14 0
BBX 14 29 0 -1
BITMAP
00000000100000
00000000BA5000
00000006509100
0000001A02A100
000000A21A1000
00000470920000
0000009A600000
00000000000000
00698415411450
096128C8B99684
07400551A00019
05600820900019
05600953467685
07400978843460
0B885640000000
0C313640010000
091009AAAA8000
08300A0000A000
07300A0000A000
0920094310A000
0CA976A69B4000
0A001730000000
09100A67300110
09200B499AA9A0
0A000A06400082
0B000917200073
2A0007945640A0
06B9B947546A50
00010000000000
ENDCHAR
STARTCHAR Ecircumflex
ENCODING 202
SWIDTH 490 0
DWIDTH 14 0
BBX 14 29 0 -1
BITMAP
000006ACA00000
00000901E50000
000074057A0000
0003803A057000
001A00A9208400
000A0542805600
0004AA00898000
00000000000000
00698415411450
096128C8B99684
07400551A00019
05600820900019
05600953467685
07400978843460
0B885640000000
0C313640010000
091009AAAA8000
08300A0000A000
07300A0000A000
0920094310A000
0CA976A69B4000
0A001730000000
09100A67300110
09200B499AA9A0
0A000A06400082
0B000917200073
2A0007945640A0
06B9B947546A50
00010000000000
ENDCHAR
STARTCHAR Edieresis
ENCODING 203
SWIDTH 490 0
DWIDTH 14 0
BBX 14 27 0 -1
BITMAP
00014410143000
006955B3A67B00
00550192700A00
00180281801800
000A9A4199A400
00000000000000
00698415411450
096128C8B99684
07400551A00019
05600820900019
05600953467685
07400978843460
0B885640000000
0C313640010000
091009AAAA8000
08300A0000A000
07300A0000A000
0920094310A000
0CA976A69B4000
0A001730000000
09100A67300110
09200B499AA9A0
0A000A06400082
0B000917200073
2A0007945640A0
06B9B947546A50
00010000000000
ENDCHAR
STARTCHAR Igrave
ENCODING 204
SWIDTH 266 0
DWIDTH 7 0
BBX 7 29 0 -1
BITMAP
00310000
5A780000
B0090000
83081000
0A027000
0560B000
00AA5000
00000000
006A9400
09611860
07400550
05600820
05500A10
07400910
0B896640
0C312640
09100910
08300A00
07300A00
09200920
0CA97650
0A001730
09100A00
09200A00
0A000A00
0B000920
2A000750
06BAA800
00010000
ENDCHAR
STARTCHAR Iacute
ENCODING 205
SWIDTH 266 0
DWIDTH 7 0
BBX 9 28 0 -1
BITMAP
0000099700
0000380740
0000A11A30
000840A200
001A075000
0007A90000
0000000000
006A940000
0961186000
0740055000
0560082000
05500A1000
0740091000
0B89664000
0C31264000
0910091000
08300A0000
07300A0000
0920092000
0CA9765000
0A00173000
09100A0000
09200A0000
0A000A0000
0B00092000
2A00075000
06BAA80000
0001000000
ENDCHAR
STARTCHAR Icircumflex
ENCODING 206
SWIDTH 266 0
DWIDTH 7 0
BBX 10 29 -1 -1
BITMAP
0006ACA000
000901F400
0073067A00
03703A0570
1A00A91094
0A06428055
04A9009980
0000000000
0006A94000
0096118600
0074005500
0056008200
005500A100
0074009100
00B8966400
00C3126400
0091009100
008300A000
007300A000
0092009200
00CA976500
00A0017300
009100A000
009200A000
00A000A000
00B0009200
02A0007500
006BAA8000
0000100000
ENDCHAR
STARTCHAR Idieresis
ENCODING 207
SWIDTH 266 0
DWIDTH 7 0
BBX 10 27 -1 -1
BITMAP
0243002420
9757878588
9105572037
6406363063
3A9A23A9A1
0000000000
0006A94000
0096118600
0074005500
0056008200
005500A100
0074009100
00B8966400
00C3126400
0091009100
008300A000
007300A000
0092009200
00CA976500
00A0017300
009100A000
009200A000
00A000A000
00B0009200
02A0007500
006BAA8000
0000100000
ENDCHAR
STARTCHAR Eth
ENCODING 208
SWIDTH 669 0
DWIDTH 19 0
BBX 20 22 -1 -1
BITMAP
00000000003400000000
000000049B8940000000
00000069A400A2000000
00000047A0001B200000
00000029B30001B50000
000000291870000E4000
0000004700880066A100
00000089874D75602A10
024000951247960002B4
1B5899AAB26406A1000B
550000002882004A001A
650000001A73002C73BA
2A356653666402B2881B
036433AFE8487B100197
00000083015BAA501A30
00000064008C00829300
00000065009200077000
00000073008200970000
000000A1006409500000
000000C0004876000000
0000004B9AD5A0000000
00000000116820000000
ENDCHAR
STARTCHAR Ntilde
ENCODING 209
SWIDTH 598 0
DWIDTH 17 0
BBX 16 29 0 -1
BITMAP
00000099C703A960
000003704E1810A0
00000A1096890290
0000840770930A10
00047028A0196500
000370916409B000
000069601AAD6000
0000000000000000
0059841000038960
097229E6003A326B
074005790029001A
0560082B000A0038
05600917500A0056
07400911B1290046
0B885755586A8739
0C3236A41B772239
091009100A660046
08300B4004B80065
07300AB000A80065
09200994001B0047
0C9966897A69983A
0A10273D50056138
09100A048001B055
09200A00A1007573
0A000A0047000A94
0B0009100A000976
2A0007500B22872A
07B9A900039DCAA2
0001000000001100
ENDCHAR
STARTCHAR Ograve
ENCODING 210
SWIDTH 612 0
DWIDTH 17 0
BBX 17 29 0 -1
BITMAP
000000013100000000
000000798500000000
000003801800000000
000000A10A00000000
000000290640000000
0000000821A0000000
00000001BA20000000
000000000000000000
002BA6445100000000
00921456C9ABEE9200
00A000009100089500
00A00000900006C200
00867873322008A200
009632B7A89CA97300
01D750A00056433800
03A344B0008C763900
029001A00056003800
02800560000A003800
05600740000A001A00
09410640000A000B00
0B799660000C897830
0B000920000C201910
0B000A00311A7A7A00
29002CAAD998409D00
93001A006400004E30
77002A003600004990
09DB9200135899CC40
02A16ABAAA52587200
004951000000000000
ENDCHAR
STARTCHAR Oacute
ENCODING 211
SWIDTH 612 0
DWIDTH 17 0
BBX 17 28 0 -1
BITMAP
000000000099700000
000000000380740000
000000000A11A30000
00000000840A200000
00000001A075000000
000000007A90000000
000000000000000000
002BA6445100000000
00921456C9ABEE9200
00A000009100089500
00A00000900006C200
00867873322008A200
009632B7A89CA97300
01D750A00056433800
03A344B0008C763900
029001A00056003800
02800560000A003800
05600740000A001A00
09410640000A000B00
0B799660000C897830
0B000920000C201910
0B000A00311A7A7A00
29002CAAD998409D00
93001A006400004E30
77002A003600004990
09DB9200135899CC40
02A16ABAAA52587200
004951000000000000
ENDCHAR
STARTCHAR Ocircumflex
ENCODING 212
SWIDTH 612 0
DWIDTH 17 0
BBX 17 28 0 -1
BITMAP
000000089C80000000
0000001803F2000000
000000920769000000
000005605807500000
000029019A00A20000
000019082460730000
000006A800A9700000
002BA6445100000000
00921456C9ABEE9200
00A000009100089500
00A00000900006C200
00867873322008A200
009632B7A89CA97300
01D750A00056433800
03A344B0008C763900
029001A00056003800
02800560000A003800
05600740000A001A00
09410640000A000B00
0B799660000C897830
0B000920000C201910
0B000A00311A7A7A00
29002CAAD998409D00
93001A006400004E30
77002A003600004990
09DB9200135899CC40
02A16ABAAA52587200
004951000000000000
ENDCHAR
STARTCHAR Otilde
ENCODING 213
SWIDTH 612 0
DWIDTH 17 0
BBX 17 29 0 -1
BITMAP
000000000000010000
0000006ABA00B99000
000001A01E45506400
00000740579A00A100
00004803A058084000
0001A00A9208490000
0000A0642805D30000
00003A90099D900000
002BA6445100000000
00921456C9ABEE9200
00A000009100089500
00A00000900006C200
00867873322008A200
009632B7A89CA97300
01D750A00056433800
03A344B0008C763900
029001A00056003800
02800560000A003800
05600740000A001A00
09410640000A000B00
0B799660000C897830
0B000920000C201910
0B000A00311A7A7A00
29002CAAD998409D00
93001A006400004E30
77002A003600004990
09DB9200135899CC40
02A16ABAAA52587200
004951000000000000
ENDCHAR
STARTCHAR Odieresis
ENCODING 214
SWIDTH 612 0
DWIDTH 17 0
BBX 17 27 0 -1
BITMAP
000003410034100000
0003A65B2B66A30000
0001900A0900910000
0000A00A0900900000
0000899707A9700000
000000000000000000
002BA6445100000000
00921456C9ABEE9200
00A000009100089500
00A00000900006C200
00867873322008A200
009632B7A89CA97300
01D750A00056433800
03A344B0008C763900
029001A00056003800
02800560000A003800
05600740000A001A00
09410640000A000B00
0B799660000C897830
0B000920000C201910
0B000A00311A7A7A00
29002CAAD998409D00
93001A006400004E30
77002A003600004990
09DB9200135899CC40
02A16ABAAA52587200
004951000000000000
ENDCHAR
STARTCHAR multiply
ENCODING 215
SWIDTH 421 0
DWIDTH 12 0
BBX 12 11 0 4
BITMAP
000320000000
02B7B10BAB10
0B202A8404A0
280004C100A1
2B20002E14A0
02A50068C700
008B46706810
1A31B30004B0
28002D5000B0
0A2093930950
01AB501BA500
ENDCHAR
STARTCHAR Oslash
ENCODING 216
SWIDTH 612 0
DWIDTH 17 0
BBX 17 22 0 -2
BITMAP
002BA6445100320000
00921456CAAC9AB100
00A00000910A005800
00A000009046001A00
0086787332A000C300
009632B7AE3008A400
01D750A08B102A4800
03A344B1A5B3963900
029001A65014903800
0280056A000A203800
056006B4007C001A00
09410790029A000B00
0B799D81082C897830
0B00566C2A0C201910
0B00A002761A7A7A00
29065004E998409D00
933A001A7400004E30
77B100833600004990
085001A0135899CC40
02B105CAAA52587200
005CBB000000000000
000010000000000000
ENDCHAR
STARTCHAR Ugrave
ENCODING 217
SWIDTH 583 0
DWIDTH 16 0
BBX 16 28 0 -1
BITMAP
0000001310000000
0000079860000000
0000290080000000
00000A20A0000000
0000019055000000
000000730A000000
0000001BA3000000
0027861000279610
00C425B104A325B0
00B000A1037001A0
00A000A000A00380
00A0028000A00380
0290037000A001A0
07B8638001B773B0
0851338003B322A0
0640064000A000A0
0640091000B000A0
08300A0000A100A0
0B20091000A10091
0C89874000B89865
0A000A0000A31174
0B000A01129BB792
1A002CBDA8610A92
65001A03700006B4
94001B0090000768
1ACAB3004499AA2B
01A059AAA64B9AA2
004B610000001100
ENDCHAR
STARTCHAR Uacute
ENCODING 218
SWIDTH 583 0
DWIDTH 16 0
BBX 16 28 0 -1
BITMAP
000000000BA50000
0000000065091000
00000001A02A1000
0000000A21A10000
0000004809200000
00000009A7000000
0000000000000000
0027861000279610
00C425B104A325B0
00B000A1037001A0
00A000A000A00380
00A0028000A00380
0290037000A001A0
07B8638001B773B0
0851338003B322A0
0640064000A000A0
0640091000B000A0
08300A0000A100A0
0B20091000A10091
0C89874000B89865
0A000A0000A31174
0B000A01129BB792
1A002CBDA8610A92
65001A03700006B4
94001B0090000768
1ACAB3004499AA2B
01A059AAA64B9AA2
004B610000001100
ENDCHAR
STARTCHAR Ucircumflex
ENCODING 219
SWIDTH 583 0
DWIDTH 16 0
BBX 16 28 0 -1
BITMAP
00000089C8000000
000001803F200000
0000092076900000
0000560590750000
0002901AA00A2000
0001907246073000
00005A800A970000
0027861000279610
00C425B104A325B0
00B000A1037001A0
00A000A000A00380
00A0028000A00380
0290037000A001A0
07B8638001B773B0
0851338003B322A0
0640064000A000A0
0640091000B000A0
08300A0000A100A0
0B20091000A10091
0C89874000B89865
0A000A0000A31174
0B000A01129BB792
1A002CBDA8610A92
65001A03700006B4
94001B0090000768
1ACAB3004499AA2B
01A059AAA64B9AA2
004B610000001100
ENDCHAR
STARTCHAR Udieresis
ENCODING 220
SWIDTH 583 0
DWIDTH 16 0
BBX 16 27 0 -1
BITMAP
0000243001420000
0008856959579000
0007303754019000
0004604545045000
0002A9A3299A2000
0000000000000000
0027861000279610
00C425B104A325B0
00B000A1037001A0
00A000A000A00380
00A0028000A00380
0290037000A001A0
07B8638001B773B0
0851338003B322A0
0640064000A000A0
0640091000B000A0
08300A0000A100A0
0B20091000A10091
0C89874000B89865
0A000A0000A31174
0B000A01129BB792
1A002CBDA8610A92
65001A03700006B4
94001B0090000768
1ACAB3004499AA2B
01A059AAA64B9AA2
004B610000001100
ENDCHAR
STARTCHAR Yacute
ENCODING 221
SWIDTH 484 0
DWIDTH 14 0
BBX 16 26 -1 0
BITMAP
0000000001000000
000000001BA30000
00000000820A0000
0000000390390000
0000001A12900000
000000750A100000
0000001AB4010000
02AA8000008AAA20
1B10A10000A002B1
8300390001A000A3
5A00066007400570
049000763A000B00
0075064ADB504700
000B9403A0577300
000780056001B000
0000940A10084000
00000A59001A0000
000002F400650000
000002A7A3910000
0000065004B00000
00000B0008400000
0000660029000000
0003A00083000000
00056000A0000000
0000A722A0000000
0000059930000000
ENDCHAR
STARTCHAR Thorn
ENCODING 222
SWIDTH 520 0
DWIDTH 15 0
BBX 15 21 0 -1
BITMAP
0025410000000000
07A66B4000000000
0830676000000000
055B6A9100000000
05A7004AB8100000
06B300000CB40000
0A9500002817AA50
0C79BA50820000A0
0A10098B520001A0
08300A016AC50750
07300A003B27BD30
08200A3A81001940
0B6536BB5003A500
0B446740A1490000
09100A1025900000
09200A0198000000
0A100A2B30000000
0B000AB100000000
2A00074000000000
0A857B1000000000
0035400000000000
ENDCHAR
STARTCHAR germandbls
ENCODING 223
SWIDTH 884 0
DWIDTH 25 0
BBX 25 22 0 -1
BITMAP
00000000001000000000001000
000015767AB50000037669AA00
08AA95C4300B03BAA797410740
0CAA9081000A199BB237000470
3B109171010B0C404717011650
A2004A69A99648000B68A99900
2B000B5100000A300693000000
047002A0000001B000A3000000
00A0166600000065054A000000
0069A30A0000000BA509200000
002D00084000000B4002900000
00058001B1000001B100750000
000083002B0000003900093000
00001A18882000000926948000
000009A20380000004D500B000
000002A000A300000093005800
2868AEB7001B2777ADBB000760
9342082B0006A73303874001A0
A0000647303B92000092800A40
B0000339DBC174000045EBD400
676AAA9312102B49AAA5212000
05500000000002610000000000
ENDCHAR
STARTCHAR agrave
ENCODING 224
SWIDTH 507 0
DWIDTH 14 0
BBX 15 27 0 0
BITMAP
0000013000000000
000098A200000000
0006504500000000
0001A01900000000
0000470820000000
00000A1470000000
000004A910000000
0000587100000000
0004935B40000000
00046001D6200000
0006500767600000
0009100B04600000
001A000A02800000
008CA51900B00000
0092054900830000
0091008C88480000
00A000BA20190000
00A00294700A1200
05600372B35D9B10
0ABA74DCB7510370
0A002760A00000A0
0B000B0090000190
1A002800349ADB30
65005BAAAC105600
B00066000B000B00
A30065000A002B20
19AA910007BA9200
ENDCHAR
STARTCHAR aacute
ENCODING 225
SWIDTH 507 0
DWIDTH 14 0
BBX 15 27 0 0
BITMAP
0000000001000000
000000001BA40000
00000000830A0000
00000002903A0000
0000001A12A00000
000000660A100000
0000001AB5000000
0000587100000000
0004935B40000000
00046001D6200000
0006500767600000
0009100B04600000
001A000A02800000
008CA51900B00000
0092054900830000
0091008C88480000
00A000BA20190000
00A00294700A1200
05600372B35D9B10
0ABA74DCB7510370
0A002760A00000A0
0B000B0090000190
1A002800349ADB30
65005BAAAC105600
B00066000B000B00
A30065000A002B20
19AA910007BA9200
ENDCHAR
STARTCHAR acircumflex
ENCODING 226
SWIDTH 507 0
DWIDTH 14 0
BBX 15 27 0 0
BITMAP
000005ABB0000000
00000901E6000000
000065048A000000
0002802B04800000
000A00A920850000
000A045190470000
0003AA0089900000
0000587100000000
0004935B40000000
00046001D6200000
0006500767600000
0009100B04600000
001A000A02800000
008CA51900B00000
0092054900830000
0091008C88480000
00A000BA20190000
00A00294700A1200
05600372B35D9B10
0ABA74DCB7510370
0A002760A00000A0
0B000B0090000190
1A002800349ADB30
65005BAAAC105600
B00066000B000B00
A30065000A002B20
19AA910007BA9200
ENDCHAR
STARTCHAR atilde
ENCODING 227
SWIDTH 507 0
DWIDTH 14 0
BBX 15 28 0 0
BITMAP
0000000000010000
000079C901B98000
0001901F36407300
000830669A01A100
005704A066093000
01A01AA109480000
0190733706D20000
004980099D800000
0000587100000000
0004935B40000000
00046001D6200000
0006500767600000
0009100B04600000
001A000A02800000
008CA51900B00000
0092054900830000
0091008C88480000
00A000BA20190000
00A00294700A1200
05600372B35D9B10
0ABA74DCB7510370
0A002760A00000A0
0B000B0090000190
1A002800349ADB30
65005BAAAC105600
B00066000B000B00
A30065000A002B20
19AA910007BA9200
ENDCHAR
STARTCHAR adieresis
ENCODING 228
SWIDTH 507 0
DWIDTH 14 0
BBX 15 26 0 0
BITMAP
0001441014300000
005955B2A66B1000
004600A1800A0000
0009009090090000
000A9A5089A50000
0000000000000000
0000587100000000
0004935B40000000
00046001D6200000
0006500767600000
0009100B04600000
001A000A02800000
008CA51900B00000
0092054900830000
0091008C88480000
00A000BA20190000
00A00294700A1200
05600372B35D9B10
0ABA74DCB7510370
0A002760A00000A0
0B000B0090000190
1A002800349ADB30
65005BAAAC105600
B00066000B000B00
A30065000A002B20
19AA910007BA9200
ENDCHAR
STARTCHAR aring
ENCODING 229
SWIDTH 507 0
DWIDTH 14 0
BBX 15 28 0 0
BITMAP
00000AA9AA000000
0000470746400000
0001A00B31A00000
000A208670560000
000A24D9D1270000
0005B8003AD10000
0004612210A00000
000088778A400000
0000587100000000
0004935B40000000
00046001D6200000
0006500767600000
0009100B04600000
001A000A02800000
008CA51900B00000
0092054900830000
0091008C88480000
00A000BA20190000
00A00294700A1200
05600372B35D9B10
0ABA74DCB7510370
0A002760A00000A0
0B000B0090000190
1A002800349ADB30
65005BAAAC105600
B00066000B000B00
A30065000A002B20
19AA910007BA9200
ENDCHAR
STARTCHAR ae
ENCODING 230
SWIDTH 797 0
DWIDTH 22 0
BBX 24 21 -1 -1
BITMAP
000000000002897225202630
000000008B9C313C8B9A95B0
00000000A03B300A06400073
000000056001B00B06300073
0000000B1006700C344775B1
00000076002D000C78743640
000004D4009C883B00000000
00000936A1DA212A00010000
00000B00157A000D9AAC3000
000057002B0A002900028000
0001B000920B00190001A000
00096002C43A000A43147000
001B8A26757DA94B67AB1000
0056016A1019001A00000000
00B00067000A001B76100200
075002E9999A002A4C8AAA60
58000830001900280A0000A0
75000B000046000A090000A0
1B5029000074000C54552290
006AA300001AA9B657458A10
000000000000110000000000
ENDCHAR
STARTCHAR ccedilla
ENCODING 231
SWIDTH 515 0
DWIDTH 14 0
BBX 15 27 0 -7
BITMAP
002BA64451000000
00921456CAAAAA00
00A0000091000830
00A0000090000640
0086787332200820
009632B7A88AA900
01D750A000001000
03A344B000000000
029001A000000000
0280056000000000
0560074000000000
0941064000000000
0B79966000000000
0B00092000000000
0B000A022126B600
29002CABC9850A20
93001A00A0000550
77002A0090000550
09DB920043799B10
02A17AADAA601100
0049500904500000
0000000A03600000
0000269B02800000
0000A4159D200000
0000901698000000
000079A400000000
0000020000000000
ENDCHAR
STARTCHAR egrave
ENCODING 232
SWIDTH 490 0
DWIDTH 14 0
BBX 14 29 0 -1
BITMAP
00000131000000
00005A78000000
0001A009000000
00009309100000
00001A03700000
00000650A00000
000000BA400000
00000000000000
00698415411450
096128C8B99684
07400551A00019
05600820900019
05600953467685
07400978843460
0B885640000000
0C313640010000
091009AAAA8000
08300A0000A000
07300A0000A000
0920094310A000
0CA976A69B4000
0A001730000000
09100A67300110
09200B499AA9A0
0A000A06400082
0B000917200073
2A0007945640A0
06B9B947546A50
00010000000000
ENDCHAR
STARTCHAR eacute
ENCODING 233
SWIDTH 490 0
DWIDTH 14 0
BBX 14 29 0 -1
BITMAP
00000000100000
00000000BA5000
00000006509100
0000001A02A100
000000A21A1000
00000470920000
0000009A600000
00000000000000
00698415411450
096128C8B99684
07400551A00019
05600820900019
05600953467685
07400978843460
0B885640000000
0C313640010000
091009AAAA8000
08300A0000A000
07300A0000A000
0920094310A000
0CA976A69B4000
0A001730000000
09100A67300110
09200B499AA9A0
0A000A06400082
0B000917200073
2A0007945640A0
06B9B947546A50
00010000000000
ENDCHAR
STARTCHAR ecircumflex
ENCODING 234
SWIDTH 490 0
DWIDTH 14 0
BBX 14 29 0 -1
BITMAP
000006ACA00000
00000901E50000
000074057A0000
0003803A057000
001A00A9208400
000A0542805600
0004AA00898000
00000000000000
00698415411450
096128C8B99684
07400551A00019
05600820900019
05600953467685
07400978843460
0B885640000000
0C313640010000
091009AAAA8000
08300A0000A000
07300A0000A000
0920094310A000
0CA976A69B4000
0A001730000000
09100A67300110
09200B499AA9A0
0A000A06400082
0B000917200073
2A0007945640A0
06B9B947546A50
00010000000000
ENDCHAR
STARTCHAR edieresis
ENCODING 235
SWIDTH 490 0
DWIDTH 14 0
BBX 14 27 0 -1
BITMAP
00014410143000
006955B3A67B00
00550192700A00
00180281801800
000A9A4199A400
00000000000000
00698415411450
096128C8B99684
07400551A00019
05600820900019
05600953467685
07400978843460
0B885640000000
0C313640010000
091009AAAA8000
08300A0000A000
07300A0000A000
0920094310A000
0CA976A69B4000
0A001730000000
09100A67300110
09200B499AA9A0
0A000A06400082
0B000917200073
2A0007945640A0
06B9B947546A50
00010000000000
ENDCHAR
STARTCHAR igrave
ENCODING 236
SWIDTH 266 0
DWIDTH 7 0
BBX 7 29 0 -1
BITMAP
00310000
5A780000
B0090000
83081000
0A027000
0560B000
00AA5000
00000000
006A9400
09611860
07400550
05600820
05500A10
07400910
0B896640
0C312640
09100910
08300A00
07300A00
09200920
0CA97650
0A001730
09100A00
09200A00
0A000A00
0B000920
2A000750
06BAA800
00010000
ENDCHAR
STARTCHAR iacute
ENCODING 237
SWIDTH 266 0
DWIDTH 7 0
BBX 9 28 0 -1
BITMAP
0000099700
0000380740
0000A11A30
000840A200
001A075000
0007A90000
0000000000
006A940000
0961186000
0740055000
0560082000
05500A1000
0740091000
0B89664000
0C31264000
0910091000
08300A0000
07300A0000
0920092000
0CA9765000
0A00173000
09100A0000
09200A0000
0A000A0000
0B00092000
2A00075000
06BAA80000
0001000000
ENDCHAR
STARTCHAR icircumflex
ENCODING 238
SWIDTH 266 0
DWIDTH 7 0
BBX 10 29 -1 -1
BITMAP
0006ACA000
000901F400
0073067A00
03703A0570
1A00A91094
0A06428055
04A9009980
0000000000
0006A94000
0096118600
0074005500
0056008200
005500A100
0074009100
00B8966400
00C3126400
0091009100
008300A000
007300A000
0092009200
00CA976500
00A0017300
009100A000
009200A000
00A000A000
00B0009200
02A0007500
006BAA8000
0000100000
ENDCHAR
STARTCHAR idieresis
ENCODING 239
SWIDTH 266 0
DWIDTH 7 0
BBX 10 27 -1 -1
BITMAP
0243002420
9757878588
9105572037
6406363063
3A9A23A9A1
0000000000
0006A94000
0096118600
0074005500
0056008200
005500A100
0074009100
00B8966400
00C3126400
0091009100
008300A000
007300A000
0092009200
00CA976500
00A0017300
009100A000
009200A000
00A000A000
00B0009200
02A0007500
006BAA8000
0000100000
ENDCHAR
STARTCHAR eth
ENCODING 240
SWIDTH 669 0
DWIDTH 19 0
BBX 20 22 -1 -1
BITMAP
00000000003400000000
000000049B8940000000
00000069A400A2000000
00000047A0001B200000
00000029B30001B50000
000000291870000E4000
0000004700880066A100
00000089874D75602A10
024000951247960002B4
1B5899AAB26406A1000B
550000002882004A001A
650000001A73002C73BA
2A356653666402B2881B
036433AFE8487B100197
00000083015BAA501A30
00000064008C00829300
00000065009200077000
00000073008200970000
000000A1006409500000
000000C0004876000000
0000004B9AD5A0000000
00000000116820000000
ENDCHAR
STARTCHAR ntilde
ENCODING 241
SWIDTH 598 0
DWIDTH 17 0
BBX 16 29 0 -1
BITMAP
00000099C703A960
000003704E1810A0
00000A1096890290
0000840770930A10
00047028A0196500
000370916409B000
000069601AAD6000
0000000000000000
0059841000038960
097229E6003A326B
074005790029001A
0560082B000A0038
05600917500A0056
07400911B1290046
0B885755586A8739
0C3236A41B772239
091009100A660046
08300B4004B80065
07300AB000A80065
09200994001B0047
0C9966897A69983A
0A10273D50056138
09100A048001B055
09200A00A1007573
0A000A0047000A94
0B0009100A000976
2A0007500B22872A
07B9A900039DCAA2
0001000000001100
ENDCHAR
STARTCHAR ograve
ENCODING 242
SWIDTH 612 0
DWIDTH 17 0
BBX 17 29 0 -1
BITMAP
000000013100000000
000000798500000000
000003801800000000
000000A10A00000000
000000290640000000
0000000821A0000000
00000001BA20000000
000000000000000000
002BA6445100000000
00921456C9ABEE9200
00A000009100089500
00A00000900006C200
00867873322008A200
009632B7A89CA97300
01D750A00056433800
03A344B0008C763900
029001A00056003800
02800560000A003800
05600740000A001A00
09410640000A000B00
0B799660000C897830
0B000920000C201910
0B000A00311A7A7A00
29002CAAD998409D00
93001A006400004E30
77002A003600004990
09DB9200135899CC40
02A16ABAAA52587200
004951000000000000
ENDCHAR
STARTCHAR oacute
ENCODING 243
SWIDTH 612 0
DWIDTH 17 0
BBX 17 28 0 -1
BITMAP
000000000099700000
000000000380740000
000000000A11A30000
00000000840A200000
00000001A075000000
000000007A90000000
000000000000000000
002BA6445100000000
00921456C9ABEE9200
00A000009100089500
00A00000900006C200
00867873322008A200
009632B7A89CA97300
01D750A00056433800
03A344B0008C763900
029001A00056003800
02800560000A003800
05600740000A001A00
09410640000A000B00
0B799660000C897830
0B000920000C201910
0B000A00311A7A7A00
29002CAAD998409D00
93001A006400004E30
77002A003600004990
09DB9200135899CC40
02A16ABAAA52587200
004951000000000000
ENDCHAR
STARTCHAR ocircumflex
ENCODING 244
SWIDTH 612 0
DWIDTH 17 0
BBX 17 28 0 -1
BITMAP
000000089C80000000
0000001803F2000000
000000920769000000
000005605807500000
000029019A00A20000
000019082460730000
000006A800A9700000
002BA6445100000000
00921456C9ABEE9200
00A000009100089500
00A00000900006C200
00867873322008A200
009632B7A89CA97300
01D750A00056433800
03A344B0008C763900
029001A00056003800
02800560000A003800
05600740000A001A00
09410640000A000B00
0B799660000C897830
0B000920000C201910
0B000A00311A7A7A00
29002CAAD998409D00
93001A006400004E30
77002A003600004990
09DB9200135899CC40
02A16ABAAA52587200
004951000000000000
ENDCHAR
STARTCHAR otilde
ENCODING 245
SWIDTH 612 0
DWIDTH 17 0
BBX 17 29 0 -1
BITMAP
000000000000010000
0000006ABA00B99000
000001A01E45506400
00000740579A00A100
00004803A058084000
0001A00A9208490000
0000A0642805D30000
00003A90099D900000
002BA6445100000000
00921456C9ABEE9200
00A000009100089500
00A00000900006C200
00867873322008A200
009632B7A89CA97300
01D750A00056433800
03A344B0008C763900
029001A00056003800
02800560000A003800
05600740000A001A00
09410640000A000B00
0B799660000C897830
0B000920000C201910
0B000A00311A7A7A00
29002CAAD998409D00
93001A006400004E30
77002A003600004990
09DB9200135899CC40
02A16ABAAA52587200
004951000000000000
ENDCHAR
STARTCHAR odieresis
ENCODING 246
SWIDTH 612 0
DWIDTH 17 0
BBX 17 27 0 -1
BITMAP
000003410034100000
0003A65B2B66A30000
0001900A0900910000
0000A00A0900900000
0000899707A9700000
000000000000000000
002BA6445100000000
00921456C9ABEE9200
00A000009100089500
00A00000900006C200
00867873322008A200
009632B7A89CA97300
01D750A00056433800
03A344B0008C763900
029001A00056003800
02800560000A003800
05600740000A001A00
09410640000A000B00
0B799660000C897830
0B000920000C201910
0B000A00311A7A7A00
29002CAAD998409D00
93001A006400004E30
77002A003600004990
09DB9200135899CC40
02A16ABAAA52587200
004951000000000000
ENDCHAR
STARTCHAR divide
ENCODING 247
SWIDTH 457 0
DWIDTH 13 0
BBX 13 17 0 1
BITMAP
00000120000000
00007979600000
00009102700000
00007204600000
00007859500000
00000242000000
08A989C977A600
38011074431B00
65000045000820
46000052000910
0B69AA89AA8A00
02510021002100
0000599A400000
00009102800000
00007204500000
00008527600000
00000585000000
ENDCHAR
STARTCHAR oslash
ENCODING 248
SWIDTH 612 0
DWIDTH 17 0
BBX 17 22 0 -2
BITMAP
002BA6445100320000
00921456CAAC9AB100
00A00000910A005800
00A000009046001A00
0086787332A000C300
009632B7AE3008A400
01D750A08B102A4800
03A344B1A5B3963900
029001A65014903800
0280056A000A203800
056006B4007C001A00
09410790029A000B00
0B799D81082C897830
0B00566C2A0C201910
0B00A002761A7A7A00
29065004E998409D00
933A001A7400004E30
77B100833600004990
085001A0135899CC40
02B105CAAA52587200
005CBB000000000000
000010000000000000
ENDCHAR
STARTCHAR ugrave
ENCODING 249
SWIDTH 583 0
DWIDTH 16 0
BBX 16 28 0 -1
BITMAP
0000001310000000
0000079860000000
0000290080000000
00000A20A0000000
0000019055000000
000000730A000000
0000001BA3000000
0027861000279610
00C425B104A325B0
00B000A1037001A0
00A000A000A00380
00A0028000A00380
0290037000A001A0
07B8638001B773B0
0851338003B322A0
0640064000A000A0
0640091000B000A0
08300A0000A100A0
0B20091000A10091
0C89874000B89865
0A000A0000A31174
0B000A01129BB792
1A002CBDA8610A92
65001A03700006B4
94001B0090000768
1ACAB3004499AA2B
01A059AAA64B9AA2
004B610000001100
ENDCHAR
STARTCHAR uacute
ENCODING 250
SWIDTH 583 0
DWIDTH 16 0
BBX 16 28 0 -1
BITMAP
000000000BA50000
0000000065091000
00000001A02A1000
0000000A21A10000
0000004809200000
00000009A7000000
0000000000000000
0027861000279610
00C425B104A325B0
00B000A1037001A0
00A000A000A00380
00A0028000A00380
0290037000A001A0
07B8638001B773B0
0851338003B322A0
0640064000A000A0
0640091000B000A0
08300A0000A100A0
0B20091000A10091
0C89874000B89865
0A000A0000A31174
0B000A01129BB792
1A002CBDA8610A92
65001A03700006B4
94001B0090000768
1ACAB3004499AA2B
01A059AAA64B9AA2
004B610000001100
ENDCHAR
STARTCHAR ucircumflex
ENCODING 251
SWIDTH 583 0
DWIDTH 16 0
BBX 16 28 0 -1
BITMAP
00000089C8000000
000001803F200000
0000092076900000
0000560590750000
0002901AA00A2000
0001907246073000
00005A800A970000
0027861000279610
00C425B104A325B0
00B000A1037001A0
00A000A000A00380
00A0028000A00380
0290037000A001A0
07B8638001B773B0
0851338003B322A0
0640064000A000A0
0640091000B000A0
08300A0000A100A0
0B20091000A10091
0C89874000B89865
0A000A0000A31174
0B000A01129BB792
1A002CBDA8610A92
65001A03700006B4
94001B0090000768
1ACAB3004499AA2B
01A059AAA64B9AA2
004B610000001100
ENDCHAR
STARTCHAR udieresis
ENCODING 252
SWIDTH 583 0
DWIDTH 16 0
BBX 16 27 0 -1
BITMAP
0000243001420000
0008856959579000
0007303754019000
0004604545045000
0002A9A3299A2000
0000000000000000
0027861000279610
00C425B104A325B0
00B000A1037001A0
00A000A000A00380
00A0028000A00380
0290037000A001A0
07B8638001B773B0
0851338003B322A0
0640064000A000A0
0640091000B000A0
08300A0000A100A0
0B20091000A10091
0C89874000B89865
0A000A0000A31174
0B000A01129BB792
1A002CBDA8610A92
65001A03700006B4
94001B0090000768
1ACAB3004499AA2B
01A059AAA64B9AA2
004B610000001100
ENDCHAR
STARTCHAR yacute
ENCODING 253
SWIDTH 484 0
DWIDTH 14 0
BBX 16 26 -1 0
BITMAP
0000000001000000
000000001BA30000
00000000820A0000
0000000390390000
0000001A12900000
000000750A100000
0000001AB4010000
02AA8000008AAA20
1B10A10000A002B1
8300390001A000A3
5A00066007400570
049000763A000B00
0075064ADB504700
000B9403A0577300
000780056001B000
0000940A10084000
00000A59001A0000
000002F400650000
000002A7A3910000
0000065004B00000
00000B0008400000
0000660029000000
0003A00083000000
00056000A0000000
0000A722A0000000
0000059930000000
ENDCHAR
STARTCHAR thorn
ENCODING 254
SWIDTH 520 0
DWIDTH 15 0
BBX 15 21 0 -1
BITMAP
0025410000000000
07A66B4000000000
0830676000000000
055B6A9100000000
05A7004AB8100000
06B300000CB40000
0A9500002817AA50
0C79BA50820000A0
0A10098B520001A0
08300A016AC50750
07300A003B27BD30
08200A3A81001940
0B6536BB5003A500
0B446740A1490000
09100A1025900000
09200A0198000000
0A100A2B30000000
0B000AB100000000
2A00074000000000
0A857B1000000000
0035400000000000
ENDCHAR
STARTCHAR ydieresis
ENCODING 255
SWIDTH 484 0
DWIDTH 14 0
BBX 16 25 -1 0
BITMAP
0000243002420000
000A758688587000
000A006481046000
0007307272072000
0004A9913A9A0000
0000000000010000
02AA8000008AAA20
1B10A10000A002B1
8300390001A000A3
5A00066007400570
049000763A000B00
0075064ADB504700
000B9403A0577300
000780056001B000
0000940A10084000
00000A59001A0000
000002F400650000
000002A7A3910000
0000065004B00000
00000B0008400000
0000660029000000
0003A00083000000
00056000A0000000
0000A722A0000000
0000059930000000
ENDCHAR
STARTCHAR Amacron
ENCODING 256
SWIDTH 507 0
DWIDTH 14 0
BBX 15 24 0 0
BITMAP
0000897679100000
0006412322900000
0007200000900000
0002A99AAA400000
0000587100000000
0004935B40000000
00046001D6200000
0006500767600000
0009100B04600000
001A000A02800000
008CA51900B00000
0092054900830000
0091008C88480000
00A000BA20190000
00A00294700A1200
05600372B35D9B10
0ABA74DCB7510370
0A002760A00000A0
0B000B0090000190
1A002800349ADB30
65005BAAAC105600
B00066000B000B00
A30065000A002B20
19AA910007BA9200
ENDCHAR
STARTCHAR amacron
ENCODING 257
SWIDTH 507 0
DWIDTH 14 0
BBX 15 24 0 0
BITMAP
0000897679100000
0006412322900000
0007200000900000
0002A99AAA400000
0000587100000000
0004935B40000000
00046001D6200000
0006500767600000
0009100B04600000
001A000A02800000
008CA51900B00000
0092054900830000
0091008C88480000
00A000BA20190000
00A00294700A1200
05600372B35D9B10
0ABA74DCB7510370
0A002760A00000A0
0B000B0090000190
1A002800349ADB30
65005BAAAC105600
B00066000B000B00
A30065000A002B20
19AA910007BA9200
ENDCHAR
STARTCHAR Abreve
ENCODING 258
SWIDTH 507 0
DWIDTH 14 0
BBX 15 27 0 0
BITMAP
0006970048500000
00660A00A1580000
0036081090470000
00090666B4910000
000903A43AA00000
000A69400A700000
00016B9999000000
0000587100000000
0004935B40000000
00046001D6200000
0006500767600000
0009100B04600000
001A000A02800000
008CA51900B00000
0092054900830000
0091008C88480000
00A000BA20190000
00A00294700A1200
05600372B35D9B10
0ABA74DCB7510370
0A002760A00000A0
0B000B0090000190
1A002800349ADB30
65005BAAAC105600
B00066000B000B00
A30065000A002B20
19AA910007BA9200
ENDCHAR
STARTCHAR abreve
ENCODING 259
SWIDTH 507 0
DWIDTH 14 0
BBX 15 27 0 0
BITMAP
0006970048500000
00660A00A1580000
0036081090470000
00090666B4910000
000903A43AA00000
000A69400A700000
00016B9999000000
0000587100000000
0004935B40000000
00046001D6200000
0006500767600000
0009100B04600000
001A000A02800000
008CA51900B00000
0092054900830000
0091008C88480000
00A000BA20190000
00A00294700A1200
05600372B35D9B10
0ABA74DCB7510370
0A002760A00000A0
0B000B0090000190
1A002800349ADB30
65005BAAAC105600
B00066000B000B00
A30065000A002B20
19AA910007BA9200
ENDCHAR
STARTCHAR Aogonek
ENCODING 260
SWIDTH 507 0
DWIDTH 14 0
BBX 15 26 0 -6
BITMAP
0000587100000000
0004935B40000000
00046001D6200000
0006500767600000
0009100B04600000
001A000A02800000
008CA51900B00000
0092054900830000
0091008C88480000
00A000BA20190000
00A00294700A1200
05600372B35D9B10
0ABA74DCB7510370
0A002760A00000A0
0B000B0090000190
1A002800349ADB30
65005BAAAC105600
B00066000B000B00
A30065000A002B20
19AA910008CAD400
0000000009119000
0000000038069000
000000000A9A5A20
0000000003B301B0
00000000001A4290
0000000000009910
ENDCHAR
STARTCHAR aogonek
ENCODING 261
SWIDTH 507 0
DWIDTH 14 0
BBX 15 26 0 -6
BITMAP
0000587100000000
0004935B40000000
00046001D6200000
0006500767600000
0009100B04600000
001A000A02800000
008CA51900B00000
0092054900830000
0091008C88480000
00A000BA20190000
00A00294700A1200
05600372B35D9B10
0ABA74DCB7510370
0A002760A00000A0
0B000B0090000190
1A002800349ADB30
65005BAAAC105600
B00066000B000B00
A30065000A002B20
19AA910008CAD400
0000000009119000
0000000038069000
000000000A9A5A20
0000000003B301B0
00000000001A4290
0000000000009910
ENDCHAR
STARTCHAR Cacute
ENCODING 262
SWIDTH 515 0
DWIDTH 14 0
BBX 15 27 0 -1
BITMAP
0000000007A90000
000000001A046000
0000000093085000
0000000570840000
0000000B04700000
00000005AA000000
002BA64451000000
00921456CAAAAA00
00A0000091000830
00A0000090000640
0086787332200820
009632B7A88AA900
01D750A000001000
03A344B000000000
029001A000000000
0280056000000000
0560074000000000
0941064000000000
0B79966000000000
0B00092000000000
0B000A022126B600
29002CABC9850A20
93001A00A0000550
77002A0090000550
09DB920043799B10
02A17AAAA7301100
0049500000000000
ENDCHAR
STARTCHAR cacute
ENCODING 263
SWIDTH 515 0
DWIDTH 14 0
BBX 15 27 0 -1
BITMAP
0000000007A90000
000000001A046000
0000000093085000
0000000570840000
0000000B04700000
00000005AA000000
002BA64451000000
00921456CAAAAA00
00A0000091000830
00A0000090000640
0086787332200820
009632B7A88AA900
01D750A000001000
03A344B000000000
029001A000000000
0280056000000000
0560074000000000
0941064000000000
0B79966000000000
0B00092000000000
0B000A022126B600
29002CABC9850A20
93001A00A0000550
77002A0090000550
09DB920043799B10
02A17AAAA7301100
0049500000000000
ENDCHAR
STARTCHAR Ccircumflex
ENCODING 264
SWIDTH 515 0
DWIDTH 14 0
BBX 15 28 0 -1
BITMAP
0000000AAC500000
0000004606D00000
000000A009660000
00000830850A2000
000056038901B100
000046090820A000
000008A601AA5000
002BA64451000000
00921456CAAAAA00
00A0000091000830
00A0000090000640
0086787332200820
009632B7A88AA900
01D750A000001000
03A344B000000000
029001A000000000
0280056000000000
0560074000000000
0941064000000000
0B79966000000000
0B00092000000000
0B000A022126B600
29002CABC9850A20
93001A00A0000550
77002A0090000550
09DB920043799B10
02A17AAAA7301100
0049500000000000
ENDCHAR
STARTCHAR ccircumflex
ENCODING 265
SWIDTH 515 0
DWIDTH 14 0
BBX 15 28 0 -1
BITMAP
0000000AAC500000
0000004606D00000
000000A009660000
00000830850A2000
000056038901B100
000046090820A000
000008A601AA5000
002BA64451000000
00921456CAAAAA00
00A0000091000830
00A0000090000640
0086787332200820
009632B7A88AA900
01D750A000001000
03A344B000000000
029001A000000000
0280056000000000
0560074000000000
0941064000000000
0B79966000000000
0B00092000000000
0B000A022126B600
29002CABC9850A20
93001A00A0000550
77002A0090000550
09DB920043799B10
02A17AAAA7301100
0049500000000000
ENDCHAR
STARTCHAR Cdotaccent
ENCODING 266
SWIDTH 515 0
DWIDTH 14 0
BBX 15 26 0 -1
BITMAP
0000000144000000
0000007856A00000
0000006402800000
0000003703600000
0000001A9A300000
002BA64451000000
00921456CAAAAA00
00A0000091000830
00A0000090000640
0086787332200820
009632B7A88AA900
01D750A000001000
03A344B000000000
029001A000000000
0280056000000000
0560074000000000
0941064000000000
0B79966000000000
0B00092000000000
0B000A022126B600
29002CABC9850A20
93001A00A0000550
77002A0090000550
09DB920043799B10
02A17AAAA7301100
0049500000000000
ENDCHAR
STARTCHAR cdotaccent
ENCODING 267
SWIDTH 515 0
DWIDTH 14 0
BBX 15 26 0 -1
BITMAP
0000000144000000
0000007856A00000
0000006402800000
0000003703600000
0000001A9A300000
002BA64451000000
00921456CAAAAA00
00A0000091000830
00A0000090000640
0086787332200820
009632B7A88AA900
01D750A000001000
03A344B000000000
029001A000000000
0280056000000000
0560074000000000
0941064000000000
0B79966000000000
0B00092000000000
0B000A022126B600
29002CABC9850A20
93001A00A0000550
77002A0090000550
09DB920043799B10
02A17AAAA7301100
0049500000000000
ENDCHAR
STARTCHAR Ccaron
ENCODING 268
SWIDTH 515 0
DWIDTH 14 0
BBX 15 29 0 -1
BITMAP
0000013000210000
00003A7904996000
000082081910A000
00002902B6048000
00000640821A0000
000000A01A820000
000000821B900000
00000029AA200000
002BA64451000000
00921456CAAAAA00
00A0000091000830
00A0000090000640
0086787332200820
009632B7A88AA900
01D750A000001000
03A344B000000000
029001A000000000
0280056000000000
0560074000000000
0941064000000000
0B79966000000000
0B00092000000000
0B000A022126B600
29002CABC9850A20
93001A00A0000550
77002A0090000550
09DB920043799B10
02A17AAAA7301100
0049500000000000
ENDCHAR
STARTCHAR ccaron
ENCODING 269
SWIDTH 515 0
DWIDTH 14 0
BBX 15 29 0 -1
BITMAP
0000013000210000
00003A7904996000
000082081910A000
00002902B6048000
00000640821A0000
000000A01A820000
000000821B900000
00000029AA200000
002BA64451000000
00921456CAAAAA00
00A0000091000830
00A0000090000640
0086787332200820
009632B7A88AA900
01D750A000001000
03A344B000000000
029001A000000000
0280056000000000
0560074000000000
0941064000000000
0B79966000000000
0B00092000000000
0B000A022126B600
29002CABC9850A20
93001A00A0000550
77002A0090000550
09DB920043799B10
02A17AAAA7301100
0049500000000000
ENDCHAR
STARTCHAR Dcaron
ENCODING 270
SWIDTH 520 0
DWIDTH 15 0
BBX 15 30 0 -1
BITMAP
0000220012000000
0008794097A20000
000A008280280000
0007408A10930000
0000A01906500000
0000550579000000
00001A06D3000000
0000069B70000000
0000033000000000
0069B7A200000000
097C202A10000000
07680003A1000000
057B20003B300000
0561A50002E20000
07400B6008490000
0B8857D474049000
0C31365B40004A30
09100910880001B0
08300A0007800480
07300A0003D45C70
092009204B1971B0
0CA9765990002A50
0A0017B8A302B200
09100B90091B1000
09200A0001940000
0A000A001A500000
0B000911B3000000
2A00075A30000000
06B9BC6700000000
0001178000000000
ENDCHAR
STARTCHAR dcaron
ENCODING 271
SWIDTH 520 0
DWIDTH 15 0
BBX 15 30 0 -1
BITMAP
0000220012000000
0008794097A20000
000A008280280000
0007408A10930000
0000A01906500000
0000550579000000
00001A06D3000000
0000069B70000000
0000033000000000
0069B7A200000000
097C202A10000000
07680003A1000000
057B20003B300000
0561A50002E20000
07400B6008490000
0B8857D474049000
0C31365B40004A30
09100910880001B0
08300A0007800480
07300A0003D45C70
092009204B1971B0
0CA9765990002A50
0A0017B8A302B200
09100B90091B1000
09200A0001940000
0A000A001A500000
0B000911B3000000
2A00075A30000000
06B9BC6700000000
0001178000000000
ENDCHAR
STARTCHAR Dcroat
ENCODING 272
SWIDTH 669 0
DWIDTH 19 0
BBX 20 22 -1 -1
BITMAP
00000000003400000000
000000049B8940000000
00000069A400A2000000
00000047A0001B200000
00000029B30001B50000
000000291870000E4000
0000004700880066A100
00000089874D75602A10
024000951247960002B4
1B5899AAB26406A1000B
550000002882004A001A
650000001A73002C73BA
2A356653666402B2881B
036433AFE8487B100197
00000083015BAA501A30
00000064008C00829300
00000065009200077000
00000073008200970000
000000A1006409500000
000000C0004876000000
0000004B9AD5A0000000
00000000116820000000
ENDCHAR
STARTCHAR dcroat
ENCODING 273
SWIDTH 669 0
DWIDTH 19 0
BBX 20 22 -1 -1
BITMAP
00000000003400000000
000000049B8940000000
00000069A400A2000000
00000047A0001B200000
00000029B30001B50000
000000291870000E4000
0000004700880066A100
00000089874D75602A10
024000951247960002B4
1B5899AAB26406A1000B
550000002882004A001A
650000001A73002C73BA
2A356653666402B2881B
036433AFE8487B100197
00000083015BAA501A30
00000064008C00829300
00000065009200077000
00000073008200970000
000000A1006409500000
000000C0004876000000
0000004B9AD5A0000000
00000000116820000000
ENDCHAR
STARTCHAR Emacron
ENCODING 274
SWIDTH 490 0
DWIDTH 14 0
BBX 14 26 0 -1
BITMAP
00019876791000
00082133237000
00090000019000
0003A99AAA3000
00000000000000
00698415411450
096128C8B99684
07400551A00019
05600820900019
05600953467685
07400978843460
0B885640000000
0C313640010000
091009AAAA8000
08300A0000A000
07300A0000A000
0920094310A000
0CA976A69B4000
0A001730000000
09100A67300110
09200B499AA9A0
0A000A06400082
0B000917200073
2A0007945640A0
06B9B947546A50
00010000000000
ENDCHAR
STARTCHAR emacron
ENCODING 275
SWIDTH 490 0
DWIDTH 14 0
BBX 14 26 0 -1
BITMAP
00019876791000
00082133237000
00090000019000
0003A99AAA3000
00000000000000
00698415411450
096128C8B99684
07400551A00019
05600820900019
05600953467685
07400978843460
0B885640000000
0C313640010000
091009AAAA8000
08300A0000A000
07300A0000A000
0920094310A000
0CA976A69B4000
0A001730000000
09100A67300110
09200B499AA9A0
0A000A06400082
0B000917200073
2A0007945640A0
06B9B947546A50
00010000000000
ENDCHAR
STARTCHAR Ebreve
ENCODING 276
SWIDTH 490 0
DWIDTH 14 0
BBX 14 28 0 -1
BITMAP
00039820187100
001B1460643B10
00090260820A00
000821A5C74600
000640B546C200
0004969004D000
00003AA99B1000
00698415411450
096128C8B99684
07400551A00019
05600820900019
05600953467685
07400978843460
0B885640000000
0C313640010000
091009AAAA8000
08300A0000A000
07300A0000A000
0920094310A000
0CA976A69B4000
0A001730000000
09100A67300110
09200B499AA9A0
0A000A06400082
0B000917200073
2A0007945640A0
06B9B947546A50
00010000000000
ENDCHAR
STARTCHAR ebreve
ENCODING 277
SWIDTH 490 0
DWIDTH 14 0
BBX 14 28 0 -1
BITMAP
00039820187100
001B1460643B10
00090260820A00
000821A5C74600
000640B546C200
0004969004D000
00003AA99B1000
00698415411450
096128C8B99684
07400551A00019
05600820900019
05600953467685
07400978843460
0B885640000000
0C313640010000
091009AAAA8000
08300A0000A000
07300A0000A000
0920094310A000
0CA976A69B4000
0A001730000000
09100A67300110
09200B499AA9A0
0A000A06400082
0B000917200073
2A0007945640A0
06B9B947546A50
00010000000000
ENDCHAR
STARTCHAR Edotaccent
ENCODING 278
SWIDTH 490 0
DWIDTH 14 0
BBX 14 27 0 -1
BITMAP
00000134100000
00004A65B10000
00002800A00000
00000A00A00000
0000099A700000
00000000000000
00698415411450
096128C8B99684
07400551A00019
05600820900019
05600953467685
07400978843460
0B885640000000
0C313640010000
091009AAAA8000
08300A0000A000
07300A0000A000
0920094310A000
0CA976A69B4000
0A001730000000
09100A67300110
09200B499AA9A0
0A000A06400082
0B000917200073
2A0007945640A0
06B9B947546A50
00010000000000
ENDCHAR
STARTCHAR edotaccent
ENCODING 279
SWIDTH 490 0
DWIDTH 14 0
BBX 14 27 0 -1
BITMAP
00000134100000
00004A65B10000
00002800A00000
00000A00A00000
0000099A700000
00000000000000
00698415411450
096128C8B99684
07400551A00019
05600820900019
05600953467685
07400978843460
0B885640000000
0C313640010000
091009AAAA8000
08300A0000A000
07300A0000A000
0920094310A000
0CA976A69B4000
0A001730000000
09100A67300110
09200B499AA9A0
0A000A06400082
0B000917200073
2A0007945640A0
06B9B947546A50
00010000000000
ENDCHAR
STARTCHAR Eogonek
ENCODING 280
SWIDTH 490 0
DWIDTH 14 0
BBX 14 26 0 -6
BITMAP
00698415411450
096128C8B99684
07400551A00019
05600820900019
05600953467685
07400978843460
0B885640000000
0C313640010000
091009AAAA8000
08300A0000A000
07300A0000A000
0920094310A000
0CA976A69B4000
0A001730000000
09100A67300110
09200B499AA9A0
0A000A06400082
0B000917200073
2A0007945640A0
06B9B947C48C50
00010005509100
0000000B01C200
00000006CA5A60
00000000970074
000000000580A1
00000000005A30
ENDCHAR
STARTCHAR eogonek
ENCODING 281
SWIDTH 490 0
DWIDTH 14 0
BBX 14 26 0 -6
BITMAP
00698415411450
096128C8B99684
07400551A00019
05600820900019
05600953467685
07400978843460
0B885640000000
0C313640010000
091009AAAA8000
08300A0000A000
07300A0000A000
0920094310A000
0CA976A69B4000
0A001730000000
09100A67300110
09200B499AA9A0
0A000A06400082
0B000917200073
2A0007945640A0
06B9B947C48C50
00010005509100
0000000B01C200
00000006CA5A60
00000000970074
000000000580A1
00000000005A30
ENDCHAR
STARTCHAR Ecaron
ENCODING 282
SWIDTH 490 0
DWIDTH 14 0
BBX 14 29 0 -1
BITMAP
00001300021000
00059780689500
00091080A00A00
0003803B505700
00008309129000
00001901991000
00000912C70000
0000039A910000
00698415411450
096128C8B99684
07400551A00019
05600820900019
05600953467685
07400978843460
0B885640000000
0C313640010000
091009AAAA8000
08300A0000A000
07300A0000A000
0920094310A000
0CA976A69B4000
0A001730000000
09100A67300110
09200B499AA9A0
0A000A06400082
0B000917200073
2A0007945640A0
06B9B947546A50
00010000000000
ENDCHAR
STARTCHAR ecaron
ENCODING 283
SWIDTH 490 0
DWIDTH 14 0
BBX 14 29 0 -1
BITMAP
00001300021000
00059780689500
00091080A00A00
0003803B505700
00008309129000
00001901991000
00000912C70000
0000039A910000
00698415411450
096128C8B99684
07400551A00019
05600820900019
05600953467685
07400978843460
0B885640000000
0C313640010000
091009AAAA8000
08300A0000A000
07300A0000A000
0920094310A000
0CA976A69B4000
0A001730000000
09100A67300110
09200B499AA9A0
0A000A06400082
0B000917200073
2A0007945640A0
06B9B947546A50
00010000000000
ENDCHAR
STARTCHAR Gcircumflex
ENCODING 284
SWIDTH 557 0
DWIDTH 16 0
BBX 16 28 0 -1
BITMAP
0000002BAC200000
000000810B900000
000003802A920000
00001A11C11A0000
0000920786048000
000082180A019000
000019A2059A2000
002BA64451000000
00921456CAAAAA00
00A0000091000830
00A0000090000640
0086787332200820
009632B7A88AA900
01D750A000001000
03A344B000000000
029001A000168600
0280056002B425A0
0560074001900180
0941064000A00270
0B79966000A00190
0B00092000B784B0
0B000A0222C311A0
29002CABC9B000A0
93001A00A0A000A0
77002A0090A00092
09DB920043B00084
02A17AAAA76AAA50
0049500000000000
ENDCHAR
STARTCHAR gcircumflex
ENCODING 285
SWIDTH 557 0
DWIDTH 16 0
BBX 16 28 0 -1
BITMAP
0000002BAC200000
000000810B900000
000003802A920000
00001A11C11A0000
0000920786048000
000082180A019000
000019A2059A2000
002BA64451000000
00921456CAAAAA00
00A0000091000830
00A0000090000640
0086787332200820
009632B7A88AA900
01D750A000001000
03A344B000000000
029001A000168600
0280056002B425A0
0560074001900180
0941064000A00270
0B79966000A00190
0B00092000B784B0
0B000A0222C311A0
29002CABC9B000A0
93001A00A0A000A0
77002A0090A00092
09DB920043B00084
02A17AAAA76AAA50
0049500000000000
ENDCHAR
STARTCHAR Gbreve
ENCODING 286
SWIDTH 557 0
DWIDTH 16 0
BBX 16 28 0 -1
BITMAP
0000498102871000
000390640834A000
0000905409019000
000090395C664000
0000810B538C0000
00006877006B0000
000004B999B10000
002BA64451000000
00921456CAAAAA00
00A0000091000830
00A0000090000640
0086787332200820
009632B7A88AA900
01D750A000001000
03A344B000000000
029001A000168600
0280056002B425A0
0560074001900180
0941064000A00270
0B79966000A00190
0B00092000B784B0
0B000A0222C311A0
29002CABC9B000A0
93001A00A0A000A0
77002A0090A00092
09DB920043B00084
02A17AAAA76AAA50
0049500000000000
ENDCHAR
STARTCHAR gbreve
ENCODING 287
SWIDTH 557 0
DWIDTH 16 0
BBX 16 28 0 -1
BITMAP
0000498102871000
000390640834A000
0000905409019000
000090395C664000
0000810B538C0000
00006877006B0000
000004B999B10000
002BA64451000000
00921456CAAAAA00
00A0000091000830
00A0000090000640
0086787332200820
009632B7A88AA900
01D750A000001000
03A344B000000000
029001A000168600
0280056002B425A0
0560074001900180
0941064000A00270
0B79966000A00190
0B00092000B784B0
0B000A0222C311A0
29002CABC9B000A0
93001A00A0A000A0
77002A0090A00092
09DB920043B00084
02A17AAAA76AAA50
0049500000000000
ENDCHAR
STARTCHAR Gdotaccent
ENCODING 288
SWIDTH 557 0
DWIDTH 16 0
BBX 16 27 0 -1
BITMAP
0000000144100000
0000006955B00000
0000005501900000
0000001802800000
0000001A9A400000
0000000000000000
002BA64451000000
00921456CAAAAA00
00A0000091000830
00A0000090000640
0086787332200820
009632B7A88AA900
01D750A000001000
03A344B000000000
029001A000168600
0280056002B425A0
0560074001900180
0941064000A00270
0B79966000A00190
0B00092000B784B0
0B000A0222C311A0
29002CABC9B000A0
93001A00A0A000A0
77002A0090A00092
09DB920043B00084
02A17AAAA76AAA50
0049500000000000
ENDCHAR
STARTCHAR gdotaccent
ENCODING 289
SWIDTH 557 0
DWIDTH 16 0
BBX 16 27 0 -1
BITMAP
0000000144100000
0000006955B00000
0000005501900000
0000001802800000
0000001A9A400000
0000000000000000
002BA64451000000
00921456CAAAAA00
00A0000091000830
00A0000090000640
0086787332200820
009632B7A88AA900
01D750A000001000
03A344B000000000
029001A000168600
0280056002B425A0
0560074001900180
0941064000A00270
0B79966000A00190
0B00092000B784B0
0B000A0222C311A0
29002CABC9B000A0
93001A00A0A000A0
77002A0090A00092
09DB920043B00084
02A17AAAA76AAA50
0049500000000000
ENDCHAR
STARTCHAR Gcommaaccent
ENCODING 290
SWIDTH 557 0
DWIDTH 16 0
BBX 16 28 0 -8
BITMAP
002BA64451000000
00921456CAAAAA00
00A0000091000830
00A0000090000640
0086787332200820
009632B7A88AA900
01D750A000001000
03A344B000000000
029001A000168600
0280056002B425A0
0560074001900180
0941064000A00270
0B79966000A00190
0B00092000B784B0
0B000A0222C311A0
29002CABC9B000A0
93001A00A0A000A0
77002A0090A00092
09DB920043B00084
02A17AAAA76AAA50
0049500000000000
0000003BA2000000
000000A119000000
0000056058000000
00002A0480000000
0000A21A00000000
00003AB200000000
0000001000000000
ENDCHAR
STARTCHAR gcommaaccent
ENCODING 291
SWIDTH 557 0
DWIDTH 16 0
BBX 16 28 0 -8
BITMAP
002BA64451000000
00921456CAAAAA00
00A0000091000830
00A0000090000640
0086787332200820
009632B7A88AA900
01D750A000001000
03A344B000000000
029001A000168600
0280056002B425A0
0560074001900180
0941064000A00270
0B79966000A00190
0B00092000B784B0
0B000A0222C311A0
29002CABC9B000A0
93001A00A0A000A0
77002A0090A00092
09DB920043B00084
02A17AAAA76AAA50
0049500000000000
0000003BA2000000
000000A119000000
0000056058000000
00002A0480000000
0000A21A00000000
00003AB200000000
0000001000000000
ENDCHAR
STARTCHAR Hcircumflex
ENCODING 292
SWIDTH 611 0
DWIDTH 17 0
BBX 18 28 0 -1
BITMAP
0000002BAC20000000
000000820AA0000000
000002801A92000000
00001A10B11A000000
000082077604900000
000082190A01900000
000019A205AA200000
006A94000029AA5000
0961186000B3006900
0740055000A0003800
056008200083006400
05500A100064008300
074009100074008300
0B89664000A7636400
0C31264000B4366500
091009100092009200
08300B00007300B910
07300A0000787A83A0
0920094237AC3000A1
0CA976DB63073000A0
0A00174900062256B0
09100B090257A8B420
09200B37B9B4109100
0A000B7610A0008200
0B00092000B0007400
2A00075002A0008500
06BAA800005AAB7000
000100000000000000
ENDCHAR
STARTCHAR hcircumflex
ENCODING 293
SWIDTH 611 0
DWIDTH 17 0
BBX 18 28 0 -1
BITMAP
0000002BAC20000000
000000820AA0000000
000002801A92000000
00001A10B11A000000
000082077604900000
000082190A01900000
000019A205AA200000
006A94000029AA5000
0961186000B3006900
0740055000A0003800
056008200083006400
05500A100064008300
074009100074008300
0B89664000A7636400
0C31264000B4366500
091009100092009200
08300B00007300B910
07300A0000787A83A0
0920094237AC3000A1
0CA976DB63073000A0
0A00174900062256B0
09100B090257A8B420
09200B37B9B4109100
0A000B7610A0008200
0B00092000B0007400
2A00075002A0008500
06BAA800005AAB7000
000100000000000000
ENDCHAR
STARTCHAR Hbar
ENCODING 294
SWIDTH 706 0
DWIDTH 20 0
BBX 20 21 0 -1
BITMAP
00028A8200004AA93000
000C313B2003A101A400
000B000A1001A0008200
026B100B1000B300A000
0A4C100EA9998DAAC9B3
270B000E30000A000019
271D993B10000900000A
0A5B212A367644454247
027B000C7434C854C8A1
000A000A0000A001D700
000A000B0000B68B5660
000A000B22489B2000A0
001DA95AD951090000A0
001A001B460008035870
000A001A360368A7B310
000A002B48B7B300A000
000A001D7400A000A000
0037000B00047000B000
0066000B00066001B100
0019AAB500008AAB4000
00000100000000000000
ENDCHAR
STARTCHAR hbar
ENCODING 295
SWIDTH 706 0
DWIDTH 20 0
BBX 20 21 0 -1
BITMAP
00028A8200004AA93000
000C313B2003A101A400
000B000A1001A0008200
026B100B1000B300A000
0A4C100EA9998DAAC9B3
270B000E30000A000019
271D993B10000900000A
0A5B212A367644454247
027B000C7434C854C8A1
000A000A0000A001D700
000A000B0000B68B5660
000A000B22489B2000A0
001DA95AD951090000A0
001A001B460008035870
000A001A360368A7B310
000A002B48B7B300A000
000A001D7400A000A000
0037000B00047000B000
0066000B00066001B100
0019AAB500008AAB4000
00000100000000000000
ENDCHAR
STARTCHAR Itilde
ENCODING 296
SWIDTH 266 0
DWIDTH 7 0
BBX 12 28 -2 -1
BITMAP
000A9C703A96
004705E0910A
00A109688029
0840770930A1
47028A019650
370916409B00
069601AAD600
00006A940000
000961186000
000740055000
000560082000
0005500A1000
000740091000
000B89664000
000C31264000
000910091000
0008300A0000
0007300A0000
000920092000
000CA9765000
000A00173000
0009100A0000
0009200A0000
000A000A0000
000B00092000
002A00075000
0006BAA80000
000001000000
ENDCHAR
STARTCHAR itilde
ENCODING 297
SWIDTH 266 0
DWIDTH 7 0
BBX 12 28 -2 -1
BITMAP
000A9C703A96
004705E0910A
00A109688029
0840770930A1
47028A019650
370916409B00
069601AAD600
00006A940000
000961186000
000740055000
000560082000
0005500A1000
000740091000
000B89664000
000C31264000
000910091000
0008300A0000
0007300A0000
000920092000
000CA9765000
000A00173000
0009100A0000
0009200A0000
000A000A0000
000B00092000
002A00075000
0006BAA80000
000001000000
ENDCHAR
STARTCHAR Imacron
ENCODING 298
SWIDTH 266 0
DWIDTH 7 0
BBX 8 25 0 -1
BITMAP
19877780
92133246
90000028
3A99AAA2
006A9400
09611860
07400550
05600820
05500A10
07400910
0B896640
0C312640
09100910
08300A00
07300A00
09200920
0CA97650
0A001730
09100A00
09200A00
0A000A00
0B000920
2A000750
06BAA800
00010000
ENDCHAR
STARTCHAR imacron
ENCODING 299
SWIDTH 266 0
DWIDTH 7 0
BBX 8 25 0 -1
BITMAP
19877780
92133246
90000028
3A99AAA2
006A9400
09611860
07400550
05600820
05500A10
07400910
0B896640
0C312640
09100910
08300A00
07300A00
09200920
0CA97650
0A001730
09100A00
09200A00
0A000A00
0B000920
2A000750
06BAA800
00010000
ENDCHAR
STARTCHAR Ibreve
ENCODING 300
SWIDTH 266 0
DWIDTH 7 0
BBX 10 28 -1 -1
BITMAP
0697004850
660900A158
2708109037
090666B491
0903A43AA0
0A69400A70
006B999900
0006A94000
0096118600
0074005500
0056008200
005500A100
0074009100
00B8966400
00C3126400
0091009100
008300A000
007300A000
0092009200
00CA976500
00A0017300
009100A000
009200A000
00A000A000
00B0009200
02A0007500
006BAA8000
0000100000
ENDCHAR
STARTCHAR ibreve
ENCODING 301
SWIDTH 266 0
DWIDTH 7 0
BBX 10 28 -1 -1
BITMAP
0697004850
660900A158
2708109037
090666B491
0903A43AA0
0A69400A70
006B999900
0006A94000
0096118600
0074005500
0056008200
005500A100
0074009100
00B8966400
00C3126400
0091009100
008300A000
007300A000
0092009200
00CA976500
00A0017300
009100A000
009200A000
00A000A000
00B0009200
02A0007500
006BAA8000
0000100000
ENDCHAR
STARTCHAR Iogonek
ENCODING 302
SWIDTH 266 0
DWIDTH 7 0
BBX 7 27 0 -7
BITMAP
006A9400
09611860
07400550
05600820
05500A10
07400910
0B896640
0C312640
09100910
08300A00
07300A00
09200920
0CA97650
0A001730
09100A00
09200A00
0A000A00
0B000920
2A000750
08CAB900
0911A000
28073000
840C7000
1EB55A30
03B30180
001A3930
00018300
ENDCHAR
STARTCHAR iogonek
ENCODING 303
SWIDTH 266 0
DWIDTH 7 0
BBX 7 27 0 -7
BITMAP
006A9400
09611860
07400550
05600820
05500A10
07400910
0B896640
0C312640
09100910
08300A00
07300A00
09200920
0CA97650
0A001730
09100A00
09200A00
0A000A00
0B000920
2A000750
08CAB900
0911A000
28073000
840C7000
1EB55A30
03B30180
001A3930
00018300
ENDCHAR
STARTCHAR Idotaccent
ENCODING 304
SWIDTH 266 0
DWIDTH 7 0
BBX 7 27 0 -1
BITMAP
00144100
05955B00
04600A00
00900900
00A9A500
00000000
006A9400
09611860
07400550
05600820
05500A10
07400910
0B896640
0C312640
09100910
08300A00
07300A00
09200920
0CA97650
0A001730
09100A00
09200A00
0A000A00
0B000920
2A000750
06BAA800
00010000
ENDCHAR
STARTCHAR dotlessi
ENCODING 305
SWIDTH 266 0
DWIDTH 7 0
BBX 7 21 0 -1
BITMAP
006A9400
09611860
07400550
05600820
05500A10
07400910
0B896640
0C312640
09100910
08300A00
07300A00
09200920
0CA97650
0A001730
09100A00
09200A00
0A000A00
0B000920
2A000750
06BAA800
00010000
ENDCHAR
STARTCHAR IJ
ENCODING 306
SWIDTH 750 0
DWIDTH 21 0
BBX 21 21 0 -1
BITMAP
006A940000000002797200
096118600000000C313B20
074005500000000A000A10
056008200000000A000A00
05500A100000000A000A00
074009100000000A000A00
0B8966400000001C883A00
0C3126400000003A212A00
091009100000000B000A00
08300A000130000B001900
07300A009AA3000B001900
09200928501B000A000A00
0CA9765B0004902DA94B00
0A00173880004B29001B00
09100A005902848A001A00
09200A00086B10AB002800
0A000A0001E2001B402900
0B000920004B1001A30A00
2A0007500003A000A20B00
06BAA80000007405E9B500
0001000000001BA8110000
ENDCHAR
STARTCHAR ij
ENCODING 307
SWIDTH 749 0
DWIDTH 21 0
BBX 21 21 0 -1
BITMAP
006A940000000002797200
096118600000000C313B20
074005500000000A000A10
056008200000000A000A00
05500A100000000A000A00
074009100000000A000A00
0B8966400000001C883A00
0C3126400000003A212A00
091009100000000B000A00
08300A000130000B001900
07300A009AA3000B001900
09200928501B000A000A00
0CA9765B0004902DA94B00
0A00173880004B29001B00
09100A005902848A001A00
09200A00086B10AB002800
0A000A0001E2001B402900
0B000920004B1001A30A00
2A0007500003A000A20B00
06BAA80000007405E9B500
0001000000001BA8110000
ENDCHAR
STARTCHAR Jcircumflex
ENCODING 308
SWIDTH 484 0
DWIDTH 14 0
BBX 16 28 -1 -1
BITMAP
00000000099C7000
000000002804F200
0000000091086800
0000000650580840
00000038019A00A2
0000002808255082
00000006A700A960
0000000005995000
0000000069216900
0000000046002800
0000000028005500
0000000028006400
0000000046006400
0000000089864700
00000000A5124700
0000000074007400
0003100056008200
03B8A00056008200
1B10750064006400
65000A409B984800
2B30009683015600
00A3054A94008300
001A8602E5009200
0007B0005A109200
0000960003A06400
0000094002A04700
000001B01BBAA100
0000006AA4110000
ENDCHAR
STARTCHAR jcircumflex
ENCODING 309
SWIDTH 482 0
DWIDTH 14 0
BBX 16 28 -1 -1
BITMAP
00000000099C7000
000000002804F200
0000000091086800
0000000650580840
00000038019A00A2
0000002808255082
00000006A700A960
0000000005995000
0000000069216900
0000000046002800
0000000028005500
0000000028006400
0000000046006400
0000000089864700
00000000A5124700
0000000074007400
0003100056008200
03B8A00056008200
1B10750064006400
65000A409B984800
2B30009683015600
00A3054A94008300
001A8602E5009200
0007B0005A109200
0000960003A06400
0000094002A04700
000001B01BBAA100
0000006AA4110000
ENDCHAR
STARTCHAR Kcommaaccent
ENCODING 310
SWIDTH 541 0
DWIDTH 15 0
BBX 16 27 0 -7
BITMAP
0069840000000000
09612860000AB910
07400550004803A0
0560082002B10065
056009103B200196
07400914E3001B40
0B88564B3A409400
0C3136A600748000
09100990002B1000
08300A0003D10000
07300A101B920000
092009B193290000
0CA97665A0084000
0A00178D6493A000
09100BA2E710B000
09200B00B1007400
0A000A0038001B10
0B0009100B000480
2A00075008200940
06B9B80005A8A500
0001000000120000
0000009A80000000
0000029064000000
00000A1093000000
0000750930000000
0001B05600000000
00007AA000000000
ENDCHAR
STARTCHAR kcommaaccent
ENCODING 311
SWIDTH 541 0
DWIDTH 15 0
BBX 16 27 0 -7
BITMAP
0069840000000000
09612860000AB910
07400550004803A0
0560082002B10065
056009103B200196
07400914E3001B40
0B88564B3A409400
0C3136A600748000
09100990002B1000
08300A0003D10000
07300A101B920000
092009B193290000
0CA97665A0084000
0A00178D6493A000
09100BA2E710B000
09200B00B1007400
0A000A0038001B10
0B0009100B000480
2A00075008200940
06B9B80005A8A500
0001000000120000
0000009A80000000
0000029064000000
00000A1093000000
0000750930000000
0001B05600000000
00007AA000000000
ENDCHAR
STARTCHAR kgreenlandic
ENCODING 312
SWIDTH 541 0
DWIDTH 15 0
BBX 16 21 0 -1
BITMAP
0069840000000000
09612860000AB910
07400550004803A0
0560082002B10065
056009103B200196
07400914E3001B40
0B88564B3A409400
0C3136A600748000
09100990002B1000
08300A0003D10000
07300A101B920000
092009B193290000
0CA97665A0084000
0A00178D6493A000
09100BA2E710B000
09200B00B1007400
0A000A0038001B10
0B0009100B000480
2A00075008200940
06B9B80005A8A500
0001000000120000
ENDCHAR
STARTCHAR Lacute
ENCODING 313
SWIDTH 467 0
DWIDTH 13 0
BBX 14 28 0 -1
BITMAP
00000010000000
000000BA500000
00000740A10000
00002A02A10000
0000A11A100000
00056092000000
00009A60000000
006A9500000000
09611860000000
07400550000000
05600820000000
05500A10000000
07400910000000
0B896640000000
0C312640000000
09100910000000
08300A00000000
07300A00000000
09200920000000
0CA97650000000
0A001730000000
09100A42000010
09200B9CAAAAB2
0A000A28000038
0B000938000019
2A000763332056
06BAB9AA768AB1
00010000000000
ENDCHAR
STARTCHAR lacute
ENCODING 314
SWIDTH 467 0
DWIDTH 13 0
BBX 14 28 0 -1
BITMAP
00000010000000
000000BA500000
00000740A10000
00002A02A10000
0000A11A100000
00056092000000
00009A60000000
006A9500000000
09611860000000
07400550000000
05600820000000
05500A10000000
07400910000000
0B896640000000
0C312640000000
09100910000000
08300A00000000
07300A00000000
09200920000000
0CA97650000000
0A001730000000
09100A42000010
09200B9CAAAAB2
0A000A28000038
0B000938000019
2A000763332056
06BAB9AA768AB1
00010000000000
ENDCHAR
STARTCHAR Lcommaaccent
ENCODING 315
SWIDTH 467 0
DWIDTH 13 0
BBX 14 27 0 -7
BITMAP
006A9400000000
09611860000000
07400550000000
05600820000000
05500A10000000
07400910000000
0B896640000000
0C312640000000
09100910000000
08300A00000000
07300A00000000
09200920000000
0CA97650000000
0A001730000000
09100A42000010
09200B9CAAAAB2
0A000A28000038
0B000938000019
2A000763332056
06BAB9AA768AB1
00010000000000
000009A7000000
00003807400000
0000A119300000
00074093000000
001A0650000000
0007A900000000
ENDCHAR
STARTCHAR lcommaaccent
ENCODING 316
SWIDTH 467 0
DWIDTH 13 0
BBX 14 27 0 -7
BITMAP
006A9400000000
09611860000000
07400550000000
05600820000000
05500A10000000
07400910000000
0B896640000000
0C312640000000
09100910000000
08300A00000000
07300A00000000
09200920000000
0CA97650000000
0A001730000000
09100A42000010
09200B9CAAAAB2
0A000A28000038
0B000938000019
2A000763332056
06BAB9AA768AB1
00010000000000
000009A7000000
00003807400000
0000A119300000
00074093000000
001A0650000000
0007A900000000
ENDCHAR
STARTCHAR Lcaron
ENCODING 317
SWIDTH 467 0
DWIDTH 13 0
BBX 14 23 0 -1
BITMAP
00000000028400
00000000092840
006A9400380290
09611861A12A10
0740055930A100
05600829584000
05500A10660000
07400910000000
0B896640000000
0C312640000000
09100910000000
08300A00000000
07300A00000000
09200920000000
0CA97650000000
0A001730000000
09100A42000010
09200B9CAAAAB2
0A000A28000038
0B000938000019
2A000763332056
06BAB9AA768AB1
00010000000000
ENDCHAR
STARTCHAR lcaron
ENCODING 318
SWIDTH 467 0
DWIDTH 13 0
BBX 14 23 0 -1
BITMAP
00000000028400
00000000092840
006A9400380290
09611861A12A10
0740055930A100
05600829584000
05500A10660000
07400910000000
0B896640000000
0C312640000000
09100910000000
08300A00000000
07300A00000000
09200920000000
0CA97650000000
0A001730000000
09100A42000010
09200B9CAAAAB2
0A000A28000038
0B000938000019
2A000763332056
06BAB9AA768AB1
00010000000000
ENDCHAR
STARTCHAR Ldot
ENCODING 319
SWIDTH 611 0
DWIDTH 17 0
BBX 17 21 0 -1
BITMAP
006A94000000000000
096118600000000000
074005500000000000
056008200000000000
05500A100000000000
074009100000000000
0B8966400000000000
0C3126400000267300
091009100001B32930
08300A000000900810
07300A000000A00810
092009200000799910
0CA976500000000000
0A0017300000000000
09100A420000100000
09200B9CAAAAB20000
0A000A280000380000
0B0009380000190000
2A0007633320560000
06BAB9AA768AB10000
000100000000000000
ENDCHAR
STARTCHAR ldotaccent
ENCODING 320
SWIDTH 611 0
DWIDTH 17 0
BBX 17 21 0 -1
BITMAP
006A94000000000000
096118600000000000
074005500000000000
056008200000000000
05500A100000000000
074009100000000000
0B8966400000000000
0C3126400000267300
091009100001B32930
08300A000000900810
07300A000000A00810
092009200000799910
0CA976500000000000
0A0017300000000000
09100A420000100000
09200B9CAAAAB20000
0A000A280000380000
0B0009380000190000
2A0007633320560000
06BAB9AA768AB10000
000100000000000000
ENDCHAR
STARTCHAR Lslash
ENCODING 321
SWIDTH 505 0
DWIDTH 14 0
BBX 16 21 -1 -1
BITMAP
0000599500000000
0007712780000000
0006500470000000
0004700740000000
0004600820000000
0006500830000000
000A886550000000
000B3135AB500000
047B300840B20000
3927400A10750000
6506500910930000
48083008A9700000
0A7CA97560000000
004A101640000000
0008300933000420
0007300A8D9A96B0
0009200A0A000074
000A000839000064
001B0006734663A1
0005B9AA89644650
0000011000000000
ENDCHAR
STARTCHAR lslash
ENCODING 322
SWIDTH 505 0
DWIDTH 14 0
BBX 16 21 -1 -1
BITMAP
0000599500000000
0007712780000000
0006500470000000
0004700740000000
0004600820000000
0006500830000000
000A886550000000
000B3135AB500000
047B300840B20000
3927400A10750000
6506500910930000
48083008A9700000
0A7CA97560000000
004A101640000000
0008300933000420
0007300A8D9A96B0
0009200A0A000074
000A000839000064
001B0006734663A1
0005B9AA89644650
0000011000000000
ENDCHAR
STARTCHAR Nacute
ENCODING 323
SWIDTH 598 0
DWIDTH 17 0
BBX 16 28 0 -1
BITMAP
0000000000100000
0000000003BA2000
000000000A119000
0000000057058000
00000002A0480000
0000000921A00000
00000002AB200000
0059841000038960
097229E6003A326B
074005790029001A
0560082B000A0038
05600917500A0056
07400911B1290046
0B885755586A8739
0C3236A41B772239
091009100A660046
08300B4004B80065
07300AB000A80065
09200994001B0047
0C9966897A69983A
0A10273D50056138
09100A048001B055
09200A00A1007573
0A000A0047000A94
0B0009100A000976
2A0007500B22872A
07B9A900039DCAA2
0001000000001100
ENDCHAR
STARTCHAR nacute
ENCODING 324
SWIDTH 598 0
DWIDTH 17 0
BBX 16 28 0 -1
BITMAP
0000000000100000
0000000003BA2000
000000000A119000
0000000057058000
00000002A0480000
0000000921A00000
00000002AB200000
0059841000038960
097229E6003A326B
074005790029001A
0560082B000A0038
05600917500A0056
07400911B1290046
0B885755586A8739
0C3236A41B772239
091009100A660046
08300B4004B80065
07300AB000A80065
09200994001B0047
0C9966897A69983A
0A10273D50056138
09100A048001B055
09200A00A1007573
0A000A0047000A94
0B0009100A000976
2A0007500B22872A
07B9A900039DCAA2
0001000000001100
ENDCHAR
STARTCHAR Ncommaaccent
ENCODING 325
SWIDTH 598 0
DWIDTH 17 0
BBX 16 28 0 -8
BITMAP
0059841000038960
097229E6003A326B
074005790029001A
0560082B000A0038
05600917500A0056
07400911B1290046
0B885755586A8739
0C3236A41B772239
091009100A660046
08300B4004B80065
07300AB000A80065
09200994001B0047
0C9966897A69983A
0A10273D50056138
09100A048001B055
09200A00A1007573
0A000A0047000A94
0B0009100A000976
2A0007500B22872A
07B9A900039DCAA2
0001000000001100
0000000BA5000000
0000005609100000
000001A01A100000
00000921A1000000
0000480830000000
000009A700000000
0000001000000000
ENDCHAR
STARTCHAR ncommaaccent
ENCODING 326
SWIDTH 598 0
DWIDTH 17 0
BBX 16 28 0 -8
BITMAP
0059841000038960
097229E6003A326B
074005790029001A
0560082B000A0038
05600917500A0056
07400911B1290046
0B885755586A8739
0C3236A41B772239
091009100A660046
08300B4004B80065
07300AB000A80065
09200994001B0047
0C9966897A69983A
0A10273D50056138
09100A048001B055
09200A00A1007573
0A000A0047000A94
0B0009100A000976
2A0007500B22872A
07B9A900039DCAA2
0001000000001100
0000000BA5000000
0000005609100000
000001A01A100000
00000921A1000000
0000480830000000
000009A700000000
0000001000000000
ENDCHAR
STARTCHAR Ncaron
ENCODING 327
SWIDTH 598 0
DWIDTH 17 0
BBX 16 29 0 -1
BITMAP
0000013000210000
00002A7A03A87000
0000730729109100
00001A01A8039000
00000560731A1000
000000A00A830000
000000731B900000
00000019AA200000
0059841000038960
097229E6003A326B
074005790029001A
0560082B000A0038
05600917500A0056
07400911B1290046
0B885755586A8739
0C3236A41B772239
091009100A660046
08300B4004B80065
07300AB000A80065
09200994001B0047
0C9966897A69983A
0A10273D50056138
09100A048001B055
09200A00A1007573
0A000A0047000A94
0B0009100A000976
2A0007500B22872A
07B9A900039DCAA2
0001000000001100
ENDCHAR
STARTCHAR ncaron
ENCODING 328
SWIDTH 598 0
DWIDTH 17 0
BBX 16 29 0 -1
BITMAP
0000013000210000
00002A7A03A87000
0000730729109100
00001A01A8039000
00000560731A1000
000000A00A830000
000000731B900000
00000019AA200000
0059841000038960
097229E6003A326B
074005790029001A
0560082B000A0038
05600917500A0056
07400911B1290046
0B885755586A8739
0C3236A41B772239
091009100A660046
08300B4004B80065
07300AB000A80065
09200994001B0047
0C9966897A69983A
0A10273D50056138
09100A048001B055
09200A00A1007573
0A000A0047000A94
0B0009100A000976
2A0007500B22872A
07B9A900039DCAA2
0001000000001100
ENDCHAR
STARTCHAR napostrophe
ENCODING 329
SWIDTH 807 0
DWIDTH 23 0
BBX 22 21 0 -1
BITMAP
0038300169831000048950
00A2930B523AE400592279
0470380920077700470029
1A02A107300A1B00280055
A21A1007300B0930280074
94830009200A02B0470064
0650000C78494566898647
0000000C3238942A952347
0000000B000A000B740064
0000000A100C2006B60083
00000009100BA000C60083
0000000B000A92002A0065
0000000D9968878A5B9748
0000000B11292E30084256
0000000A000A0660029073
0000000A000A00B0009391
0000000A000A0065001BA2
0000001A000A0029000B74
000000480009300B12A647
00000008A9B700059DBAA1
0000000001000000001100
ENDCHAR
STARTCHAR Eng
ENCODING 330
SWIDTH 595 0
DWIDTH 17 0
BBX 16 28 0 -8
BITMAP
0059841000000100
097229E6001ABBC3
074005790057001C
0550082B00280019
0550091750190046
07400911B11A0055
0B78565558280055
0C3236B41B561037
091009100AADAA39
08300B4004E40037
08300AB000A60065
09200994001B0074
0C99667979691064
0A10273D50055056
09100A048001B329
08200A00A1007B59
0A100A0047000A76
0B0009100A0009A4
2A0007500B129773
07B9A90003BA3073
000100000099B256
00000039DAA51B29
0009AA82920008C5
0028000046000750
0037000014389C00
000B00379A720000
00059A8310000000
0000320000000000
ENDCHAR
STARTCHAR eng
ENCODING 331
SWIDTH 595 0
DWIDTH 17 0
BBX 16 28 0 -8
BITMAP
0059841000000100
097229E6001ABBC3
074005790057001C
0550082B00280019
0550091750190046
07400911B11A0055
0B78565558280055
0C3236B41B561037
091009100AADAA39
08300B4004E40037
08300AB000A60065
09200994001B0074
0C99667979691064
0A10273D50055056
09100A048001B329
08200A00A1007B59
0A100A0047000A76
0B0009100A0009A4
2A0007500B129773
07B9A90003BA3073
000100000099B256
00000039DAA51B29
0009AA82920008C5
0028000046000750
0037000014389C00
000B00379A720000
00059A8310000000
0000320000000000
ENDCHAR
STARTCHAR Omacron
ENCODING 332
SWIDTH 612 0
DWIDTH 17 0
BBX 17 25 0 -1
BITMAP
000001987788000000
000009113324600000
000009000002700000
000004A99AAA200000
002BA6445100000000
00921456C9ABEE9200
00A000009100089500
00A00000900006C200
00867873322008A200
009632B7A89CA97300
01D750A00056433800
03A344B0008C763900
029001A00056003800
02800560000A003800
05600740000A001A00
09410640000A000B00
0B799660000C897830
0B000920000C201910
0B000A00311A7A7A00
29002CAAD998409D00
93001A006400004E30
77002A003600004990
09DB9200135899CC40
02A16ABAAA52587200
004951000000000000
ENDCHAR
STARTCHAR omacron
ENCODING 333
SWIDTH 612 0
DWIDTH 17 0
BBX 17 25 0 -1
BITMAP
000001987788000000
000009113324600000
000009000002700000
000004A99AAA200000
002BA6445100000000
00921456C9ABEE9200
00A000009100089500
00A00000900006C200
00867873322008A200
009632B7A89CA97300
01D750A00056433800
03A344B0008C763900
029001A00056003800
02800560000A003800
05600740000A001A00
09410640000A000B00
0B799660000C897830
0B000920000C201910
0B000A00311A7A7A00
29002CAAD998409D00
93001A006400004E30
77002A003600004990
09DB9200135899CC40
02A16ABAAA52587200
004951000000000000
ENDCHAR
STARTCHAR Obreve
ENCODING 334
SWIDTH 612 0
DWIDTH 17 0
BBX 17 28 0 -1
BITMAP
000018950068400000
0000A30900A1850000
000063090270730000
0000270958A3A00000
00000906743B800000
00000B5A100D400000
0000018A99A6000000
002BA6445100000000
00921456C9ABEE9200
00A000009100089500
00A00000900006C200
00867873322008A200
009632B7A89CA97300
01D750A00056433800
03A344B0008C763900
029001A00056003800
02800560000A003800
05600740000A001A00
09410640000A000B00
0B799660000C897830
0B000920000C201910
0B000A00311A7A7A00
29002CAAD998409D00
93001A006400004E30
77002A003600004990
09DB9200135899CC40
02A16ABAAA52587200
004951000000000000
ENDCHAR
STARTCHAR obreve
ENCODING 335
SWIDTH 612 0
DWIDTH 17 0
BBX 17 28 0 -1
BITMAP
000018950068400000
0000A30900A1850000
000063090270730000
0000270958A3A00000
00000906743B800000
00000B5A100D400000
0000018A99A6000000
002BA6445100000000
00921456C9ABEE9200
00A000009100089500
00A00000900006C200
00867873322008A200
009632B7A89CA97300
01D750A00056433800
03A344B0008C763900
029001A00056003800
02800560000A003800
05600740000A001A00
09410640000A000B00
0B799660000C897830
0B000920000C201910
0B000A00311A7A7A00
29002CAAD998409D00
93001A006400004E30
77002A003600004990
09DB9200135899CC40
02A16ABAAA52587200
004951000000000000
ENDCHAR
STARTCHAR Ohungarumlaut
ENCODING 336
SWIDTH 612 0
DWIDTH 17 0
BBX 17 28 0 -1
BITMAP
000000001000000000
00000001BA407A9000
0000000740A1A04700
0000002A02A9308500
000000A11A57075000
00000560A2B0480000
0000019A605AB00000
002BA6445100000000
00921456C9ABEE9200
00A000009100089500
00A00000900006C200
00867873322008A200
009632B7A89CA97300
01D750A00056433800
03A344B0008C763900
029001A00056003800
02800560000A003800
05600740000A001A00
09410640000A000B00
0B799660000C897830
0B000920000C201910
0B000A00311A7A7A00
29002CAAD998409D00
93001A006400004E30
77002A003600004990
09DB9200135899CC40
02A16ABAAA52587200
004951000000000000
ENDCHAR
STARTCHAR ohungarumlaut
ENCODING 337
SWIDTH 612 0
DWIDTH 17 0
BBX 17 28 0 -1
BITMAP
000000001000000000
00000001BA407A9000
0000000740A1A04700
0000002A02A9308500
000000A11A57075000
00000560A2B0480000
0000019A605AB00000
002BA6445100000000
00921456C9ABEE9200
00A000009100089500
00A00000900006C200
00867873322008A200
009632B7A89CA97300
01D750A00056433800
03A344B0008C763900
029001A00056003800
02800560000A003800
05600740000A001A00
09410640000A000B00
0B799660000C897830
0B000920000C201910
0B000A00311A7A7A00
29002CAAD998409D00
93001A006400004E30
77002A003600004990
09DB9200135899CC40
02A16ABAAA52587200
004951000000000000
ENDCHAR
STARTCHAR OE
ENCODING 338
SWIDTH 831 0
DWIDTH 23 0
BBX 24 21 0 -1
BITMAP
002BA6445102897235202620
00921456CAAEDB4D7C8A85B0
00A000009100083B07300092
00A000009000065A07200082
008678733220084B344774B0
009632B7A88DA91C79633630
01D750A0003C982B00000000
03A344B00049222A00010000
029001A00019001D9AAC2000
02800560000A003800047000
05600740000A003800028000
094106400019001A43055000
0B799660004CA93C67AA0000
0B0009200038001B00000000
0B000A01213DB33B76100200
29002DAAD9841A494C9AAA50
93001A00A00009470A0001A0
77002A0090000A29090000A0
09DB9200438A9A0C55552370
02A17AAAA83ABAB567458A10
004950000000110000000000
ENDCHAR
STARTCHAR oe
ENCODING 339
SWIDTH 831 0
DWIDTH 23 0
BBX 24 21 0 -1
BITMAP
002BA6445102897235202620
00921456CAAEDB4D7C8A85B0
00A000009100083B07300092
00A000009000065A07200082
008678733220084B344774B0
009632B7A88DA91C79633630
01D750A0003C982B00000000
03A344B00049222A00010000
029001A00019001D9AAC2000
02800560000A003800047000
05600740000A003800028000
094106400019001A43055000
0B799660004CA93C67AA0000
0B0009200038001B00000000
0B000A01213DB33B76100200
29002DAAD9841A494C9AAA50
93001A00A00009470A0001A0
77002A0090000A29090000A0
09DB9200438A9A0C55552370
02A17AAAA83ABAB567458A10
004950000000110000000000
ENDCHAR
STARTCHAR Racute
ENCODING 340
SWIDTH 532 0
DWIDTH 15 0
BBX 16 27 0 -1
BITMAP
000000000AA70000
0000000047073000
00000000A11A2000
0000000930A20000
0000002A07400000
00003108A8000000
00098B5000000000
05D8006A86000000
09A300001DA20000
06B300002829A930
057AA820820002A0
06400AA9300001A0
092108238BA20660
0DA886402A499E20
0B00093892003840
09200AAB6862A700
08300B4A61AA1000
09200A7500650000
0B32175A000A1000
0B77866B7003A000
0A100AB2A5849100
09100B2089004700
0A100B001B100930
0B000A00047000A1
1A00073000A001A0
1B424B2000766A20
0168610000044000
ENDCHAR
STARTCHAR racute
ENCODING 341
SWIDTH 532 0
DWIDTH 15 0
BBX 16 27 0 -1
BITMAP
000000000AA70000
0000000047073000
00000000A11A2000
0000000930A20000
0000002A07400000
00003108A8000000
00098B5000000000
05D8006A86000000
09A300001DA20000
06B300002829A930
057AA820820002A0
06400AA9300001A0
092108238BA20660
0DA886402A499E20
0B00093892003840
09200AAB6862A700
08300B4A61AA1000
09200A7500650000
0B32175A000A1000
0B77866B7003A000
0A100AB2A5849100
09100B2089004700
0A100B001B100930
0B000A00047000A1
1A00073000A001A0
1B424B2000766A20
0168610000044000
ENDCHAR
STARTCHAR Rcommaaccent
ENCODING 342
SWIDTH 532 0
DWIDTH 15 0
BBX 16 29 0 -8
BITMAP
0000310000000000
00098B5000000000
05D8006A86000000
09A300001DA20000
06B300002829A930
057AA820820002A0
06400AA9300001A0
092108238BA20660
0DA886402A499E20
0B00093892003840
09200AAB6862A700
08300B4A61AA1000
09200A7500650000
0B32175A000A1000
0B77866B7003A000
0A100AB2A5849100
09100B2089004700
0A100B001B100930
0B000A00047000A1
1A00073000A001A0
1B424B2000766A20
0168610000044000
000000AA60000000
0000047082000000
00000A01A2000000
0000930A20000000
0003908400000000
00008A8000000000
0000010000000000
ENDCHAR
STARTCHAR rcommaaccent
ENCODING 343
SWIDTH 532 0
DWIDTH 15 0
BBX 16 29 0 -8
BITMAP
0000310000000000
00098B5000000000
05D8006A86000000
09A300001DA20000
06B300002829A930
057AA820820002A0
06400AA9300001A0
092108238BA20660
0DA886402A499E20
0B00093892003840
09200AAB6862A700
08300B4A61AA1000
09200A7500650000
0B32175A000A1000
0B77866B7003A000
0A100AB2A5849100
09100B2089004700
0A100B001B100930
0B000A00047000A1
1A00073000A001A0
1B424B2000766A20
0168610000044000
000000AA60000000
0000047082000000
00000A01A2000000
0000930A20000000
0003908400000000
00008A8000000000
0000010000000000
ENDCHAR
STARTCHAR Rcaron
ENCODING 344
SWIDTH 532 0
DWIDTH 15 0
BBX 16 29 0 -1
BITMAP
0000030002200000
0002A7A02A880000
0006406382092000
0001A01A802A0000
0000470640A10000
00000A00A7400000
00000641BA000000
0000329AA3000000
00098B5000000000
05D8006A86000000
09A300001DA20000
06B300002829A930
057AA820820002A0
06400AA9300001A0
092108238BA20660
0DA886402A499E20
0B00093892003840
09200AAB6862A700
08300B4A61AA1000
09200A7500650000
0B32175A000A1000
0B77866B7003A000
0A100AB2A5849100
09100B2089004700
0A100B001B100930
0B000A00047000A1
1A00073000A001A0
1B424B2000766A20
0168610000044000
ENDCHAR
STARTCHAR rcaron
ENCODING 345
SWIDTH 532 0
DWIDTH 15 0
BBX 16 29 0 -1
BITMAP
0000030002200000
0002A7A02A880000
0006406382092000
0001A01A802A0000
0000470640A10000
00000A00A7400000
00000641BA000000
0000329AA3000000
00098B5000000000
05D8006A86000000
09A300001DA20000
06B300002829A930
057AA820820002A0
06400AA9300001A0
092108238BA20660
0DA886402A499E20
0B00093892003840
09200AAB6862A700
08300B4A61AA1000
09200A7500650000
0B32175A000A1000
0B77866B7003A000
0A100AB2A5849100
09100B2089004700
0A100B001B100930
0B000A00047000A1
1A00073000A001A0
1B424B2000766A20
0168610000044000
ENDCHAR
STARTCHAR Sacute
ENCODING 346
SWIDTH 442 0
DWIDTH 12 0
BBX 13 29 0 -1
BITMAP
00000001000000
0000001BA40000
000000830A0000
000002903A0000
00001A12A00000
0000650A100000
00001AB4000000
00000000001000
000015767AB500
08AA95C4300B00
0CAA9081000A10
3B109171010B00
A2004A69A99600
2B000B51000000
047002A0000000
00A01666000000
0069A30A000000
002D0008400000
00058001B10000
000083002B0000
00001A18882000
000009A2038000
000002A000A300
2868AEB7001B20
9342082B000650
A0000647303B00
B0000339DBC100
676AAA93121000
05500000000000
ENDCHAR
STARTCHAR sacute
ENCODING 347
SWIDTH 442 0
DWIDTH 12 0
BBX 13 29 0 -1
BITMAP
00000001000000
0000001BA40000
000000830A0000
000002903A0000
00001A12A00000
0000650A100000
00001AB4000000
00000000001000
000015767AB500
08AA95C4300B00
0CAA9081000A10
3B109171010B00
A2004A69A99600
2B000B51000000
047002A0000000
00A01666000000
0069A30A000000
002D0008400000
00058001B10000
000083002B0000
00001A18882000
000009A2038000
000002A000A300
2868AEB7001B20
9342082B000650
A0000647303B00
B0000339DBC100
676AAA93121000
05500000000000
ENDCHAR
STARTCHAR Scircumflex
ENCODING 348
SWIDTH 442 0
DWIDTH 12 0
BBX 13 29 0 -1
BITMAP
00005ABA000000
0000901E500000
00064057A00000
003802B0480000
00A00A92085000
00A05519046000
003AA008990000
00000000001000
000015767AB500
08AA95C4300B00
0CAA9081000A10
3B109171010B00
A2004A69A99600
2B000B51000000
047002A0000000
00A01666000000
0069A30A000000
002D0008400000
00058001B10000
000083002B0000
00001A18882000
000009A2038000
000002A000A300
2868AEB7001B20
9342082B000650
A0000647303B00
B0000339DBC100
676AAA93121000
05500000000000
ENDCHAR
STARTCHAR scircumflex
ENCODING 349
SWIDTH 442 0
DWIDTH 12 0
BBX 13 29 0 -1
BITMAP
00005ABA000000
0000901E500000
00064057A00000
003802B0480000
00A00A92085000
00A05519046000
003AA008990000
00000000001000
000015767AB500
08AA95C4300B00
0CAA9081000A10
3B109171010B00
A2004A69A99600
2B000B51000000
047002A0000000
00A01666000000
0069A30A000000
002D0008400000
00058001B10000
000083002B0000
00001A18882000
000009A2038000
000002A000A300
2868AEB7001B20
9342082B000650
A0000647303B00
B0000339DBC100
676AAA93121000
05500000000000
ENDCHAR
STARTCHAR Scedilla
ENCODING 350
SWIDTH 442 0
DWIDTH 12 0
BBX 13 27 0 -6
BITMAP
00000000001000
000015767AB500
08AA95C4300B00
0CAA9081000A10
3B109171010B00
A2004A69A99600
2B000B51000000
047002A0000000
00A01666000000
0069A30A000000
002D0008400000
00058001B10000
000083002B0000
00001A18882000
000009A2038000
000002A000A300
2868AEB7001B20
9342082B000650
A0000647303B00
B0000339DBC100
676AAAB4A21000
05500270900000
00000560900000
0029A995A20000
00630039700000
004728A7100000
00079200000000
ENDCHAR
STARTCHAR scedilla
ENCODING 351
SWIDTH 442 0
DWIDTH 12 0
BBX 13 27 0 -6
BITMAP
00000000001000
000015767AB500
08AA95C4300B00
0CAA9081000A10
3B109171010B00
A2004A69A99600
2B000B51000000
047002A0000000
00A01666000000
0069A30A000000
002D0008400000
00058001B10000
000083002B0000
00001A18882000
000009A2038000
000002A000A300
2868AEB7001B20
9342082B000650
A0000647303B00
B0000339DBC100
676AAAB4A21000
05500270900000
00000560900000
0029A995A20000
00630039700000
004728A7100000
00079200000000
ENDCHAR
STARTCHAR Scaron
ENCODING 352
SWIDTH 442 0
DWIDTH 12 0
BBX 13 29 0 -1
BITMAP
00022001200000
0087A30A7A1000
00A01827028000
008308A1092000
000A0190750000
00064056900000
0001906D200000
000069A7001000
000015767AB500
08AA95C4300B00
0CAA9081000A10
3B109171010B00
A2004A69A99600
2B000B51000000
047002A0000000
00A01666000000
0069A30A000000
002D0008400000
00058001B10000
000083002B0000
00001A18882000
000009A2038000
000002A000A300
2868AEB7001B20
9342082B000650
A0000647303B00
B0000339DBC100
676AAA93121000
05500000000000
ENDCHAR
STARTCHAR scaron
ENCODING 353
SWIDTH 442 0
DWIDTH 12 0
BBX 13 29 0 -1
BITMAP
00022001200000
0087A30A7A1000
00A01827028000
008308A1092000
000A0190750000
00064056900000
0001906D200000
000069A7001000
000015767AB500
08AA95C4300B00
0CAA9081000A10
3B109171010B00
A2004A69A99600
2B000B51000000
047002A0000000
00A01666000000
0069A30A000000
002D0008400000
00058001B10000
000083002B0000
00001A18882000
000009A2038000
000002A000A300
2868AEB7001B20
9342082B000650
A0000647303B00
B0000339DBC100
676AAA93121000
05500000000000
ENDCHAR
STARTCHAR Tcommaaccent
ENCODING 354
SWIDTH 453 0
DWIDTH 13 0
BBX 14 27 -1 -7
BITMAP
04A7668A744691
1A024429566439
3800000730000A
2900000710000A
0A589A979AA995
01520A131A0030
00000B000A0000
00002DA95A0000
00002A000A0000
00000A000A0000
00000A00190000
00000A000A0000
00001B320A0000
00002C676A0000
00000A000A0000
00000B00190000
00000A00190000
000038000A0000
000075000B0000
000019A9B50000
00000011000000
000008A8000000
00001905600000
00009209400000
00066084000000
000B0470000000
0006AA00000000
ENDCHAR
STARTCHAR tcommaaccent
ENCODING 355
SWIDTH 453 0
DWIDTH 13 0
BBX 14 27 -1 -7
BITMAP
04A7668A744691
1A024429566439
3800000730000A
2900000710000A
0A589A979AA995
01520A131A0030
00000B000A0000
00002DA95A0000
00002A000A0000
00000A000A0000
00000A00190000
00000A000A0000
00001B320A0000
00002C676A0000
00000A000A0000
00000B00190000
00000A00190000
000038000A0000
000075000B0000
000019A9B50000
00000011000000
000008A8000000
00001905600000
00009209400000
00066084000000
000B0470000000
0006AA00000000
ENDCHAR
STARTCHAR Tcaron
ENCODING 356
SWIDTH 453 0
DWIDTH 13 0
BBX 14 29 -1 -1
BITMAP
00001300021000
0003A790499600
00082071910A00
0002902B703800
0000650821A000
00000A01A82000
00000821B90000
0000029AA20000
04A7668A744691
1A024429566439
3800000730000A
2900000710000A
0A589A979AA995
01520A131A0030
00000B000A0000
00002DA95A0000
00002A000A0000
00000A000A0000
00000A00190000
00000A000A0000
00001B320A0000
00002C676A0000
00000A000A0000
00000B00190000
00000A00190000
000038000A0000
000075000B0000
000019A9B50000
00000011000000
ENDCHAR
STARTCHAR tcaron
ENCODING 357
SWIDTH 453 0
DWIDTH 13 0
BBX 14 29 -1 -1
BITMAP
00001300021000
0003A790499600
00082071910A00
0002902B703800
0000650821A000
00000A01A82000
00000821B90000
0000029AA20000
04A7668A744691
1A024429566439
3800000730000A
2900000710000A
0A589A979AA995
01520A131A0030
00000B000A0000
00002DA95A0000
00002A000A0000
00000A000A0000
00000A00190000
00000A000A0000
00001B320A0000
00002C676A0000
00000A000A0000
00000B00190000
00000A00190000
000038000A0000
000075000B0000
000019A9B50000
00000011000000
ENDCHAR
STARTCHAR Tbar
ENCODING 358
SWIDTH 455 0
DWIDTH 13 0
BBX 14 21 -1 -1
BITMAP
01732345200250
0A47876B89A878
2800000730000A
2800000720000A
0B146655577658
03964B575B2471
00000A000A0000
00001C662A0000
00002C433A0000
002AAC876D9500
00820012221A00
00A00000000820
00830111000A10
001AAEBBCCA700
00000A000B0000
00000A001A0000
00000B00190000
000019000A0000
000065000B0000
00002B65890000
00000156300000
ENDCHAR
STARTCHAR tbar
ENCODING 359
SWIDTH 455 0
DWIDTH 13 0
BBX 14 21 -1 -1
BITMAP
01732345200250
0A47876B89A878
2800000730000A
2800000720000A
0B146655577658
03964B575B2471
00000A000A0000
00001C662A0000
00002C433A0000
002AAC876D9500
00820012221A00
00A00000000820
00830111000A10
001AAEBBCCA700
00000A000B0000
00000A001A0000
00000B00190000
000019000A0000
000065000B0000
00002B65890000
00000156300000
ENDCHAR
STARTCHAR Utilde
ENCODING 360
SWIDTH 583 0
DWIDTH 16 0
BBX 16 28 0 -1
BITMAP
00000099C702B960
000003803E182091
00000A10869902A0
0000750680840A10
00038029A0095600
000280915508C100
000069700A9D6000
0027861000279610
00C425B104A325B0
00B000A1037001A0
00A000A000A00380
00A0028000A00380
0290037000A001A0
07B8638001B773B0
0851338003B322A0
0640064000A000A0
0640091000B000A0
08300A0000A100A0
0B20091000A10091
0C89874000B89865
0A000A0000A31174
0B000A01129BB792
1A002CBDA8610A92
65001A03700006B4
94001B0090000768
1ACAB3004499AA2B
01A059AAA64B9AA2
004B610000001100
ENDCHAR
STARTCHAR utilde
ENCODING 361
SWIDTH 583 0
DWIDTH 16 0
BBX 16 28 0 -1
BITMAP
00000099C702B960
000003803E182091
00000A10869902A0
0000750680840A10
00038029A0095600
000280915508C100
000069700A9D6000
0027861000279610
00C425B104A325B0
00B000A1037001A0
00A000A000A00380
00A0028000A00380
0290037000A001A0
07B8638001B773B0
0851338003B322A0
0640064000A000A0
0640091000B000A0
08300A0000A100A0
0B20091000A10091
0C89874000B89865
0A000A0000A31174
0B000A01129BB792
1A002CBDA8610A92
65001A03700006B4
94001B0090000768
1ACAB3004499AA2B
01A059AAA64B9AA2
004B610000001100
ENDCHAR
STARTCHAR Umacron
ENCODING 362
SWIDTH 583 0
DWIDTH 16 0
BBX 16 25 0 -1
BITMAP
0000059777850000
00001902331A0000
0000270000081000
00000899AA980000
0027861000279610
00C425B104A325B0
00B000A1037001A0
00A000A000A00380
00A0028000A00380
0290037000A001A0
07B8638001B773B0
0851338003B322A0
0640064000A000A0
0640091000B000A0
08300A0000A100A0
0B20091000A10091
0C89874000B89865
0A000A0000A31174
0B000A01129BB792
1A002CBDA8610A92
65001A03700006B4
94001B0090000768
1ACAB3004499AA2B
01A059AAA64B9AA2
004B610000001100
ENDCHAR
STARTCHAR umacron
ENCODING 363
SWIDTH 583 0
DWIDTH 16 0
BBX 16 25 0 -1
BITMAP
0000059777850000
00001902331A0000
0000270000081000
00000899AA980000
0027861000279610
00C425B104A325B0
00B000A1037001A0
00A000A000A00380
00A0028000A00380
0290037000A001A0
07B8638001B773B0
0851338003B322A0
0640064000A000A0
0640091000B000A0
08300A0000A100A0
0B20091000A10091
0C89874000B89865
0A000A0000A31174
0B000A01129BB792
1A002CBDA8610A92
65001A03700006B4
94001B0090000768
1ACAB3004499AA2B
01A059AAA64B9AA2
004B610000001100
ENDCHAR
STARTCHAR Ubreve
ENCODING 364
SWIDTH 583 0
DWIDTH 16 0
BBX 16 29 0 -1
BITMAP
0000697003860000
0005708109159000
0001807209028000
000090575C582000
0000901B43AA0000
0000968500890000
000005B999A00000
0000000000000000
0027861000279610
00C425B104A325B0
00B000A1037001A0
00A000A000A00380
00A0028000A00380
0290037000A001A0
07B8638001B773B0
0851338003B322A0
0640064000A000A0
0640091000B000A0
08300A0000A100A0
0B20091000A10091
0C89874000B89865
0A000A0000A31174
0B000A01129BB792
1A002CBDA8610A92
65001A03700006B4
94001B0090000768
1ACAB3004499AA2B
01A059AAA64B9AA2
004B610000001100
ENDCHAR
STARTCHAR ubreve
ENCODING 365
SWIDTH 583 0
DWIDTH 16 0
BBX 16 29 0 -1
BITMAP
0000697003860000
0005708109159000
0001807209028000
000090575C582000
0000901B43AA0000
0000968500890000
000005B999A00000
0000000000000000
0027861000279610
00C425B104A325B0
00B000A1037001A0
00A000A000A00380
00A0028000A00380
0290037000A001A0
07B8638001B773B0
0851338003B322A0
0640064000A000A0
0640091000B000A0
08300A0000A100A0
0B20091000A10091
0C89874000B89865
0A000A0000A31174
0B000A01129BB792
1A002CBDA8610A92
65001A03700006B4
94001B0090000768
1ACAB3004499AA2B
01A059AAA64B9AA2
004B610000001100
ENDCHAR
STARTCHAR Uring
ENCODING 366
SWIDTH 583 0
DWIDTH 16 0
BBX 16 29 0 -1
BITMAP
000000BA99900000
0000065092820000
00002A01B2290000
0001B10975074000
0000A16C9C046000
00006A7005AC0000
0000641221090000
0000198778A30000
0027861000279610
00C425B104A325B0
00B000A1037001A0
00A000A000A00380
00A0028000A00380
0290037000A001A0
07B8638001B773B0
0851338003B322A0
0640064000A000A0
0640091000B000A0
08300A0000A100A0
0B20091000A10091
0C89874000B89865
0A000A0000A31174
0B000A01129BB792
1A002CBDA8610A92
65001A03700006B4
94001B0090000768
1ACAB3004499AA2B
01A059AAA64B9AA2
004B610000001100
ENDCHAR
STARTCHAR uring
ENCODING 367
SWIDTH 583 0
DWIDTH 16 0
BBX 16 29 0 -1
BITMAP
000000BA99900000
0000065092820000
00002A01B2290000
0001B10975074000
0000A16C9C046000
00006A7005AC0000
0000641221090000
0000198778A30000
0027861000279610
00C425B104A325B0
00B000A1037001A0
00A000A000A00380
00A0028000A00380
0290037000A001A0
07B8638001B773B0
0851338003B322A0
0640064000A000A0
0640091000B000A0
08300A0000A100A0
0B20091000A10091
0C89874000B89865
0A000A0000A31174
0B000A01129BB792
1A002CBDA8610A92
65001A03700006B4
94001B0090000768
1ACAB3004499AA2B
01A059AAA64B9AA2
004B610000001100
ENDCHAR
STARTCHAR Uhungarumlaut
ENCODING 368
SWIDTH 583 0
DWIDTH 16 0
BBX 16 29 0 -1
BITMAP
0000000100000000
0000000BA506A910
00000064091A0370
000001A02A940850
00000A21A5807500
000047092B038000
000009A604AB1000
0000000000000000
0027861000279610
00C425B104A325B0
00B000A1037001A0
00A000A000A00380
00A0028000A00380
0290037000A001A0
07B8638001B773B0
0851338003B322A0
0640064000A000A0
0640091000B000A0
08300A0000A100A0
0B20091000A10091
0C89874000B89865
0A000A0000A31174
0B000A01129BB792
1A002CBDA8610A92
65001A03700006B4
94001B0090000768
1ACAB3004499AA2B
01A059AAA64B9AA2
004B610000001100
ENDCHAR
STARTCHAR uhungarumlaut
ENCODING 369
SWIDTH 583 0
DWIDTH 16 0
BBX 16 29 0 -1
BITMAP
0000000100000000
0000000BA506A910
00000064091A0370
000001A02A940850
00000A21A5807500
000047092B038000
000009A604AB1000
0000000000000000
0027861000279610
00C425B104A325B0
00B000A1037001A0
00A000A000A00380
00A0028000A00380
0290037000A001A0
07B8638001B773B0
0851338003B322A0
0640064000A000A0
0640091000B000A0
08300A0000A100A0
0B20091000A10091
0C89874000B89865
0A000A0000A31174
0B000A01129BB792
1A002CBDA8610A92
65001A03700006B4
94001B0090000768
1ACAB3004499AA2B
01A059AAA64B9AA2
004B610000001100
ENDCHAR
STARTCHAR Uogonek
ENCODING 370
SWIDTH 583 0
DWIDTH 16 0
BBX 16 27 0 -7
BITMAP
0027861000279610
00C425B104A325B0
00B000A1037001A0
00A000A000A00380
00A0028000A00380
0290037000A001A0
07B8638001B773B0
0851338003B322A0
0640064000A000A0
0640091000B000A0
08300A0000A100A0
0B20091000A10091
0C89874000B89865
0A000A0000A31174
0B000A01129BB792
1A002CBDA8610A92
65001A03700006B4
94001B0090000768
1ACAB3004499AA2B
01A059AAA66D9AB2
004B610000731A10
0000000001A04600
0000000005709910
0000000000BB73A5
00000000002A500A
0000000000008566
0000000000000750
ENDCHAR
STARTCHAR uogonek
ENCODING 371
SWIDTH 583 0
DWIDTH 16 0
BBX 16 27 0 -7
BITMAP
0027861000279610
00C425B104A325B0
00B000A1037001A0
00A000A000A00380
00A0028000A00380
0290037000A001A0
07B8638001B773B0
0851338003B322A0
0640064000A000A0
0640091000B000A0
08300A0000A100A0
0B20091000A10091
0C89874000B89865
0A000A0000A31174
0B000A01129BB792
1A002CBDA8610A92
65001A03700006B4
94001B0090000768
1ACAB3004499AA2B
01A059AAA66D9AB2
004B610000731A10
0000000001A04600
0000000005709910
0000000000BB73A5
00000000002A500A
0000000000008566
0000000000000750
ENDCHAR
STARTCHAR Wcircumflex
ENCODING 372
SWIDTH 735 0
DWIDTH 21 0
BBX 22 27 -1 -1
BITMAP
0000000005ABB000000000
000000000901E600000000
0000000065048A00000000
00000002902B0480000000
0000000A00993075000000
0000000A04619047000000
00000003AA008990000000
019BB900000000008A9A50
1B300B00018BA400A000A3
0B000A000A401900A000A1
065008301E100900A00290
019004704B600903700550
00A000B0A6A00569510630
00B99673C5B794AD887740
00C30064A0C500AA000910
006600469055009A001A00
001A001C800A0059003700
000A000A30090276005500
0008302BA97AA8D7306400
0007BA7A001C50B4696500
000290090038A0B000A100
0000A0190073A0B0019000
000074640081A480056000
000046B000909B30064000
000037A300A11B00055000
00003A4CEA5007944A4000
0000037620000036630000
ENDCHAR
STARTCHAR wcircumflex
ENCODING 373
SWIDTH 735 0
DWIDTH 21 0
BBX 22 27 -1 -1
BITMAP
0000000005ABB000000000
000000000901E600000000
0000000065048A00000000
00000002902B0480000000
0000000A00993075000000
0000000A04619047000000
00000003AA008990000000
019BB900000000008A9A50
1B300B00018BA400A000A3
0B000A000A401900A000A1
065008301E100900A00290
019004704B600903700550
00A000B0A6A00569510630
00B99673C5B794AD887740
00C30064A0C500AA000910
006600469055009A001A00
001A001C800A0059003700
000A000A30090276005500
0008302BA97AA8D7306400
0007BA7A001C50B4696500
000290090038A0B000A100
0000A0190073A0B0019000
000074640081A480056000
000046B000909B30064000
000037A300A11B00055000
00003A4CEA5007944A4000
0000037620000036630000
ENDCHAR
STARTCHAR Ycircumflex
ENCODING 374
SWIDTH 484 0
DWIDTH 14 0
BBX 16 27 -1 0
BITMAP
000000BAC5000000
000005507D000000
00001A00A7500000
0000820940A20000
00065048902B0000
00055090820A0000
00008A502AA40000
0000000000010000
02AA8000008AAA20
1B10A10000A002B1
8300390001A000A3
5A00066007400570
049000763A000B00
0075064ADB504700
000B9403A0577300
000780056001B000
0000940A10084000
00000A59001A0000
000002F400650000
000002A7A3910000
0000065004B00000
00000B0008400000
0000660029000000
0003A00083000000
00056000A0000000
0000A722A0000000
0000059930000000
ENDCHAR
STARTCHAR ycircumflex
ENCODING 375
SWIDTH 484 0
DWIDTH 14 0
BBX 16 27 -1 0
BITMAP
000000BAC5000000
000005507D000000
00001A00A7500000
0000820940A20000
00065048902B0000
00055090820A0000
00008A502AA40000
0000000000010000
02AA8000008AAA20
1B10A10000A002B1
8300390001A000A3
5A00066007400570
049000763A000B00
0075064ADB504700
000B9403A0577300
000780056001B000
0000940A10084000
00000A59001A0000
000002F400650000
000002A7A3910000
0000065004B00000
00000B0008400000
0000660029000000
0003A00083000000
00056000A0000000
0000A722A0000000
0000059930000000
ENDCHAR
STARTCHAR Ydieresis
ENCODING 376
SWIDTH 484 0
DWIDTH 14 0
BBX 16 25 -1 0
BITMAP
0000243002420000
000A758688587000
000A006481046000
0007307272072000
0004A9913A9A0000
0000000000010000
02AA8000008AAA20
1B10A10000A002B1
8300390001A000A3
5A00066007400570
049000763A000B00
0075064ADB504700
000B9403A0577300
000780056001B000
0000940A10084000
00000A59001A0000
000002F400650000
000002A7A3910000
0000065004B00000
00000B0008400000
0000660029000000
0003A00083000000
00056000A0000000
0000A722A0000000
0000059930000000
ENDCHAR
STARTCHAR Zacute
ENCODING 377
SWIDTH 458 0
DWIDTH 13 0
BBX 14 27 -1 0
BITMAP
00000000010000
000000004BA100
00000000A02900
00000006506700
00000039057000
000000A1290000
0000003AB10000
00042125202610
0067797C8A8680
00A000072000B2
00A000072000AA
007426656886CA
0009844C6126C1
0000007D300920
000000B3871A00
00000390037500
00000A2004A000
000057001B1000
0002E200750000
00085A70B00000
001B0055900000
0084001C200300
058000AD999970
3A0004872000A0
1B0009172000A0
05A32C34355390
002CA779745820
ENDCHAR
STARTCHAR zacute
ENCODING 378
SWIDTH 458 0
DWIDTH 13 0
BBX 14 27 -1 0
BITMAP
00000000010000
000000004BA100
00000000A02900
00000006506700
00000039057000
000000A1290000
0000003AB10000
00042125202610
0067797C8A8680
00A000072000B2
00A000072000AA
007426656886CA
0009844C6126C1
0000007D300920
000000B3871A00
00000390037500
00000A2004A000
000057001B1000
0002E200750000
00085A70B00000
001B0055900000
0084001C200300
058000AD999970
3A0004872000A0
1B0009172000A0
05A32C34355390
002CA779745820
ENDCHAR
STARTCHAR Zdotaccent
ENCODING 379
SWIDTH 458 0
DWIDTH 13 0
BBX 14 26 -1 0
BITMAP
00000014400000
000007855B0000
00000650190000
00000280270000
000001A9A40000
00000000000000
00042125202610
0067797C8A8680
00A000072000B2
00A000072000AA
007426656886CA
0009844C6126C1
0000007D300920
000000B3871A00
00000390037500
00000A2004A000
000057001B1000
0002E200750000
00085A70B00000
001B0055900000
0084001C200300
058000AD999970
3A0004872000A0
1B0009172000A0
05A32C34355390
002CA779745820
ENDCHAR
STARTCHAR zdotaccent
ENCODING 380
SWIDTH 458 0
DWIDTH 13 0
BBX 14 26 -1 0
BITMAP
00000014400000
000007855B0000
00000650190000
00000280270000
000001A9A40000
00000000000000
00042125202610
0067797C8A8680
00A000072000B2
00A000072000AA
007426656886CA
0009844C6126C1
0000007D300920
000000B3871A00
00000390037500
00000A2004A000
000057001B1000
0002E200750000
00085A70B00000
001B0055900000
0084001C200300
058000AD999970
3A0004872000A0
1B0009172000A0
05A32C34355390
002CA779745820
ENDCHAR
STARTCHAR Zcaron
ENCODING 381
SWIDTH 458 0
DWIDTH 13 0
BBX 14 28 -1 0
BITMAP
00001300021000
00049790599600
00091081A00A00
0002903B604700
0000740912A000
00001901A91000
00000912C80000
0000029AA10000
00042125202610
0067797C8A8680
00A000072000B2
00A000072000AA
007426656886CA
0009844C6126C1
0000007D300920
000000B3871A00
00000390037500
00000A2004A000
000057001B1000
0002E200750000
00085A70B00000
001B0055900000
0084001C200300
058000AD999970
3A0004872000A0
1B0009172000A0
05A32C34355390
002CA779745820
ENDCHAR
STARTCHAR zcaron
ENCODING 382
SWIDTH 458 0
DWIDTH 13 0
BBX 14 28 -1 0
BITMAP
00001300021000
00049790599600
00091081A00A00
0002903B604700
0000740912A000
00001901A91000
00000912C80000
0000029AA10000
00042125202610
0067797C8A8680
00A000072000B2
00A000072000AA
007426656886CA
0009844C6126C1
0000007D300920
000000B3871A00
00000390037500
00000A2004A000
000057001B1000
0002E200750000
00085A70B00000
001B0055900000
0084001C200300
058000AD999970
3A0004872000A0
1B0009172000A0
05A32C34355390
002CA779745820
ENDCHAR
STARTCHAR AEacute
ENCODING 508
SWIDTH 797 0
DWIDTH 22 0
BBX 24 29 -1 -1
BITMAP
000000000000001000000000
00000000000002BA30000000
0000000000000921A0000000
000000000000380490000000
000000000001A03900000000
00000000000840A000000000
000000000002AB3000000000
000000000000000000000000
000000000002897225202630
000000008B9C313C8B9A95B0
00000000A03B300A06400073
000000056001B00B06300073
0000000B1006700C344775B1
00000076002D000C78743640
000004D4009C883B00000000
00000936A1DA212A00010000
00000B00157A000D9AAC3000
000057002B0A002900028000
0001B000920B00190001A000
00096002C43A000A43147000
001B8A26757DA94B67AB1000
0056016A1019001A00000000
00B00067000A001B76100200
075002E9999A002A4C8AAA60
58000830001900280A0000A0
75000B000046000A090000A0
1B5029000074000C54552290
006AA300001AA9B657458A10
000000000000110000000000
ENDCHAR
STARTCHAR aeacute
ENCODING 509
SWIDTH 797 0
DWIDTH 22 0
BBX 24 29 -1 -1
BITMAP
000000000000001000000000
00000000000002BA30000000
0000000000000921A0000000
000000000000380490000000
000000000001A03900000000
00000000000840A000000000
000000000002AB3000000000
000000000000000000000000
000000000002897225202630
000000008B9C313C8B9A95B0
00000000A03B300A06400073
000000056001B00B06300073
0000000B1006700C344775B1
00000076002D000C78743640
000004D4009C883B00000000
00000936A1DA212A00010000
00000B00157A000D9AAC3000
000057002B0A002900028000
0001B000920B00190001A000
00096002C43A000A43147000
001B8A26757DA94B67AB1000
0056016A1019001A00000000
00B00067000A001B76100200
075002E9999A002A4C8AAA60
58000830001900280A0000A0
75000B000046000A090000A0
1B5029000074000C54552290
006AA300001AA9B657458A10
000000000000110000000000
ENDCHAR
STARTCHAR Oslashacute
ENCODING 510
SWIDTH 612 0
DWIDTH 17 0
BBX 17 29 0 -2
BITMAP
000000000010000000
0000000001BA400000
000000000830A00000
000000002903A00000
00000001A12A000000
0000000650A1000000
00000001AB50000000
002BA6445100320000
00921456CAAC9AB100
00A00000910A005800
00A000009046001A00
0086787332A000C300
009632B7AE3008A400
01D750A08B102A4800
03A344B1A5B3963900
029001A65014903800
0280056A000A203800
056006B4007C001A00
09410790029A000B00
0B799D81082C897830
0B00566C2A0C201910
0B00A002761A7A7A00
29065004E998409D00
933A001A7400004E30
77B100833600004990
085001A0135899CC40
02B105CAAA52587200
005CBB000000000000
000010000000000000
ENDCHAR
STARTCHAR oslashacute
ENCODING 511
SWIDTH 612 0
DWIDTH 17 0
BBX 17 29 0 -2
BITMAP
000000000010000000
0000000001BA400000
000000000830A00000
000000002903A00000
00000001A12A000000
0000000650A1000000
00000001AB50000000
002BA6445100320000
00921456CAAC9AB100
00A00000910A005800
00A000009046001A00
0086787332A000C300
009632B7AE3008A400
01D750A08B102A4800
03A344B1A5B3963900
029001A65014903800
0280056A000A203800
056006B4007C001A00
09410790029A000B00
0B799D81082C897830
0B00566C2A0C201910
0B00A002761A7A7A00
29065004E998409D00
933A001A7400004E30
77B100833600004990
085001A0135899CC40
02B105CAAA52587200
005CBB000000000000
000010000000000000
ENDCHAR
STARTCHAR dotlessj
ENCODING 567
SWIDTH 482 0
DWIDTH 14 0
BBX 14 21 -1 -1
BITMAP
00000000059950
00000000692169
00000000460028
00000000280055
00000000280064
00000000460064
00000000898647
00000000A51247
00000000740074
00031000560082
03B8A000560082
1B107500640064
65000A409B9848
2B300096830156
00A3054A940083
001A8602E50092
0007B0005A1092
0000960003A064
0000094002A047
000001B01BBAA1
0000006AA41100
ENDCHAR
STARTCHAR circumflex
ENCODING 710
SWIDTH 308 0
DWIDTH 9 0
BBX 9 7 0 21
BITMAP
005ABB0000
00901D6000
065048A000
2902B04800
A109930750
A046190370
3AA0079910
ENDCHAR
STARTCHAR caron
ENCODING 711
SWIDTH 310 0
DWIDTH 9 0
BBX 9 8 0 21
BITMAP
0220003000
7895097A20
A008180190
6507A20830
0A11A05600
056047A000
00A05D4000
0059B80000
ENDCHAR
STARTCHAR breve
ENCODING 728
SWIDTH 333 0
DWIDTH 9 0
BBX 10 7 0 21
BITMAP
2893007820
B1180372A2
9109054091
540A5B8290
3609544C50
2B6A001E10
029A99B300
ENDCHAR
STARTCHAR dotaccent
ENCODING 729
SWIDTH 166 0
DWIDTH 5 0
BBX 5 5 0 21
BITMAP
024300
975780
910550
640630
3A9A20
ENDCHAR
STARTCHAR ring
ENCODING 730
SWIDTH 309 0
DWIDTH 9 0
BBX 9 8 0 21
BITMAP
009A9AA000
0370656400
1A10A31A00
A208680560
924D9D1280
4B8103BD10
3612210A00
0887789500
ENDCHAR
STARTCHAR ogonek
ENCODING 731
SWIDTH 226 0
DWIDTH 6 0
BBX 7 9 0 -7
BITMAP
05AA4000
0900B000
19047000
730A0000
B12D4000
4EA28910
06A10640
003A2A00
00038100
ENDCHAR
STARTCHAR tilde
ENCODING 732
SWIDTH 410 0
DWIDTH 11 0
BBX 12 8 0 21
BITMAP
000000000100
005ABB10A890
00A00D637046
0650489910A2
3902B0390650
A10983075A00
A1451903D400
3990089CA000
ENDCHAR
STARTCHAR hungarumlaut
ENCODING 733
SWIDTH 361 0
DWIDTH 10 0
BBX 10 7 0 21
BITMAP
0000000100
007A901BA4
01A037730A
083087903A
57075A12A0
B038660A10
5AB01AB500
ENDCHAR
STARTCHAR uni0312
ENCODING 786
SWIDTH 202 0
DWIDTH 6 0
BBX 6 7 0 13
BITMAP
003830
00A293
047038
1A02A1
A21A10
948300
065000
ENDCHAR
STARTCHAR uni0315
ENCODING 789
SWIDTH 202 0
DWIDTH 6 0
BBX 6 7 0 13
BITMAP
003830
00A293
047038
1A02A1
A21A10
948300
065000
ENDCHAR
STARTCHAR uni0326
ENCODING 806
SWIDTH 201 0
DWIDTH 6 0
BBX 6 7 0 -8
BITMAP
007A90
01A047
083085
570750
B03800
5AB000
001000
ENDCHAR
STARTCHAR Wgrave
ENCODING 7808
SWIDTH 735 0
DWIDTH 21 0
BBX 22 27 -1 -1
BITMAP
0000000001310000000000
0000000069870000000000
0000000290090000000000
0000000092090000000000
000000001A046000000000
000000000740A000000000
0000000001BA3000000000
019BB900000000008A9A50
1B300B00018BA400A000A3
0B000A000A401900A000A1
065008301E100900A00290
019004704B600903700550
00A000B0A6A00569510630
00B99673C5B794AD887740
00C30064A0C500AA000910
006600469055009A001A00
001A001C800A0059003700
000A000A30090276005500
0008302BA97AA8D7306400
0007BA7A001C50B4696500
000290090038A0B000A100
0000A0190073A0B0019000
000074640081A480056000
000046B000909B30064000
000037A300A11B00055000
00003A4CEA5007944A4000
0000037620000036630000
ENDCHAR
STARTCHAR wgrave
ENCODING 7809
SWIDTH 735 0
DWIDTH 21 0
BBX 22 27 -1 -1
BITMAP
0000000001310000000000
0000000069870000000000
0000000290090000000000
0000000092090000000000
000000001A046000000000
000000000740A000000000
0000000001BA3000000000
019BB900000000008A9A50
1B300B00018BA400A000A3
0B000A000A401900A000A1
065008301E100900A00290
019004704B600903700550
00A000B0A6A00569510630
00B99673C5B794AD887740
00C30064A0C500AA000910
006600469055009A001A00
001A001C800A0059003700
000A000A30090276005500
0008302BA97AA8D7306400
0007BA7A001C50B4696500
000290090038A0B000A100
0000A0190073A0B0019000
000074640081A480056000
000046B000909B30064000
000037A300A11B00055000
00003A4CEA5007944A4000
0000037620000036630000
ENDCHAR
STARTCHAR Wacute
ENCODING 7810
SWIDTH 735 0
DWIDTH 21 0
BBX 22 27 -1 -1
BITMAP
0000000000000100000000
0000000000004BA2000000
000000000000A019000000
0000000000066067000000
0000000000390570000000
0000000000A21A00000000
00000000003AB200000000
019BB900000000008A9A50
1B300B00018BA400A000A3
0B000A000A401900A000A1
065008301E100900A00290
019004704B600903700550
00A000B0A6A00569510630
00B99673C5B794AD887740
00C30064A0C500AA000910
006600469055009A001A00
001A001C800A0059003700
000A000A30090276005500
0008302BA97AA8D7306400
0007BA7A001C50B4696500
000290090038A0B000A100
0000A0190073A0B0019000
000074640081A480056000
000046B000909B30064000
000037A300A11B00055000
00003A4CEA5007944A4000
0000037620000036630000
ENDCHAR
STARTCHAR wacute
ENCODING 7811
SWIDTH 735 0
DWIDTH 21 0
BBX 22 27 -1 -1
BITMAP
0000000000000100000000
0000000000004BA2000000
000000000000A019000000
0000000000066067000000
0000000000390570000000
0000000000A21A00000000
00000000003AB200000000
019BB900000000008A9A50
1B300B00018BA400A000A3
0B000A000A401900A000A1
065008301E100900A00290
019004704B600903700550
00A000B0A6A00569510630
00B99673C5B794AD887740
00C30064A0C500AA000910
006600469055009A001A00
001A001C800A0059003700
000A000A30090276005500
0008302BA97AA8D7306400
0007BA7A001C50B4696500
000290090038A0B000A100
0000A0190073A0B0019000
000074640081A480056000
000046B000909B30064000
000037A300A11B00055000
00003A4CEA5007944A4000
0000037620000036630000
ENDCHAR
STARTCHAR Wdieresis
ENCODING 7812
SWIDTH 735 0
DWIDTH 21 0
BBX 22 25 -1 -1
BITMAP
0000000144101430000000
0000005955B2A66B100000
0000004600A1800A000000
0000000900909009000000
0000000A9A5089A5000000
019BB900000000008A9A50
1B300B00018BA400A000A3
0B000A000A401900A000A1
065008301E100900A00290
019004704B600903700550
00A000B0A6A00569510630
00B99673C5B794AD887740
00C30064A0C500AA000910
006600469055009A001A00
001A001C800A0059003700
000A000A30090276005500
0008302BA97AA8D7306400
0007BA7A001C50B4696500
000290090038A0B000A100
0000A0190073A0B0019000
000074640081A480056000
000046B000909B30064000
000037A300A11B00055000
00003A4CEA5007944A4000
0000037620000036630000
ENDCHAR
STARTCHAR wdieresis
ENCODING 7813
SWIDTH 735 0
DWIDTH 21 0
BBX 22 25 -1 -1
BITMAP
0000000144101430000000
0000005955B2A66B100000
0000004600A1800A000000
0000000900909009000000
0000000A9A5089A5000000
019BB900000000008A9A50
1B300B00018BA400A000A3
0B000A000A401900A000A1
065008301E100900A00290
019004704B600903700550
00A000B0A6A00569510630
00B99673C5B794AD887740
00C30064A0C500AA000910
006600469055009A001A00
001A001C800A0059003700
000A000A30090276005500
0008302BA97AA8D7306400
0007BA7A001C50B4696500
000290090038A0B000A100
0000A0190073A0B0019000
000074640081A480056000
000046B000909B30064000
000037A300A11B00055000
00003A4CEA5007944A4000
0000037620000036630000
ENDCHAR
STARTCHAR Ygrave
ENCODING 7922
SWIDTH 484 0
DWIDTH 14 0
BBX 16 27 -1 0
BITMAP
0000002300000000
00001A8B00000000
0000920720000000
0000380370000000
0000074090000000
000001A074000000
0000006A80000000
0000000000010000
02AA8000008AAA20
1B10A10000A002B1
8300390001A000A3
5A00066007400570
049000763A000B00
0075064ADB504700
000B9403A0577300
000780056001B000
0000940A10084000
00000A59001A0000
000002F400650000
000002A7A3910000
0000065004B00000
00000B0008400000
0000660029000000
0003A00083000000
00056000A0000000
0000A722A0000000
0000059930000000
ENDCHAR
STARTCHAR ygrave
ENCODING 7923
SWIDTH 484 0
DWIDTH 14 0
BBX 16 27 -1 0
BITMAP
0000002300000000
00001A8B00000000
0000920720000000
0000380370000000
0000074090000000
000001A074000000
0000006A80000000
0000000000010000
02AA8000008AAA20
1B10A10000A002B1
8300390001A000A3
5A00066007400570
049000763A000B00
0075064ADB504700
000B9403A0577300
000780056001B000
0000940A10084000
00000A59001A0000
000002F400650000
000002A7A3910000
0000065004B00000
00000B0008400000
0000660029000000
0003A00083000000
00056000A0000000
0000A722A0000000
0000059930000000
ENDCHAR
STARTCHAR endash
ENCODING 8211
SWIDTH 591 0
DWIDTH 17 0
BBX 16 7 0 6
BITMAP
0020000000000000
099A9AC98AC966A2
370000A010924329
4600009000720009
280000600060000A
08AA9AAAAAAAAAA5
0000000000000020
ENDCHAR
STARTCHAR emdash
ENCODING 8212
SWIDTH 726 0
DWIDTH 20 0
BBX 20 6 0 6
BITMAP
08A9878A86679A643570
2800232833431B466475
46000008100009000019
28000007000006000038
09AA99999AA9A9AAA9B2
00000000000000000120
ENDCHAR
STARTCHAR quoteleft
ENCODING 8216
SWIDTH 291 0
DWIDTH 8 0
BBX 9 12 0 9
BITMAP
0003873000
000A34A600
000A000B10
0038003900
01C2009100
04A991A000
0730149000
0A000A1000
6500280000
B000640000
7800830000
05AA700000
ENDCHAR
STARTCHAR quoteright
ENCODING 8217
SWIDTH 291 0
DWIDTH 8 0
BBX 9 12 0 9
BITMAP
0003873000
000A34A600
000A000B10
0038003900
01C2009100
04A991A000
0730149000
0A000A1000
6500280000
B000640000
7800830000
05AA700000
ENDCHAR
STARTCHAR quotesinglbase
ENCODING 8218
SWIDTH 228 0
DWIDTH 6 0
BBX 7 8 -1 -4
BITMAP
00089400
00371950
009000A0
084004A0
85003900
9101A000
39164000
04980000
ENDCHAR
STARTCHAR quotedblleft
ENCODING 8220
SWIDTH 532 0
DWIDTH 15 0
BBX 15 12 0 9
BITMAP
0003873000586100
000A34A600B35B30
000A000B129001B0
0038003907400650
01C200913B000A00
04A991A099A83700
07301490A0026500
0A000A128001A000
6500280A20064000
B0006429000A0000
7800830A500B0000
05AA70017AA50000
ENDCHAR
STARTCHAR quotedblright
ENCODING 8221
SWIDTH 532 0
DWIDTH 15 0
BBX 15 12 0 9
BITMAP
0003873000586100
000A34A600B35B30
000A000B129001B0
0038003907400650
01C200913B000A00
04A991A099A83700
07301490A0026500
0A000A128001A000
6500280A20064000
B0006429000A0000
7800830A500B0000
05AA70017AA50000
ENDCHAR
STARTCHAR quotedblbase
ENCODING 8222
SWIDTH 448 0
DWIDTH 13 0
BBX 14 8 -1 -4
BITMAP
0008940006A600
00371950191780
009000A08200A1
084004A66002A1
85003967002A10
9101A07200A100
3916401A146000
04980002991000
ENDCHAR
STARTCHAR dagger
ENCODING 8224
SWIDTH 453 0
DWIDTH 13 0
BBX 13 24 0 -2
BITMAP
00000353000000
0000AA79A00000
0000B000920000
0000B000B00000
0010A000B00000
0BAAD000DAB700
5600B000B00A00
7401B551A00920
5603D765A00A00
0B9AA000CAB700
0120B000A00000
0000B001900000
0000B001900000
0000A000A00000
0002D973A00000
0002B344B00000
0000A000A00000
0000A002900000
0000A003800000
00019002900000
00046000B00000
00074000C00000
0001B87B600000
00000452000000
ENDCHAR
STARTCHAR daggerdbl
ENCODING 8225
SWIDTH 462 0
DWIDTH 13 0
BBX 13 24 0 -2
BITMAP
00000253000000
00008A79B10000
0000B000750000
00009100A10000
00108200A00000
099AD200CAA900
3800A100A00920
5600B552A00740
3801D766910920
099AB000B9A900
0020B000A00000
0000B000A00000
0000B000A00000
0000A000A00000
0373D984924200
1B47C335A96B00
4600B000A00730
4600A000A00730
1A03B000C52B10
05A7B000B58500
00029000A00000
00056000A10000
0001B97A800000
00000352000000
ENDCHAR
STARTCHAR bullet
ENCODING 8226
SWIDTH 275 0
DWIDTH 8 0
BBX 5 5 1 8
BITMAP
037610
4923B0
170090
280090
199A70
ENDCHAR
STARTCHAR ellipsis
ENCODING 8230
SWIDTH 605 0
DWIDTH 17 0
BBX 17 6 0 -1
BITMAP
001000001000001000
2A89906A8A50998A20
360090810180900730
280090720360A00810
2A45A0773860A54A20
025400036300055100
ENDCHAR
STARTCHAR perthousand
ENCODING 8240
SWIDTH 1249 0
DWIDTH 35 0
BBX 35 20 0 0
BITMAP
005200010000000000000000000000000000
074577793000488200000000000000000000
1B892001C600901830000000000000000000
250283236800800720000000000000000000
070464A70800800900000000000000000000
070530700803602600000000000000000000
070530700808105400000000000000000000
164A6280080B876300000000000000000000
358135900809008100000000000000000000
586000901917008098777840009877775000
0594668BC1440355B71000A404B820009400
002311242081062911900088291190008730
0000000000C7371700A788670700A7887610
000000000081591700804308070080350700
000000000260190700804308070080340800
000000000630450701705208070170340700
00000000090072086787A107075787A20610
000000002700800880008005388000700440
000000000964A107C000498906C000398910
000000000034100038777790002877779100
ENDCHAR
STARTCHAR guilsinglleft
ENCODING 8249
SWIDTH 359 0
DWIDTH 10 0
BBX 10 14 0 3
BITMAP
0000001000
000004AB30
00006801B0
0029500082
19810004A1
5500019600
38002A2000
3D72AA1000
465912A300
0891001880
002A300091
00009502B0
0000097B30
0000003000
ENDCHAR
STARTCHAR guilsinglright
ENCODING 8250
SWIDTH 359 0
DWIDTH 10 0
BBX 10 14 0 3
BITMAP
0001000000
02BA600000
0B20770000
190005A200
1B50001891
006A200046
0001A30074
0001AA36D4
002A218555
0881001891
0A0003A300
0A20490000
02B7900000
0003100000
ENDCHAR
STARTCHAR fraction
ENCODING 8260
SWIDTH 266 0
DWIDTH 7 0
BBX 9 19 -1 0
BITMAP
0000388300
0000800750
0000800540
0000800900
0001800800
0006302600
000A875500
0009007200
0009009000
0027017000
0063035000
00B7344000
0080483000
0080090000
0350270000
0810540000
1900630000
0874920000
0024100000
ENDCHAR
STARTCHAR Euro
ENCODING 8364
SWIDTH 690 0
DWIDTH 19 0
BBX 19 21 0 -1
BITMAP
0000002BA64451000000
000000A11466C9AAA900
000000A0000091000820
000000A0000090000640
00000086786332200910
000563A632B7A88AA900
003938D740A000001000
0073039344B000000000
00730280019000000000
002A6980055000000000
05865660073000000000
39257D41074000000000
74000B79966000000000
55000B00092000000000
1B799C000A022126B600
012029002CABC9850A10
000093002900A0000650
000086002A0090000640
000009DB920043799B10
000002A27AAAA7301100
00000049400000000000
ENDCHAR
STARTCHAR partialdiff
ENCODING 8706
SWIDTH 519 0
DWIDTH 15 0
BBX 16 21 -1 -1
BITMAP
0000000058610000
0000002B63680000
0000007500280000
0000001A001A0000
00000009100B0000
0000000550065000
00000004639AD000
000000078510A000
00000078B000A000
00004B5084009100
0004E10047005600
006A660049000B00
4B600836AA49AD10
640186880B300920
2A0B46D307400740
07B80018A8900380
0075000004B000B1
003B720000A00057
0000399200B001A4
0000002970BBAA40
000000006A400000
ENDCHAR
STARTCHAR minus
ENCODING 8722
SWIDTH 467 0
DWIDTH 13 0
BBX 13 6 0 6
BITMAP
06BA89BA77A700
29011056341920
47000027000640
28000034000730
0A69AA89AA8B00
01510021002100
ENDCHAR
STARTCHAR fi
ENCODING 64257
SWIDTH 741 0
DWIDTH 21 0
BBX 20 21 0 -1
BITMAP
00698415411450049A60
096128C8B996844A215A
07400551A0001928001A
056008209000191A0047
056009534676851A0055
07400978843460380046
0B8856400000007A9839
0C313640010000861238
091009AAAA8000560055
08300A0000A000380064
07300A0000A000380064
0920094310A000560046
0CA976A69B40007B983A
0A001730000000640147
09100A00000000460064
09200A00000000460073
0A000A00000000650074
0B000910000000920056
2A000750000000B10039
06B9B8000000003BAAA2
00010000000000000000
ENDCHAR
STARTCHAR fl
ENCODING 64258
SWIDTH 942 0
DWIDTH 26 0
BBX 27 21 0 -1
BITMAP
00698415411450049A6000000000
096128C8B996844A215A00000000
07400551A0001928001A00000000
056008209000191A004700000000
056009534676851A005500000000
0740097884346038004600000000
0B8856400000007A983900000000
0C31364001000086123800000000
091009AAAA800056005500000000
08300A0000A00038006400000000
07300A0000A00038006400000000
0920094310A00056004600000000
0CA976A69B40007B983A00000000
0A00173000000064014700000000
09100A0000000046006740000100
09200A00000000460078DAAAAA60
0A000A00000000650074A00000A0
0B000910000000920056900000A0
2A000750000000B1003A323211A0
06B9B8000000003BAAA9A8679B30
0001000000000000000000000000
ENDCHAR
STARTCHAR .notdef
ENCODING -1
SWIDTH 200 0
DWIDTH 6 0
BBX 1 1 0 0
BITMAP
00
ENDCHAR
STARTCHAR .null
ENCODING -1
SWIDTH 0 0
DWIDTH 0 0
BBX 1 1 0 0
BITMAP
00
ENDCHAR
STARTCHAR nonmarkingreturn
ENCODING -1
SWIDTH 200 0
DWIDTH 6 0
BBX 1 1 0 0
BITMAP
00
ENDCHAR
ENDFONT
